%TF.GenerationSoftware,KiCad,Pcbnew,(6.0.10-0)*%
%TF.CreationDate,2023-02-08T11:04:04+05:30*%
%TF.ProjectId,dbe_dcdc,6462655f-6463-4646-932e-6b696361645f,rev?*%
%TF.SameCoordinates,Original*%
%TF.FileFunction,Copper,L1,Top*%
%TF.FilePolarity,Positive*%
%FSLAX46Y46*%
G04 Gerber Fmt 4.6, Leading zero omitted, Abs format (unit mm)*
G04 Created by KiCad (PCBNEW (6.0.10-0)) date 2023-02-08 11:04:04*
%MOMM*%
%LPD*%
G01*
G04 APERTURE LIST*
G04 Aperture macros list*
%AMRoundRect*
0 Rectangle with rounded corners*
0 $1 Rounding radius*
0 $2 $3 $4 $5 $6 $7 $8 $9 X,Y pos of 4 corners*
0 Add a 4 corners polygon primitive as box body*
4,1,4,$2,$3,$4,$5,$6,$7,$8,$9,$2,$3,0*
0 Add four circle primitives for the rounded corners*
1,1,$1+$1,$2,$3*
1,1,$1+$1,$4,$5*
1,1,$1+$1,$6,$7*
1,1,$1+$1,$8,$9*
0 Add four rect primitives between the rounded corners*
20,1,$1+$1,$2,$3,$4,$5,0*
20,1,$1+$1,$4,$5,$6,$7,0*
20,1,$1+$1,$6,$7,$8,$9,0*
20,1,$1+$1,$8,$9,$2,$3,0*%
G04 Aperture macros list end*
%TA.AperFunction,SMDPad,CuDef*%
%ADD10RoundRect,0.249999X-2.450001X0.737501X-2.450001X-0.737501X2.450001X-0.737501X2.450001X0.737501X0*%
%TD*%
%TA.AperFunction,ConnectorPad*%
%ADD11C,3.800000*%
%TD*%
%TA.AperFunction,ComponentPad*%
%ADD12C,2.600000*%
%TD*%
%TA.AperFunction,ConnectorPad*%
%ADD13C,5.000000*%
%TD*%
%TA.AperFunction,ComponentPad*%
%ADD14C,2.900000*%
%TD*%
%TA.AperFunction,SMDPad,CuDef*%
%ADD15RoundRect,0.250000X-1.100000X0.412500X-1.100000X-0.412500X1.100000X-0.412500X1.100000X0.412500X0*%
%TD*%
%TA.AperFunction,SMDPad,CuDef*%
%ADD16R,1.600000X3.750000*%
%TD*%
%TA.AperFunction,SMDPad,CuDef*%
%ADD17RoundRect,0.249999X2.450001X-0.737501X2.450001X0.737501X-2.450001X0.737501X-2.450001X-0.737501X0*%
%TD*%
%TA.AperFunction,ComponentPad*%
%ADD18R,1.700000X1.700000*%
%TD*%
%TA.AperFunction,ComponentPad*%
%ADD19O,1.700000X1.700000*%
%TD*%
%TA.AperFunction,SMDPad,CuDef*%
%ADD20RoundRect,0.250000X-0.450000X0.350000X-0.450000X-0.350000X0.450000X-0.350000X0.450000X0.350000X0*%
%TD*%
%TA.AperFunction,SMDPad,CuDef*%
%ADD21RoundRect,0.250000X0.450000X-0.350000X0.450000X0.350000X-0.450000X0.350000X-0.450000X-0.350000X0*%
%TD*%
%TA.AperFunction,SMDPad,CuDef*%
%ADD22RoundRect,0.250000X-0.350000X-0.450000X0.350000X-0.450000X0.350000X0.450000X-0.350000X0.450000X0*%
%TD*%
%TA.AperFunction,ComponentPad*%
%ADD23C,3.302000*%
%TD*%
%TA.AperFunction,ComponentPad*%
%ADD24C,4.318000*%
%TD*%
%TA.AperFunction,ComponentPad*%
%ADD25C,1.524000*%
%TD*%
%TA.AperFunction,ConnectorPad*%
%ADD26C,6.400000*%
%TD*%
%TA.AperFunction,ComponentPad*%
%ADD27C,3.600000*%
%TD*%
%TA.AperFunction,SMDPad,CuDef*%
%ADD28RoundRect,0.237500X-0.287500X-0.237500X0.287500X-0.237500X0.287500X0.237500X-0.287500X0.237500X0*%
%TD*%
%TA.AperFunction,SMDPad,CuDef*%
%ADD29RoundRect,0.250000X0.650000X-0.412500X0.650000X0.412500X-0.650000X0.412500X-0.650000X-0.412500X0*%
%TD*%
%TA.AperFunction,ComponentPad*%
%ADD30R,2.400000X2.400000*%
%TD*%
%TA.AperFunction,ComponentPad*%
%ADD31C,2.400000*%
%TD*%
%TA.AperFunction,SMDPad,CuDef*%
%ADD32RoundRect,0.150000X0.587500X0.150000X-0.587500X0.150000X-0.587500X-0.150000X0.587500X-0.150000X0*%
%TD*%
%TA.AperFunction,ViaPad*%
%ADD33C,0.800000*%
%TD*%
%TA.AperFunction,Conductor*%
%ADD34C,1.270000*%
%TD*%
%TA.AperFunction,Conductor*%
%ADD35C,0.508000*%
%TD*%
G04 APERTURE END LIST*
D10*
%TO.P,C8,1*%
%TO.N,Net-(C5-Pad2)*%
X78550000Y-101662500D03*
%TO.P,C8,2*%
%TO.N,GNDREF*%
X78550000Y-106937500D03*
%TD*%
D11*
%TO.P,+VDC,1*%
%TO.N,+VDC*%
X26750000Y-79000000D03*
D12*
X26750000Y-79000000D03*
%TD*%
D13*
%TO.P,GND,1*%
%TO.N,GNDREF*%
X165000000Y-102000000D03*
D14*
X165000000Y-102000000D03*
%TD*%
D15*
%TO.P,C5,1*%
%TO.N,Net-(C4-Pad1)*%
X63400000Y-85072500D03*
%TO.P,C5,2*%
%TO.N,Net-(C5-Pad2)*%
X63400000Y-88197500D03*
%TD*%
D16*
%TO.P,FL1,1,NC_1*%
%TO.N,unconnected-(FL1-Pad1)*%
X41175000Y-97235000D03*
%TO.P,FL1,2,N1_1*%
%TO.N,-VDC*%
X43970000Y-97235000D03*
%TO.P,FL1,3,N1_2*%
X46765000Y-97235000D03*
%TO.P,FL1,4,NC_2*%
%TO.N,unconnected-(FL1-Pad4)*%
X51335000Y-97235000D03*
%TO.P,FL1,5,N1_3*%
%TO.N,Net-(C5-Pad2)*%
X54130000Y-97235000D03*
%TO.P,FL1,6,N1_4*%
X56925000Y-97235000D03*
%TO.P,FL1,7,N2_1*%
%TO.N,Net-(C4-Pad1)*%
X55400000Y-75985000D03*
%TO.P,FL1,8,N2_2*%
X52225000Y-75985000D03*
%TO.P,FL1,9,NC_3*%
%TO.N,unconnected-(FL1-Pad9)*%
X49050000Y-75985000D03*
%TO.P,FL1,10,N2_3*%
%TO.N,+VDC*%
X45875000Y-75985000D03*
%TO.P,FL1,11,N2_4*%
X42700000Y-75985000D03*
%TD*%
D17*
%TO.P,C4,1*%
%TO.N,Net-(C4-Pad1)*%
X78500000Y-71217500D03*
%TO.P,C4,2*%
%TO.N,GNDREF*%
X78500000Y-65942500D03*
%TD*%
D11*
%TO.P,OUT_GND,1*%
%TO.N,GNDREF*%
X144750000Y-103000000D03*
D12*
X144750000Y-103000000D03*
%TD*%
D18*
%TO.P,PMBUS,1,Pin_1*%
%TO.N,Net-(U1-Pad10)*%
X144500000Y-72000000D03*
D19*
%TO.P,PMBUS,2,Pin_2*%
%TO.N,GNDREF*%
X144500000Y-69460000D03*
%TO.P,PMBUS,3,Pin_3*%
%TO.N,Net-(U1-Pad11)*%
X147040000Y-72000000D03*
%TO.P,PMBUS,4,Pin_4*%
%TO.N,GNDREF*%
X147040000Y-69460000D03*
%TO.P,PMBUS,5,Pin_5*%
%TO.N,+3V3*%
X149580000Y-72000000D03*
%TO.P,PMBUS,6,Pin_6*%
%TO.N,GNDREF*%
X149580000Y-69460000D03*
%TO.P,PMBUS,7,Pin_7*%
%TO.N,SMB_ALERT*%
X152120000Y-72000000D03*
%TO.P,PMBUS,8,Pin_8*%
%TO.N,GNDREF*%
X152120000Y-69460000D03*
%TD*%
D20*
%TO.P,R6,1*%
%TO.N,Net-(R6-Pad1)*%
X148750000Y-100000000D03*
%TO.P,R6,2*%
%TO.N,GNDREF*%
X148750000Y-102000000D03*
%TD*%
D10*
%TO.P,C9,1*%
%TO.N,Net-(C5-Pad2)*%
X87000000Y-101562500D03*
%TO.P,C9,2*%
%TO.N,GNDREF*%
X87000000Y-106837500D03*
%TD*%
D16*
%TO.P,FL2,1,NC_1*%
%TO.N,unconnected-(FL2-Pad1)*%
X74625000Y-97235000D03*
%TO.P,FL2,2,N1_1*%
%TO.N,Net-(C5-Pad2)*%
X77420000Y-97235000D03*
%TO.P,FL2,3,N1_2*%
X80215000Y-97235000D03*
%TO.P,FL2,4,NC_2*%
%TO.N,unconnected-(FL2-Pad4)*%
X84785000Y-97235000D03*
%TO.P,FL2,5,N1_3*%
%TO.N,GND*%
X87580000Y-97235000D03*
%TO.P,FL2,6,N1_4*%
X90375000Y-97235000D03*
%TO.P,FL2,7,N2_1*%
%TO.N,VIN*%
X88850000Y-75985000D03*
%TO.P,FL2,8,N2_2*%
X85675000Y-75985000D03*
%TO.P,FL2,9,NC_3*%
%TO.N,unconnected-(FL2-Pad9)*%
X82500000Y-75985000D03*
%TO.P,FL2,10,N2_3*%
%TO.N,Net-(C4-Pad1)*%
X79325000Y-75985000D03*
%TO.P,FL2,11,N2_4*%
X76150000Y-75985000D03*
%TD*%
D21*
%TO.P,R8,1*%
%TO.N,VIN*%
X113284000Y-72374000D03*
%TO.P,R8,2*%
%TO.N,Net-(D4-Pad2)*%
X113284000Y-70374000D03*
%TD*%
D15*
%TO.P,C7,1*%
%TO.N,Net-(C4-Pad1)*%
X68530000Y-85070000D03*
%TO.P,C7,2*%
%TO.N,Net-(C5-Pad2)*%
X68530000Y-88195000D03*
%TD*%
D22*
%TO.P,R5,1*%
%TO.N,P_GOOD*%
X139500000Y-72000000D03*
%TO.P,R5,2*%
%TO.N,Net-(D3-Pad2)*%
X141500000Y-72000000D03*
%TD*%
%TO.P,R1,1*%
%TO.N,Net-(Q1-Pad1)*%
X124750000Y-72000000D03*
%TO.P,R1,2*%
%TO.N,SMB_ALERT*%
X126750000Y-72000000D03*
%TD*%
%TO.P,R9,1*%
%TO.N,Net-(D5-Pad2)*%
X158250000Y-73000000D03*
%TO.P,R9,2*%
%TO.N,+12V*%
X160250000Y-73000000D03*
%TD*%
D23*
%TO.P,U1,1,+VIN*%
%TO.N,VIN*%
X113293250Y-78833250D03*
%TO.P,U1,2,RC*%
%TO.N,~{EN}*%
X113293250Y-86453250D03*
%TO.P,U1,4,-VIN*%
%TO.N,GND*%
X113293250Y-94073250D03*
D24*
%TO.P,U1,5,-VOUT*%
%TO.N,GNDREF*%
X164093250Y-94073250D03*
D25*
%TO.P,U1,6,+S*%
%TO.N,+12V*%
X163102650Y-90466450D03*
%TO.P,U1,7,-S*%
%TO.N,GNDREF*%
X165083850Y-90466450D03*
%TO.P,U1,8,SA0*%
%TO.N,Net-(R6-Pad1)*%
X163102650Y-88459850D03*
%TO.P,U1,9,SA1*%
%TO.N,Net-(R7-Pad1)*%
X165083850Y-88459850D03*
%TO.P,U1,10,SCL*%
%TO.N,Net-(U1-Pad10)*%
X163102650Y-86453250D03*
%TO.P,U1,11,SDA*%
%TO.N,Net-(U1-Pad11)*%
X165083850Y-86453250D03*
%TO.P,U1,12,PG*%
%TO.N,P_GOOD*%
X163102650Y-84446650D03*
%TO.P,U1,13,DGND*%
%TO.N,GNDREF*%
X165083850Y-84446650D03*
%TO.P,U1,14,SMBALERT*%
%TO.N,SMB_ALERT*%
X163102650Y-82440050D03*
%TO.P,U1,15,CTRL*%
%TO.N,unconnected-(U1-Pad15)*%
X165083850Y-82440050D03*
D24*
%TO.P,U1,16,+VOUT*%
%TO.N,+12V*%
X164093250Y-78833250D03*
%TD*%
D26*
%TO.P,M1,1*%
%TO.N,N/C*%
X55000000Y-65000000D03*
D27*
X55000000Y-65000000D03*
%TD*%
D22*
%TO.P,R4,1*%
%TO.N,Net-(D2-Pad2)*%
X134500000Y-68000000D03*
%TO.P,R4,2*%
%TO.N,+3V3*%
X136500000Y-68000000D03*
%TD*%
D15*
%TO.P,C1,1*%
%TO.N,+VDC*%
X26750000Y-84937500D03*
%TO.P,C1,2*%
%TO.N,-VDC*%
X26750000Y-88062500D03*
%TD*%
%TO.P,C3,1*%
%TO.N,+VDC*%
X34750000Y-84937500D03*
%TO.P,C3,2*%
%TO.N,-VDC*%
X34750000Y-88062500D03*
%TD*%
D18*
%TO.P,JP1,1,A*%
%TO.N,GND*%
X116610000Y-102870000D03*
D19*
%TO.P,JP1,2,B*%
%TO.N,~{EN}*%
X119150000Y-102870000D03*
%TD*%
D22*
%TO.P,R3,1*%
%TO.N,Net-(Q2-Pad1)*%
X134500000Y-72000000D03*
%TO.P,R3,2*%
%TO.N,P_GOOD*%
X136500000Y-72000000D03*
%TD*%
D13*
%TO.P,+12V,1*%
%TO.N,+12V*%
X165000000Y-71000000D03*
D14*
X165000000Y-71000000D03*
%TD*%
D28*
%TO.P,D5,1,K*%
%TO.N,GNDREF*%
X155375000Y-70750000D03*
%TO.P,D5,2,A*%
%TO.N,Net-(D5-Pad2)*%
X157125000Y-70750000D03*
%TD*%
D12*
%TO.P,-VDC,1*%
%TO.N,-VDC*%
X26750000Y-94000000D03*
D11*
X26750000Y-94000000D03*
%TD*%
D26*
%TO.P,CHASSIS,1*%
%TO.N,GNDREF*%
X156500000Y-65000000D03*
D27*
X156500000Y-65000000D03*
%TD*%
D26*
%TO.P,M2,1*%
%TO.N,N/C*%
X55000000Y-106000000D03*
D27*
X55000000Y-106000000D03*
%TD*%
D28*
%TO.P,D2,1,K*%
%TO.N,Net-(D2-Pad1)*%
X129375000Y-66000000D03*
%TO.P,D2,2,A*%
%TO.N,Net-(D2-Pad2)*%
X131125000Y-66000000D03*
%TD*%
D29*
%TO.P,C10,1*%
%TO.N,VIN*%
X101600000Y-74375000D03*
%TO.P,C10,2*%
%TO.N,GND*%
X101600000Y-71250000D03*
%TD*%
D28*
%TO.P,D4,1,K*%
%TO.N,GND*%
X107583000Y-70358000D03*
%TO.P,D4,2,A*%
%TO.N,Net-(D4-Pad2)*%
X109333000Y-70358000D03*
%TD*%
%TO.P,D1,1,K*%
%TO.N,Net-(D1-Pad1)*%
X119375000Y-66000000D03*
%TO.P,D1,2,A*%
%TO.N,Net-(D1-Pad2)*%
X121125000Y-66000000D03*
%TD*%
D15*
%TO.P,C2,1*%
%TO.N,+VDC*%
X30750000Y-84937500D03*
%TO.P,C2,2*%
%TO.N,-VDC*%
X30750000Y-88062500D03*
%TD*%
D12*
%TO.P,IN_GND,1*%
%TO.N,GND*%
X127000000Y-103000000D03*
D11*
X127000000Y-103000000D03*
%TD*%
D30*
%TO.P,C11,1*%
%TO.N,VIN*%
X101600000Y-83740000D03*
D31*
%TO.P,C11,2*%
%TO.N,GND*%
X101600000Y-88740000D03*
%TD*%
D20*
%TO.P,R7,1*%
%TO.N,Net-(R7-Pad1)*%
X151250000Y-100000000D03*
%TO.P,R7,2*%
%TO.N,GNDREF*%
X151250000Y-102000000D03*
%TD*%
D27*
%TO.P,CHASSIS,1*%
%TO.N,GNDREF*%
X156500000Y-106000000D03*
D26*
X156500000Y-106000000D03*
%TD*%
D28*
%TO.P,D3,1,K*%
%TO.N,GNDREF*%
X139625000Y-66000000D03*
%TO.P,D3,2,A*%
%TO.N,Net-(D3-Pad2)*%
X141375000Y-66000000D03*
%TD*%
D22*
%TO.P,R2,1*%
%TO.N,Net-(D1-Pad2)*%
X124750000Y-68000000D03*
%TO.P,R2,2*%
%TO.N,+3V3*%
X126750000Y-68000000D03*
%TD*%
D17*
%TO.P,C6,1*%
%TO.N,Net-(C4-Pad1)*%
X87000000Y-71217500D03*
%TO.P,C6,2*%
%TO.N,GNDREF*%
X87000000Y-65942500D03*
%TD*%
D32*
%TO.P,Q2,1,B*%
%TO.N,Net-(Q2-Pad1)*%
X131937500Y-70450000D03*
%TO.P,Q2,2,E*%
%TO.N,GNDREF*%
X131937500Y-68550000D03*
%TO.P,Q2,3,C*%
%TO.N,Net-(D2-Pad1)*%
X130062500Y-69500000D03*
%TD*%
%TO.P,Q1,1,B*%
%TO.N,Net-(Q1-Pad1)*%
X122187500Y-70450000D03*
%TO.P,Q1,2,E*%
%TO.N,GNDREF*%
X122187500Y-68550000D03*
%TO.P,Q1,3,C*%
%TO.N,Net-(D1-Pad1)*%
X120312500Y-69500000D03*
%TD*%
D33*
%TO.N,GNDREF*%
X130750000Y-67250000D03*
X122750000Y-67250000D03*
%TO.N,SMB_ALERT*%
X153500000Y-77250000D03*
X134000000Y-74000000D03*
%TO.N,+3V3*%
X137750000Y-69250500D03*
X128250000Y-69250000D03*
%TO.N,Net-(U1-Pad11)*%
X148750000Y-75250000D03*
%TO.N,P_GOOD*%
X143000000Y-83250000D03*
X151796650Y-84446650D03*
%TO.N,Net-(R7-Pad1)*%
X167250000Y-91750000D03*
%TD*%
D34*
%TO.N,+VDC*%
X26750000Y-84937500D02*
X26890000Y-84797500D01*
X42700000Y-75985000D02*
X45875000Y-75985000D01*
X26890000Y-84797500D02*
X34610000Y-84797500D01*
X34610000Y-84797500D02*
X34750000Y-84937500D01*
%TO.N,-VDC*%
X43970000Y-97235000D02*
X46765000Y-97235000D01*
X34600000Y-87912500D02*
X26900000Y-87912500D01*
X26900000Y-87912500D02*
X26750000Y-88062500D01*
X34750000Y-88062500D02*
X34600000Y-87912500D01*
%TO.N,Net-(C4-Pad1)*%
X78500000Y-71217500D02*
X87000000Y-71217500D01*
X68527500Y-85072500D02*
X68530000Y-85070000D01*
X76150000Y-75985000D02*
X79325000Y-75985000D01*
X52225000Y-75985000D02*
X55400000Y-75985000D01*
X63400000Y-85072500D02*
X68527500Y-85072500D01*
D35*
%TO.N,GNDREF*%
X122750000Y-67250000D02*
X122250000Y-67750000D01*
X165106700Y-84500000D02*
X166250000Y-84500000D01*
D34*
X142750000Y-103000000D02*
X144750000Y-103000000D01*
D35*
X134104000Y-70104000D02*
X138646000Y-70104000D01*
D34*
X78550000Y-106937500D02*
X86900000Y-106937500D01*
X88692500Y-64250000D02*
X143750000Y-64250000D01*
D35*
X131937500Y-68550000D02*
X132550000Y-68550000D01*
X166533550Y-90466450D02*
X165083850Y-90466450D01*
D34*
X138912500Y-106837500D02*
X142750000Y-103000000D01*
X86900000Y-106937500D02*
X87000000Y-106837500D01*
D35*
X130750000Y-67250000D02*
X131937500Y-68437500D01*
X166250000Y-84500000D02*
X167000000Y-85250000D01*
X122250000Y-68487500D02*
X122187500Y-68550000D01*
D34*
X143750000Y-64250000D02*
X145000000Y-65500000D01*
D35*
X131937500Y-68437500D02*
X131937500Y-68550000D01*
X132550000Y-68550000D02*
X134104000Y-70104000D01*
X167000000Y-85250000D02*
X167000000Y-90000000D01*
X165053350Y-84446650D02*
X165106700Y-84500000D01*
D34*
X87000000Y-106837500D02*
X138912500Y-106837500D01*
D35*
X167000000Y-90000000D02*
X166533550Y-90466450D01*
D34*
X87000000Y-65942500D02*
X88692500Y-64250000D01*
D35*
X138646000Y-70104000D02*
X139625000Y-69125000D01*
D34*
X145000000Y-65500000D02*
X145000000Y-68960000D01*
D35*
X165083850Y-84446650D02*
X165053350Y-84446650D01*
X139625000Y-69125000D02*
X139625000Y-66000000D01*
X122250000Y-67750000D02*
X122250000Y-68487500D01*
D34*
X78500000Y-65942500D02*
X87000000Y-65942500D01*
X145000000Y-68960000D02*
X144500000Y-69460000D01*
%TO.N,Net-(C5-Pad2)*%
X54130000Y-97235000D02*
X56925000Y-97235000D01*
X77420000Y-97235000D02*
X80215000Y-97235000D01*
X78550000Y-101662500D02*
X86900000Y-101662500D01*
X68527500Y-88197500D02*
X68530000Y-88195000D01*
X63400000Y-88197500D02*
X68527500Y-88197500D01*
X86900000Y-101662500D02*
X87000000Y-101562500D01*
D35*
%TO.N,VIN*%
X113293250Y-72383250D02*
X113293250Y-78833250D01*
D34*
X85675000Y-75985000D02*
X88850000Y-75985000D01*
D35*
X113284000Y-72374000D02*
X113293250Y-72383250D01*
D34*
%TO.N,GND*%
X87580000Y-97235000D02*
X90375000Y-97235000D01*
D35*
%TO.N,+12V*%
X161000000Y-75740000D02*
X164093250Y-78833250D01*
X161000000Y-73750000D02*
X161000000Y-75740000D01*
X160250000Y-73000000D02*
X161000000Y-73750000D01*
%TO.N,Net-(D1-Pad2)*%
X122750000Y-66000000D02*
X124750000Y-68000000D01*
X121125000Y-66000000D02*
X122750000Y-66000000D01*
%TO.N,Net-(D2-Pad2)*%
X131125000Y-66000000D02*
X134000000Y-66000000D01*
X134000000Y-66000000D02*
X134500000Y-66500000D01*
X134500000Y-66500000D02*
X134500000Y-68000000D01*
%TO.N,Net-(D1-Pad1)*%
X120312500Y-69500000D02*
X119375000Y-68562500D01*
X119375000Y-68562500D02*
X119375000Y-66000000D01*
%TO.N,Net-(D3-Pad2)*%
X141375000Y-66000000D02*
X141000000Y-66375000D01*
X141000000Y-71500000D02*
X141500000Y-72000000D01*
X141000000Y-66375000D02*
X141000000Y-71500000D01*
%TO.N,Net-(D2-Pad1)*%
X129250000Y-66125000D02*
X129375000Y-66000000D01*
X129250000Y-68687500D02*
X129250000Y-66125000D01*
X130062500Y-69500000D02*
X129250000Y-68687500D01*
%TO.N,Net-(D4-Pad2)*%
X113268000Y-70358000D02*
X113284000Y-70374000D01*
X109333000Y-70358000D02*
X113268000Y-70358000D01*
%TO.N,SMB_ALERT*%
X152120000Y-72000000D02*
X153500000Y-73380000D01*
X153500000Y-73380000D02*
X153500000Y-79550000D01*
X153500000Y-79550000D02*
X156390050Y-82440050D01*
X131250000Y-72000000D02*
X133250000Y-74000000D01*
X126750000Y-72000000D02*
X131250000Y-72000000D01*
X156390050Y-82440050D02*
X163102650Y-82440050D01*
X133250000Y-74000000D02*
X134000000Y-74000000D01*
%TO.N,+3V3*%
X137750000Y-69250000D02*
X136500000Y-68000000D01*
X137750000Y-69250500D02*
X137750000Y-69250000D01*
X126750000Y-68000000D02*
X127000000Y-68000000D01*
X127000000Y-68000000D02*
X128250000Y-69250000D01*
%TO.N,Net-(D5-Pad2)*%
X158250000Y-71875000D02*
X157125000Y-70750000D01*
X158250000Y-73000000D02*
X158250000Y-71875000D01*
%TO.N,Net-(U1-Pad11)*%
X148750000Y-75250000D02*
X148250000Y-75250000D01*
X148250000Y-75250000D02*
X147040000Y-74040000D01*
X147040000Y-74040000D02*
X147040000Y-72000000D01*
D34*
%TO.N,~{EN}*%
X113293250Y-86453250D02*
X119150000Y-92310000D01*
X119150000Y-92310000D02*
X119150000Y-102870000D01*
D35*
%TO.N,Net-(Q1-Pad1)*%
X122187500Y-70450000D02*
X123200000Y-70450000D01*
X123200000Y-70450000D02*
X124750000Y-72000000D01*
%TO.N,Net-(U1-Pad10)*%
X151603250Y-86453250D02*
X163102650Y-86453250D01*
X146380000Y-75380000D02*
X146380000Y-81230000D01*
X146380000Y-81230000D02*
X151603250Y-86453250D01*
X144500000Y-73500000D02*
X146380000Y-75380000D01*
X144500000Y-72000000D02*
X144500000Y-73500000D01*
%TO.N,P_GOOD*%
X139750000Y-72250000D02*
X139500000Y-72000000D01*
X151796650Y-84446650D02*
X163102650Y-84446650D01*
X143000000Y-79550000D02*
X139750000Y-76300000D01*
X143000000Y-83250000D02*
X143000000Y-79550000D01*
X139500000Y-72000000D02*
X136500000Y-72000000D01*
X139750000Y-76300000D02*
X139750000Y-72250000D01*
%TO.N,Net-(R6-Pad1)*%
X148750000Y-100000000D02*
X148750000Y-99000000D01*
X148750000Y-99000000D02*
X149500000Y-98250000D01*
X151750000Y-98250000D02*
X161540150Y-88459850D01*
X149500000Y-98250000D02*
X151750000Y-98250000D01*
X161540150Y-88459850D02*
X163102650Y-88459850D01*
%TO.N,Net-(R7-Pad1)*%
X152250000Y-100000000D02*
X151250000Y-100000000D01*
X166500000Y-97750000D02*
X154500000Y-97750000D01*
X167250000Y-91750000D02*
X167250000Y-97000000D01*
X167250000Y-97000000D02*
X166500000Y-97750000D01*
X154500000Y-97750000D02*
X152250000Y-100000000D01*
%TO.N,Net-(Q2-Pad1)*%
X131937500Y-70450000D02*
X132950000Y-70450000D01*
X132950000Y-70450000D02*
X134500000Y-72000000D01*
%TD*%
M02*
