%TF.GenerationSoftware,KiCad,Pcbnew,(6.0.10-0)*%
%TF.CreationDate,2023-02-08T11:04:04+05:30*%
%TF.ProjectId,dbe_dcdc,6462655f-6463-4646-932e-6b696361645f,rev?*%
%TF.SameCoordinates,Original*%
%TF.FileFunction,Copper,L2,Bot*%
%TF.FilePolarity,Positive*%
%FSLAX46Y46*%
G04 Gerber Fmt 4.6, Leading zero omitted, Abs format (unit mm)*
G04 Created by KiCad (PCBNEW (6.0.10-0)) date 2023-02-08 11:04:04*
%MOMM*%
%LPD*%
G01*
G04 APERTURE LIST*
%TA.AperFunction,ConnectorPad*%
%ADD10C,3.800000*%
%TD*%
%TA.AperFunction,ComponentPad*%
%ADD11C,2.600000*%
%TD*%
%TA.AperFunction,ConnectorPad*%
%ADD12C,5.000000*%
%TD*%
%TA.AperFunction,ComponentPad*%
%ADD13C,2.900000*%
%TD*%
%TA.AperFunction,ComponentPad*%
%ADD14R,1.700000X1.700000*%
%TD*%
%TA.AperFunction,ComponentPad*%
%ADD15O,1.700000X1.700000*%
%TD*%
%TA.AperFunction,ComponentPad*%
%ADD16C,3.302000*%
%TD*%
%TA.AperFunction,ComponentPad*%
%ADD17C,4.318000*%
%TD*%
%TA.AperFunction,ComponentPad*%
%ADD18C,1.524000*%
%TD*%
%TA.AperFunction,ComponentPad*%
%ADD19C,3.600000*%
%TD*%
%TA.AperFunction,ConnectorPad*%
%ADD20C,6.400000*%
%TD*%
%TA.AperFunction,ComponentPad*%
%ADD21R,2.400000X2.400000*%
%TD*%
%TA.AperFunction,ComponentPad*%
%ADD22C,2.400000*%
%TD*%
%TA.AperFunction,ViaPad*%
%ADD23C,0.800000*%
%TD*%
%TA.AperFunction,Conductor*%
%ADD24C,0.508000*%
%TD*%
G04 APERTURE END LIST*
D10*
%TO.P,+VDC,1*%
%TO.N,+VDC*%
X26750000Y-79000000D03*
D11*
X26750000Y-79000000D03*
%TD*%
D12*
%TO.P,GND,1*%
%TO.N,GNDREF*%
X165000000Y-102000000D03*
D13*
X165000000Y-102000000D03*
%TD*%
D10*
%TO.P,OUT_GND,1*%
%TO.N,GNDREF*%
X144750000Y-103000000D03*
D11*
X144750000Y-103000000D03*
%TD*%
D14*
%TO.P,PMBUS,1,Pin_1*%
%TO.N,Net-(U1-Pad10)*%
X144500000Y-72000000D03*
D15*
%TO.P,PMBUS,2,Pin_2*%
%TO.N,GNDREF*%
X144500000Y-69460000D03*
%TO.P,PMBUS,3,Pin_3*%
%TO.N,Net-(U1-Pad11)*%
X147040000Y-72000000D03*
%TO.P,PMBUS,4,Pin_4*%
%TO.N,GNDREF*%
X147040000Y-69460000D03*
%TO.P,PMBUS,5,Pin_5*%
%TO.N,+3V3*%
X149580000Y-72000000D03*
%TO.P,PMBUS,6,Pin_6*%
%TO.N,GNDREF*%
X149580000Y-69460000D03*
%TO.P,PMBUS,7,Pin_7*%
%TO.N,SMB_ALERT*%
X152120000Y-72000000D03*
%TO.P,PMBUS,8,Pin_8*%
%TO.N,GNDREF*%
X152120000Y-69460000D03*
%TD*%
D16*
%TO.P,U1,1,+VIN*%
%TO.N,VIN*%
X113293250Y-78833250D03*
%TO.P,U1,2,RC*%
%TO.N,~{EN}*%
X113293250Y-86453250D03*
%TO.P,U1,4,-VIN*%
%TO.N,GND*%
X113293250Y-94073250D03*
D17*
%TO.P,U1,5,-VOUT*%
%TO.N,GNDREF*%
X164093250Y-94073250D03*
D18*
%TO.P,U1,6,+S*%
%TO.N,+12V*%
X163102650Y-90466450D03*
%TO.P,U1,7,-S*%
%TO.N,GNDREF*%
X165083850Y-90466450D03*
%TO.P,U1,8,SA0*%
%TO.N,Net-(R6-Pad1)*%
X163102650Y-88459850D03*
%TO.P,U1,9,SA1*%
%TO.N,Net-(R7-Pad1)*%
X165083850Y-88459850D03*
%TO.P,U1,10,SCL*%
%TO.N,Net-(U1-Pad10)*%
X163102650Y-86453250D03*
%TO.P,U1,11,SDA*%
%TO.N,Net-(U1-Pad11)*%
X165083850Y-86453250D03*
%TO.P,U1,12,PG*%
%TO.N,P_GOOD*%
X163102650Y-84446650D03*
%TO.P,U1,13,DGND*%
%TO.N,GNDREF*%
X165083850Y-84446650D03*
%TO.P,U1,14,SMBALERT*%
%TO.N,SMB_ALERT*%
X163102650Y-82440050D03*
%TO.P,U1,15,CTRL*%
%TO.N,unconnected-(U1-Pad15)*%
X165083850Y-82440050D03*
D17*
%TO.P,U1,16,+VOUT*%
%TO.N,+12V*%
X164093250Y-78833250D03*
%TD*%
D19*
%TO.P,M1,1*%
%TO.N,N/C*%
X55000000Y-65000000D03*
D20*
X55000000Y-65000000D03*
%TD*%
D14*
%TO.P,JP1,1,A*%
%TO.N,GND*%
X116610000Y-102870000D03*
D15*
%TO.P,JP1,2,B*%
%TO.N,~{EN}*%
X119150000Y-102870000D03*
%TD*%
D13*
%TO.P,+12V,1*%
%TO.N,+12V*%
X165000000Y-71000000D03*
D12*
X165000000Y-71000000D03*
%TD*%
D10*
%TO.P,-VDC,1*%
%TO.N,-VDC*%
X26750000Y-94000000D03*
D11*
X26750000Y-94000000D03*
%TD*%
D19*
%TO.P,CHASSIS,1*%
%TO.N,GNDREF*%
X156500000Y-65000000D03*
D20*
X156500000Y-65000000D03*
%TD*%
%TO.P,M2,1*%
%TO.N,N/C*%
X55000000Y-106000000D03*
D19*
X55000000Y-106000000D03*
%TD*%
D10*
%TO.P,IN_GND,1*%
%TO.N,GND*%
X127000000Y-103000000D03*
D11*
X127000000Y-103000000D03*
%TD*%
D21*
%TO.P,C11,1*%
%TO.N,VIN*%
X101600000Y-83740000D03*
D22*
%TO.P,C11,2*%
%TO.N,GND*%
X101600000Y-88740000D03*
%TD*%
D20*
%TO.P,CHASSIS,1*%
%TO.N,GNDREF*%
X156500000Y-106000000D03*
D19*
X156500000Y-106000000D03*
%TD*%
D23*
%TO.N,GNDREF*%
X130750000Y-67250000D03*
X122750000Y-67250000D03*
%TO.N,SMB_ALERT*%
X153500000Y-77250000D03*
X134000000Y-74000000D03*
%TO.N,+3V3*%
X137750000Y-69250500D03*
X128250000Y-69250000D03*
%TO.N,Net-(U1-Pad11)*%
X148750000Y-75250000D03*
%TO.N,P_GOOD*%
X143000000Y-83250000D03*
X151796650Y-84446650D03*
%TO.N,Net-(R7-Pad1)*%
X167250000Y-91750000D03*
%TD*%
D24*
%TO.N,GNDREF*%
X122750000Y-67250000D02*
X130750000Y-67250000D01*
%TO.N,+12V*%
X160466450Y-90466450D02*
X163102650Y-90466450D01*
X159300000Y-80050000D02*
X159300000Y-89300000D01*
X159300000Y-89300000D02*
X160466450Y-90466450D01*
X160516750Y-78833250D02*
X159300000Y-80050000D01*
X164093250Y-78833250D02*
X160516750Y-78833250D01*
%TO.N,SMB_ALERT*%
X153000000Y-76750000D02*
X136750000Y-76750000D01*
X153500000Y-77250000D02*
X153000000Y-76750000D01*
X136750000Y-76750000D02*
X134000000Y-74000000D01*
%TO.N,+3V3*%
X137750000Y-73750000D02*
X149250000Y-73750000D01*
X149580000Y-73420000D02*
X149580000Y-72000000D01*
X149250000Y-73750000D02*
X149580000Y-73420000D01*
X137749500Y-69250000D02*
X137750000Y-69250500D01*
X128250000Y-69250000D02*
X137749500Y-69250000D01*
X137750000Y-69250500D02*
X137750000Y-73750000D01*
%TO.N,Net-(U1-Pad11)*%
X148750000Y-75250000D02*
X165500000Y-75250000D01*
X165500000Y-75250000D02*
X167250000Y-77000000D01*
X167250000Y-84287100D02*
X165083850Y-86453250D01*
X167250000Y-77000000D02*
X167250000Y-84287100D01*
%TO.N,P_GOOD*%
X147196650Y-84446650D02*
X146000000Y-83250000D01*
X151796650Y-84446650D02*
X147196650Y-84446650D01*
X146000000Y-83250000D02*
X143000000Y-83250000D01*
%TO.N,Net-(R7-Pad1)*%
X166709850Y-88459850D02*
X167250000Y-89000000D01*
X167250000Y-89000000D02*
X167250000Y-91750000D01*
X165083850Y-88459850D02*
X166709850Y-88459850D01*
%TD*%
M02*
