%TF.GenerationSoftware,KiCad,Pcbnew,(6.0.10-0)*%
%TF.CreationDate,2023-02-08T11:03:38+05:30*%
%TF.ProjectId,dbe_dcdc,6462655f-6463-4646-932e-6b696361645f,rev?*%
%TF.SameCoordinates,Original*%
%TF.FileFunction,Drillmap*%
%TF.FilePolarity,Positive*%
%FSLAX45Y45*%
G04 Gerber Fmt 4.5, Leading zero omitted, Abs format (unit mm)*
G04 Created by KiCad (PCBNEW (6.0.10-0)) date 2023-02-08 11:03:38*
%MOMM*%
%LPD*%
G01*
G04 APERTURE LIST*
%ADD10C,0.100000*%
%ADD11C,0.200000*%
%ADD12C,0.040000*%
%ADD13C,0.088900*%
%ADD14C,0.120000*%
%ADD15C,0.165100*%
%ADD16C,0.215900*%
%ADD17C,0.220000*%
%ADD18C,0.250000*%
%ADD19C,0.320000*%
G04 APERTURE END LIST*
D10*
X2000000Y-6050000D02*
X17000000Y-6050000D01*
X17000000Y-6050000D02*
X17000000Y-11050000D01*
X17000000Y-11050000D02*
X2000000Y-11050000D01*
X2000000Y-11050000D02*
X2000000Y-6050000D01*
D11*
D12*
X12255000Y-6705000D02*
X12295000Y-6745000D01*
X12295000Y-6705000D02*
X12255000Y-6745000D01*
X12805000Y-6905000D02*
X12845000Y-6945000D01*
X12845000Y-6905000D02*
X12805000Y-6945000D01*
X13055000Y-6705000D02*
X13095000Y-6745000D01*
X13095000Y-6705000D02*
X13055000Y-6745000D01*
X13380000Y-7380000D02*
X13420000Y-7420000D01*
X13420000Y-7380000D02*
X13380000Y-7420000D01*
X13755000Y-6905050D02*
X13795000Y-6945050D01*
X13795000Y-6905050D02*
X13755000Y-6945050D01*
X14280000Y-8305000D02*
X14320000Y-8345000D01*
X14320000Y-8305000D02*
X14280000Y-8345000D01*
X14855000Y-7505000D02*
X14895000Y-7545000D01*
X14895000Y-7505000D02*
X14855000Y-7545000D01*
X15159665Y-8424665D02*
X15199665Y-8464665D01*
X15199665Y-8424665D02*
X15159665Y-8464665D01*
X15330000Y-7705000D02*
X15370000Y-7745000D01*
X15370000Y-7705000D02*
X15330000Y-7745000D01*
X16705000Y-9155000D02*
X16745000Y-9195000D01*
X16745000Y-9155000D02*
X16705000Y-9195000D01*
D13*
X16354715Y-8244005D02*
G75*
G03*
X16354715Y-8244005I-44450J0D01*
G01*
X16354715Y-8444665D02*
G75*
G03*
X16354715Y-8444665I-44450J0D01*
G01*
X16354715Y-8645325D02*
G75*
G03*
X16354715Y-8645325I-44450J0D01*
G01*
X16354715Y-8845985D02*
G75*
G03*
X16354715Y-8845985I-44450J0D01*
G01*
X16354715Y-9046645D02*
G75*
G03*
X16354715Y-9046645I-44450J0D01*
G01*
X16552835Y-8244005D02*
G75*
G03*
X16552835Y-8244005I-44450J0D01*
G01*
X16552835Y-8444665D02*
G75*
G03*
X16552835Y-8444665I-44450J0D01*
G01*
X16552835Y-8645325D02*
G75*
G03*
X16552835Y-8645325I-44450J0D01*
G01*
X16552835Y-8845985D02*
G75*
G03*
X16552835Y-8845985I-44450J0D01*
G01*
X16552835Y-9046645D02*
G75*
G03*
X16552835Y-9046645I-44450J0D01*
G01*
D10*
X11661000Y-10237000D02*
X11661000Y-10337000D01*
X11611000Y-10287000D02*
X11711000Y-10287000D01*
X11915000Y-10237000D02*
X11915000Y-10337000D01*
X11865000Y-10287000D02*
X11965000Y-10287000D01*
X14450000Y-6896000D02*
X14450000Y-6996000D01*
X14400000Y-6946000D02*
X14500000Y-6946000D01*
X14450000Y-7150000D02*
X14450000Y-7250000D01*
X14400000Y-7200000D02*
X14500000Y-7200000D01*
X14704000Y-6896000D02*
X14704000Y-6996000D01*
X14654000Y-6946000D02*
X14754000Y-6946000D01*
X14704000Y-7150000D02*
X14704000Y-7250000D01*
X14654000Y-7200000D02*
X14754000Y-7200000D01*
X14958000Y-6896000D02*
X14958000Y-6996000D01*
X14908000Y-6946000D02*
X15008000Y-6946000D01*
X14958000Y-7150000D02*
X14958000Y-7250000D01*
X14908000Y-7200000D02*
X15008000Y-7200000D01*
X15212000Y-6896000D02*
X15212000Y-6996000D01*
X15162000Y-6946000D02*
X15262000Y-6946000D01*
X15212000Y-7150000D02*
X15212000Y-7250000D01*
X15162000Y-7200000D02*
X15262000Y-7200000D01*
D14*
X10202427Y-8416427D02*
X10202427Y-8331573D01*
X10117573Y-8331573D01*
X10117573Y-8416427D01*
X10202427Y-8416427D01*
X10202427Y-8916427D02*
X10202427Y-8831573D01*
X10117573Y-8831573D01*
X10117573Y-8916427D01*
X10202427Y-8916427D01*
D15*
X11329325Y-7965875D02*
X11411875Y-7883325D01*
X11329325Y-7800775D01*
X11246775Y-7883325D01*
X11329325Y-7965875D01*
X11329325Y-8727875D02*
X11411875Y-8645325D01*
X11329325Y-8562775D01*
X11246775Y-8645325D01*
X11329325Y-8727875D01*
X11329325Y-9489875D02*
X11411875Y-9407325D01*
X11329325Y-9324775D01*
X11246775Y-9407325D01*
X11329325Y-9489875D01*
D16*
X16301375Y-7775375D02*
X16517275Y-7991275D01*
X16517275Y-7775375D02*
X16301375Y-7991275D01*
X16517275Y-7883325D02*
G75*
G03*
X16517275Y-7883325I-107950J0D01*
G01*
X16301375Y-9299375D02*
X16517275Y-9515275D01*
X16517275Y-9299375D02*
X16301375Y-9515275D01*
X16517275Y-9407325D02*
G75*
G03*
X16517275Y-9407325I-107950J0D01*
G01*
D17*
X2565000Y-7790000D02*
X2785000Y-8010000D01*
X2785000Y-7790000D02*
X2565000Y-8010000D01*
X2675000Y-7790000D02*
X2675000Y-8010000D01*
X2565000Y-7900000D02*
X2785000Y-7900000D01*
X2565000Y-9290000D02*
X2785000Y-9510000D01*
X2785000Y-9290000D02*
X2565000Y-9510000D01*
X2675000Y-9290000D02*
X2675000Y-9510000D01*
X2565000Y-9400000D02*
X2785000Y-9400000D01*
X12590000Y-10190000D02*
X12810000Y-10410000D01*
X12810000Y-10190000D02*
X12590000Y-10410000D01*
X12700000Y-10190000D02*
X12700000Y-10410000D01*
X12590000Y-10300000D02*
X12810000Y-10300000D01*
X14365000Y-10190000D02*
X14585000Y-10410000D01*
X14585000Y-10190000D02*
X14365000Y-10410000D01*
X14475000Y-10190000D02*
X14475000Y-10410000D01*
X14365000Y-10300000D02*
X14585000Y-10300000D01*
D18*
X16375000Y-6975000D02*
X16625000Y-7225000D01*
X16625000Y-6975000D02*
X16375000Y-7225000D01*
X16588389Y-7188389D02*
X16588389Y-7011611D01*
X16411611Y-7011611D01*
X16411611Y-7188389D01*
X16588389Y-7188389D01*
X16375000Y-10075000D02*
X16625000Y-10325000D01*
X16625000Y-10075000D02*
X16375000Y-10325000D01*
X16588389Y-10288389D02*
X16588389Y-10111611D01*
X16411611Y-10111611D01*
X16411611Y-10288389D01*
X16588389Y-10288389D01*
D19*
X5340000Y-6340000D02*
X5660000Y-6660000D01*
X5660000Y-6340000D02*
X5340000Y-6660000D01*
X5500000Y-6660000D02*
X5660000Y-6500000D01*
X5500000Y-6340000D01*
X5340000Y-6500000D01*
X5500000Y-6660000D01*
X5340000Y-10440000D02*
X5660000Y-10760000D01*
X5660000Y-10440000D02*
X5340000Y-10760000D01*
X5500000Y-10760000D02*
X5660000Y-10600000D01*
X5500000Y-10440000D01*
X5340000Y-10600000D01*
X5500000Y-10760000D01*
X15490000Y-6340000D02*
X15810000Y-6660000D01*
X15810000Y-6340000D02*
X15490000Y-6660000D01*
X15650000Y-6660000D02*
X15810000Y-6500000D01*
X15650000Y-6340000D01*
X15490000Y-6500000D01*
X15650000Y-6660000D01*
X15490000Y-10440000D02*
X15810000Y-10760000D01*
X15810000Y-10440000D02*
X15490000Y-10760000D01*
X15650000Y-10760000D02*
X15810000Y-10600000D01*
X15650000Y-10440000D01*
X15490000Y-10600000D01*
X15650000Y-10760000D01*
D11*
X2252619Y-11365476D02*
X2252619Y-11165476D01*
X2300238Y-11165476D01*
X2328810Y-11175000D01*
X2347857Y-11194048D01*
X2357381Y-11213095D01*
X2366905Y-11251190D01*
X2366905Y-11279762D01*
X2357381Y-11317857D01*
X2347857Y-11336905D01*
X2328810Y-11355952D01*
X2300238Y-11365476D01*
X2252619Y-11365476D01*
X2452619Y-11365476D02*
X2452619Y-11232143D01*
X2452619Y-11270238D02*
X2462143Y-11251190D01*
X2471667Y-11241667D01*
X2490714Y-11232143D01*
X2509762Y-11232143D01*
X2576429Y-11365476D02*
X2576429Y-11232143D01*
X2576429Y-11165476D02*
X2566905Y-11175000D01*
X2576429Y-11184524D01*
X2585952Y-11175000D01*
X2576429Y-11165476D01*
X2576429Y-11184524D01*
X2700238Y-11365476D02*
X2681190Y-11355952D01*
X2671667Y-11336905D01*
X2671667Y-11165476D01*
X2805000Y-11365476D02*
X2785952Y-11355952D01*
X2776429Y-11336905D01*
X2776429Y-11165476D01*
X3033571Y-11365476D02*
X3033571Y-11165476D01*
X3100238Y-11308333D01*
X3166905Y-11165476D01*
X3166905Y-11365476D01*
X3347857Y-11365476D02*
X3347857Y-11260714D01*
X3338333Y-11241667D01*
X3319286Y-11232143D01*
X3281190Y-11232143D01*
X3262143Y-11241667D01*
X3347857Y-11355952D02*
X3328809Y-11365476D01*
X3281190Y-11365476D01*
X3262143Y-11355952D01*
X3252619Y-11336905D01*
X3252619Y-11317857D01*
X3262143Y-11298809D01*
X3281190Y-11289286D01*
X3328809Y-11289286D01*
X3347857Y-11279762D01*
X3443095Y-11232143D02*
X3443095Y-11432143D01*
X3443095Y-11241667D02*
X3462143Y-11232143D01*
X3500238Y-11232143D01*
X3519286Y-11241667D01*
X3528809Y-11251190D01*
X3538333Y-11270238D01*
X3538333Y-11327381D01*
X3528809Y-11346428D01*
X3519286Y-11355952D01*
X3500238Y-11365476D01*
X3462143Y-11365476D01*
X3443095Y-11355952D01*
X3624048Y-11346428D02*
X3633571Y-11355952D01*
X3624048Y-11365476D01*
X3614524Y-11355952D01*
X3624048Y-11346428D01*
X3624048Y-11365476D01*
X3624048Y-11241667D02*
X3633571Y-11251190D01*
X3624048Y-11260714D01*
X3614524Y-11251190D01*
X3624048Y-11241667D01*
X3624048Y-11260714D01*
D12*
X1955000Y-11675000D02*
X1995000Y-11715000D01*
X1995000Y-11675000D02*
X1955000Y-11715000D01*
D11*
X2290714Y-11585476D02*
X2309762Y-11585476D01*
X2328810Y-11595000D01*
X2338333Y-11604524D01*
X2347857Y-11623571D01*
X2357381Y-11661667D01*
X2357381Y-11709286D01*
X2347857Y-11747381D01*
X2338333Y-11766428D01*
X2328810Y-11775952D01*
X2309762Y-11785476D01*
X2290714Y-11785476D01*
X2271667Y-11775952D01*
X2262143Y-11766428D01*
X2252619Y-11747381D01*
X2243095Y-11709286D01*
X2243095Y-11661667D01*
X2252619Y-11623571D01*
X2262143Y-11604524D01*
X2271667Y-11595000D01*
X2290714Y-11585476D01*
X2443095Y-11766428D02*
X2452619Y-11775952D01*
X2443095Y-11785476D01*
X2433571Y-11775952D01*
X2443095Y-11766428D01*
X2443095Y-11785476D01*
X2624048Y-11652143D02*
X2624048Y-11785476D01*
X2576429Y-11575952D02*
X2528810Y-11718809D01*
X2652619Y-11718809D01*
X2766905Y-11585476D02*
X2785952Y-11585476D01*
X2805000Y-11595000D01*
X2814524Y-11604524D01*
X2824048Y-11623571D01*
X2833571Y-11661667D01*
X2833571Y-11709286D01*
X2824048Y-11747381D01*
X2814524Y-11766428D01*
X2805000Y-11775952D01*
X2785952Y-11785476D01*
X2766905Y-11785476D01*
X2747857Y-11775952D01*
X2738333Y-11766428D01*
X2728810Y-11747381D01*
X2719286Y-11709286D01*
X2719286Y-11661667D01*
X2728810Y-11623571D01*
X2738333Y-11604524D01*
X2747857Y-11595000D01*
X2766905Y-11585476D01*
X2957381Y-11585476D02*
X2976428Y-11585476D01*
X2995476Y-11595000D01*
X3005000Y-11604524D01*
X3014524Y-11623571D01*
X3024048Y-11661667D01*
X3024048Y-11709286D01*
X3014524Y-11747381D01*
X3005000Y-11766428D01*
X2995476Y-11775952D01*
X2976428Y-11785476D01*
X2957381Y-11785476D01*
X2938333Y-11775952D01*
X2928809Y-11766428D01*
X2919286Y-11747381D01*
X2909762Y-11709286D01*
X2909762Y-11661667D01*
X2919286Y-11623571D01*
X2928809Y-11604524D01*
X2938333Y-11595000D01*
X2957381Y-11585476D01*
X3109762Y-11785476D02*
X3109762Y-11652143D01*
X3109762Y-11671190D02*
X3119286Y-11661667D01*
X3138333Y-11652143D01*
X3166905Y-11652143D01*
X3185952Y-11661667D01*
X3195476Y-11680714D01*
X3195476Y-11785476D01*
X3195476Y-11680714D02*
X3205000Y-11661667D01*
X3224048Y-11652143D01*
X3252619Y-11652143D01*
X3271667Y-11661667D01*
X3281190Y-11680714D01*
X3281190Y-11785476D01*
X3376428Y-11785476D02*
X3376428Y-11652143D01*
X3376428Y-11671190D02*
X3385952Y-11661667D01*
X3405000Y-11652143D01*
X3433571Y-11652143D01*
X3452619Y-11661667D01*
X3462143Y-11680714D01*
X3462143Y-11785476D01*
X3462143Y-11680714D02*
X3471667Y-11661667D01*
X3490714Y-11652143D01*
X3519286Y-11652143D01*
X3538333Y-11661667D01*
X3547857Y-11680714D01*
X3547857Y-11785476D01*
X3938333Y-11575952D02*
X3766905Y-11833095D01*
X4195476Y-11585476D02*
X4214524Y-11585476D01*
X4233571Y-11595000D01*
X4243095Y-11604524D01*
X4252619Y-11623571D01*
X4262143Y-11661667D01*
X4262143Y-11709286D01*
X4252619Y-11747381D01*
X4243095Y-11766428D01*
X4233571Y-11775952D01*
X4214524Y-11785476D01*
X4195476Y-11785476D01*
X4176428Y-11775952D01*
X4166905Y-11766428D01*
X4157381Y-11747381D01*
X4147857Y-11709286D01*
X4147857Y-11661667D01*
X4157381Y-11623571D01*
X4166905Y-11604524D01*
X4176428Y-11595000D01*
X4195476Y-11585476D01*
X4347857Y-11766428D02*
X4357381Y-11775952D01*
X4347857Y-11785476D01*
X4338333Y-11775952D01*
X4347857Y-11766428D01*
X4347857Y-11785476D01*
X4481190Y-11585476D02*
X4500238Y-11585476D01*
X4519286Y-11595000D01*
X4528810Y-11604524D01*
X4538333Y-11623571D01*
X4547857Y-11661667D01*
X4547857Y-11709286D01*
X4538333Y-11747381D01*
X4528810Y-11766428D01*
X4519286Y-11775952D01*
X4500238Y-11785476D01*
X4481190Y-11785476D01*
X4462143Y-11775952D01*
X4452619Y-11766428D01*
X4443095Y-11747381D01*
X4433571Y-11709286D01*
X4433571Y-11661667D01*
X4443095Y-11623571D01*
X4452619Y-11604524D01*
X4462143Y-11595000D01*
X4481190Y-11585476D01*
X4738333Y-11785476D02*
X4624048Y-11785476D01*
X4681190Y-11785476D02*
X4681190Y-11585476D01*
X4662143Y-11614048D01*
X4643095Y-11633095D01*
X4624048Y-11642619D01*
X4919286Y-11585476D02*
X4824048Y-11585476D01*
X4814524Y-11680714D01*
X4824048Y-11671190D01*
X4843095Y-11661667D01*
X4890714Y-11661667D01*
X4909762Y-11671190D01*
X4919286Y-11680714D01*
X4928810Y-11699762D01*
X4928810Y-11747381D01*
X4919286Y-11766428D01*
X4909762Y-11775952D01*
X4890714Y-11785476D01*
X4843095Y-11785476D01*
X4824048Y-11775952D01*
X4814524Y-11766428D01*
X4995476Y-11585476D02*
X5128810Y-11585476D01*
X5043095Y-11785476D01*
X5195476Y-11585476D02*
X5195476Y-11623571D01*
X5271667Y-11585476D02*
X5271667Y-11623571D01*
X5566905Y-11861667D02*
X5557381Y-11852143D01*
X5538333Y-11823571D01*
X5528810Y-11804524D01*
X5519286Y-11775952D01*
X5509762Y-11728333D01*
X5509762Y-11690238D01*
X5519286Y-11642619D01*
X5528810Y-11614048D01*
X5538333Y-11595000D01*
X5557381Y-11566428D01*
X5566905Y-11556905D01*
X5747857Y-11785476D02*
X5633571Y-11785476D01*
X5690714Y-11785476D02*
X5690714Y-11585476D01*
X5671667Y-11614048D01*
X5652619Y-11633095D01*
X5633571Y-11642619D01*
X5871667Y-11585476D02*
X5890714Y-11585476D01*
X5909762Y-11595000D01*
X5919286Y-11604524D01*
X5928809Y-11623571D01*
X5938333Y-11661667D01*
X5938333Y-11709286D01*
X5928809Y-11747381D01*
X5919286Y-11766428D01*
X5909762Y-11775952D01*
X5890714Y-11785476D01*
X5871667Y-11785476D01*
X5852619Y-11775952D01*
X5843095Y-11766428D01*
X5833571Y-11747381D01*
X5824048Y-11709286D01*
X5824048Y-11661667D01*
X5833571Y-11623571D01*
X5843095Y-11604524D01*
X5852619Y-11595000D01*
X5871667Y-11585476D01*
X6176428Y-11785476D02*
X6176428Y-11585476D01*
X6262143Y-11785476D02*
X6262143Y-11680714D01*
X6252619Y-11661667D01*
X6233571Y-11652143D01*
X6205000Y-11652143D01*
X6185952Y-11661667D01*
X6176428Y-11671190D01*
X6385952Y-11785476D02*
X6366905Y-11775952D01*
X6357381Y-11766428D01*
X6347857Y-11747381D01*
X6347857Y-11690238D01*
X6357381Y-11671190D01*
X6366905Y-11661667D01*
X6385952Y-11652143D01*
X6414524Y-11652143D01*
X6433571Y-11661667D01*
X6443095Y-11671190D01*
X6452619Y-11690238D01*
X6452619Y-11747381D01*
X6443095Y-11766428D01*
X6433571Y-11775952D01*
X6414524Y-11785476D01*
X6385952Y-11785476D01*
X6566905Y-11785476D02*
X6547857Y-11775952D01*
X6538333Y-11756905D01*
X6538333Y-11585476D01*
X6719286Y-11775952D02*
X6700238Y-11785476D01*
X6662143Y-11785476D01*
X6643095Y-11775952D01*
X6633571Y-11756905D01*
X6633571Y-11680714D01*
X6643095Y-11661667D01*
X6662143Y-11652143D01*
X6700238Y-11652143D01*
X6719286Y-11661667D01*
X6728809Y-11680714D01*
X6728809Y-11699762D01*
X6633571Y-11718809D01*
X6805000Y-11775952D02*
X6824048Y-11785476D01*
X6862143Y-11785476D01*
X6881190Y-11775952D01*
X6890714Y-11756905D01*
X6890714Y-11747381D01*
X6881190Y-11728333D01*
X6862143Y-11718809D01*
X6833571Y-11718809D01*
X6814524Y-11709286D01*
X6805000Y-11690238D01*
X6805000Y-11680714D01*
X6814524Y-11661667D01*
X6833571Y-11652143D01*
X6862143Y-11652143D01*
X6881190Y-11661667D01*
X6957381Y-11861667D02*
X6966905Y-11852143D01*
X6985952Y-11823571D01*
X6995476Y-11804524D01*
X7005000Y-11775952D01*
X7014524Y-11728333D01*
X7014524Y-11690238D01*
X7005000Y-11642619D01*
X6995476Y-11614048D01*
X6985952Y-11595000D01*
X6966905Y-11566428D01*
X6957381Y-11556905D01*
D13*
X1995000Y-11959000D02*
G75*
G03*
X1995000Y-11959000I-44450J0D01*
G01*
D11*
X2290714Y-11849476D02*
X2309762Y-11849476D01*
X2328810Y-11859000D01*
X2338333Y-11868524D01*
X2347857Y-11887571D01*
X2357381Y-11925667D01*
X2357381Y-11973286D01*
X2347857Y-12011381D01*
X2338333Y-12030428D01*
X2328810Y-12039952D01*
X2309762Y-12049476D01*
X2290714Y-12049476D01*
X2271667Y-12039952D01*
X2262143Y-12030428D01*
X2252619Y-12011381D01*
X2243095Y-11973286D01*
X2243095Y-11925667D01*
X2252619Y-11887571D01*
X2262143Y-11868524D01*
X2271667Y-11859000D01*
X2290714Y-11849476D01*
X2443095Y-12030428D02*
X2452619Y-12039952D01*
X2443095Y-12049476D01*
X2433571Y-12039952D01*
X2443095Y-12030428D01*
X2443095Y-12049476D01*
X2566905Y-11935190D02*
X2547857Y-11925667D01*
X2538333Y-11916143D01*
X2528810Y-11897095D01*
X2528810Y-11887571D01*
X2538333Y-11868524D01*
X2547857Y-11859000D01*
X2566905Y-11849476D01*
X2605000Y-11849476D01*
X2624048Y-11859000D01*
X2633571Y-11868524D01*
X2643095Y-11887571D01*
X2643095Y-11897095D01*
X2633571Y-11916143D01*
X2624048Y-11925667D01*
X2605000Y-11935190D01*
X2566905Y-11935190D01*
X2547857Y-11944714D01*
X2538333Y-11954238D01*
X2528810Y-11973286D01*
X2528810Y-12011381D01*
X2538333Y-12030428D01*
X2547857Y-12039952D01*
X2566905Y-12049476D01*
X2605000Y-12049476D01*
X2624048Y-12039952D01*
X2633571Y-12030428D01*
X2643095Y-12011381D01*
X2643095Y-11973286D01*
X2633571Y-11954238D01*
X2624048Y-11944714D01*
X2605000Y-11935190D01*
X2757381Y-11935190D02*
X2738333Y-11925667D01*
X2728810Y-11916143D01*
X2719286Y-11897095D01*
X2719286Y-11887571D01*
X2728810Y-11868524D01*
X2738333Y-11859000D01*
X2757381Y-11849476D01*
X2795476Y-11849476D01*
X2814524Y-11859000D01*
X2824048Y-11868524D01*
X2833571Y-11887571D01*
X2833571Y-11897095D01*
X2824048Y-11916143D01*
X2814524Y-11925667D01*
X2795476Y-11935190D01*
X2757381Y-11935190D01*
X2738333Y-11944714D01*
X2728810Y-11954238D01*
X2719286Y-11973286D01*
X2719286Y-12011381D01*
X2728810Y-12030428D01*
X2738333Y-12039952D01*
X2757381Y-12049476D01*
X2795476Y-12049476D01*
X2814524Y-12039952D01*
X2824048Y-12030428D01*
X2833571Y-12011381D01*
X2833571Y-11973286D01*
X2824048Y-11954238D01*
X2814524Y-11944714D01*
X2795476Y-11935190D01*
X2928809Y-12049476D02*
X2966905Y-12049476D01*
X2985952Y-12039952D01*
X2995476Y-12030428D01*
X3014524Y-12001857D01*
X3024048Y-11963762D01*
X3024048Y-11887571D01*
X3014524Y-11868524D01*
X3005000Y-11859000D01*
X2985952Y-11849476D01*
X2947857Y-11849476D01*
X2928809Y-11859000D01*
X2919286Y-11868524D01*
X2909762Y-11887571D01*
X2909762Y-11935190D01*
X2919286Y-11954238D01*
X2928809Y-11963762D01*
X2947857Y-11973286D01*
X2985952Y-11973286D01*
X3005000Y-11963762D01*
X3014524Y-11954238D01*
X3024048Y-11935190D01*
X3109762Y-12049476D02*
X3109762Y-11916143D01*
X3109762Y-11935190D02*
X3119286Y-11925667D01*
X3138333Y-11916143D01*
X3166905Y-11916143D01*
X3185952Y-11925667D01*
X3195476Y-11944714D01*
X3195476Y-12049476D01*
X3195476Y-11944714D02*
X3205000Y-11925667D01*
X3224048Y-11916143D01*
X3252619Y-11916143D01*
X3271667Y-11925667D01*
X3281190Y-11944714D01*
X3281190Y-12049476D01*
X3376428Y-12049476D02*
X3376428Y-11916143D01*
X3376428Y-11935190D02*
X3385952Y-11925667D01*
X3405000Y-11916143D01*
X3433571Y-11916143D01*
X3452619Y-11925667D01*
X3462143Y-11944714D01*
X3462143Y-12049476D01*
X3462143Y-11944714D02*
X3471667Y-11925667D01*
X3490714Y-11916143D01*
X3519286Y-11916143D01*
X3538333Y-11925667D01*
X3547857Y-11944714D01*
X3547857Y-12049476D01*
X3938333Y-11839952D02*
X3766905Y-12097095D01*
X4195476Y-11849476D02*
X4214524Y-11849476D01*
X4233571Y-11859000D01*
X4243095Y-11868524D01*
X4252619Y-11887571D01*
X4262143Y-11925667D01*
X4262143Y-11973286D01*
X4252619Y-12011381D01*
X4243095Y-12030428D01*
X4233571Y-12039952D01*
X4214524Y-12049476D01*
X4195476Y-12049476D01*
X4176428Y-12039952D01*
X4166905Y-12030428D01*
X4157381Y-12011381D01*
X4147857Y-11973286D01*
X4147857Y-11925667D01*
X4157381Y-11887571D01*
X4166905Y-11868524D01*
X4176428Y-11859000D01*
X4195476Y-11849476D01*
X4347857Y-12030428D02*
X4357381Y-12039952D01*
X4347857Y-12049476D01*
X4338333Y-12039952D01*
X4347857Y-12030428D01*
X4347857Y-12049476D01*
X4481190Y-11849476D02*
X4500238Y-11849476D01*
X4519286Y-11859000D01*
X4528810Y-11868524D01*
X4538333Y-11887571D01*
X4547857Y-11925667D01*
X4547857Y-11973286D01*
X4538333Y-12011381D01*
X4528810Y-12030428D01*
X4519286Y-12039952D01*
X4500238Y-12049476D01*
X4481190Y-12049476D01*
X4462143Y-12039952D01*
X4452619Y-12030428D01*
X4443095Y-12011381D01*
X4433571Y-11973286D01*
X4433571Y-11925667D01*
X4443095Y-11887571D01*
X4452619Y-11868524D01*
X4462143Y-11859000D01*
X4481190Y-11849476D01*
X4614524Y-11849476D02*
X4738333Y-11849476D01*
X4671667Y-11925667D01*
X4700238Y-11925667D01*
X4719286Y-11935190D01*
X4728810Y-11944714D01*
X4738333Y-11963762D01*
X4738333Y-12011381D01*
X4728810Y-12030428D01*
X4719286Y-12039952D01*
X4700238Y-12049476D01*
X4643095Y-12049476D01*
X4624048Y-12039952D01*
X4614524Y-12030428D01*
X4919286Y-11849476D02*
X4824048Y-11849476D01*
X4814524Y-11944714D01*
X4824048Y-11935190D01*
X4843095Y-11925667D01*
X4890714Y-11925667D01*
X4909762Y-11935190D01*
X4919286Y-11944714D01*
X4928810Y-11963762D01*
X4928810Y-12011381D01*
X4919286Y-12030428D01*
X4909762Y-12039952D01*
X4890714Y-12049476D01*
X4843095Y-12049476D01*
X4824048Y-12039952D01*
X4814524Y-12030428D01*
X5052619Y-11849476D02*
X5071667Y-11849476D01*
X5090714Y-11859000D01*
X5100238Y-11868524D01*
X5109762Y-11887571D01*
X5119286Y-11925667D01*
X5119286Y-11973286D01*
X5109762Y-12011381D01*
X5100238Y-12030428D01*
X5090714Y-12039952D01*
X5071667Y-12049476D01*
X5052619Y-12049476D01*
X5033571Y-12039952D01*
X5024048Y-12030428D01*
X5014524Y-12011381D01*
X5005000Y-11973286D01*
X5005000Y-11925667D01*
X5014524Y-11887571D01*
X5024048Y-11868524D01*
X5033571Y-11859000D01*
X5052619Y-11849476D01*
X5195476Y-11849476D02*
X5195476Y-11887571D01*
X5271667Y-11849476D02*
X5271667Y-11887571D01*
X5566905Y-12125667D02*
X5557381Y-12116143D01*
X5538333Y-12087571D01*
X5528810Y-12068524D01*
X5519286Y-12039952D01*
X5509762Y-11992333D01*
X5509762Y-11954238D01*
X5519286Y-11906619D01*
X5528810Y-11878048D01*
X5538333Y-11859000D01*
X5557381Y-11830428D01*
X5566905Y-11820905D01*
X5747857Y-12049476D02*
X5633571Y-12049476D01*
X5690714Y-12049476D02*
X5690714Y-11849476D01*
X5671667Y-11878048D01*
X5652619Y-11897095D01*
X5633571Y-11906619D01*
X5871667Y-11849476D02*
X5890714Y-11849476D01*
X5909762Y-11859000D01*
X5919286Y-11868524D01*
X5928809Y-11887571D01*
X5938333Y-11925667D01*
X5938333Y-11973286D01*
X5928809Y-12011381D01*
X5919286Y-12030428D01*
X5909762Y-12039952D01*
X5890714Y-12049476D01*
X5871667Y-12049476D01*
X5852619Y-12039952D01*
X5843095Y-12030428D01*
X5833571Y-12011381D01*
X5824048Y-11973286D01*
X5824048Y-11925667D01*
X5833571Y-11887571D01*
X5843095Y-11868524D01*
X5852619Y-11859000D01*
X5871667Y-11849476D01*
X6176428Y-12049476D02*
X6176428Y-11849476D01*
X6262143Y-12049476D02*
X6262143Y-11944714D01*
X6252619Y-11925667D01*
X6233571Y-11916143D01*
X6205000Y-11916143D01*
X6185952Y-11925667D01*
X6176428Y-11935190D01*
X6385952Y-12049476D02*
X6366905Y-12039952D01*
X6357381Y-12030428D01*
X6347857Y-12011381D01*
X6347857Y-11954238D01*
X6357381Y-11935190D01*
X6366905Y-11925667D01*
X6385952Y-11916143D01*
X6414524Y-11916143D01*
X6433571Y-11925667D01*
X6443095Y-11935190D01*
X6452619Y-11954238D01*
X6452619Y-12011381D01*
X6443095Y-12030428D01*
X6433571Y-12039952D01*
X6414524Y-12049476D01*
X6385952Y-12049476D01*
X6566905Y-12049476D02*
X6547857Y-12039952D01*
X6538333Y-12020905D01*
X6538333Y-11849476D01*
X6719286Y-12039952D02*
X6700238Y-12049476D01*
X6662143Y-12049476D01*
X6643095Y-12039952D01*
X6633571Y-12020905D01*
X6633571Y-11944714D01*
X6643095Y-11925667D01*
X6662143Y-11916143D01*
X6700238Y-11916143D01*
X6719286Y-11925667D01*
X6728809Y-11944714D01*
X6728809Y-11963762D01*
X6633571Y-11982809D01*
X6805000Y-12039952D02*
X6824048Y-12049476D01*
X6862143Y-12049476D01*
X6881190Y-12039952D01*
X6890714Y-12020905D01*
X6890714Y-12011381D01*
X6881190Y-11992333D01*
X6862143Y-11982809D01*
X6833571Y-11982809D01*
X6814524Y-11973286D01*
X6805000Y-11954238D01*
X6805000Y-11944714D01*
X6814524Y-11925667D01*
X6833571Y-11916143D01*
X6862143Y-11916143D01*
X6881190Y-11925667D01*
X6957381Y-12125667D02*
X6966905Y-12116143D01*
X6985952Y-12087571D01*
X6995476Y-12068524D01*
X7005000Y-12039952D01*
X7014524Y-11992333D01*
X7014524Y-11954238D01*
X7005000Y-11906619D01*
X6995476Y-11878048D01*
X6985952Y-11859000D01*
X6966905Y-11830428D01*
X6957381Y-11820905D01*
D10*
X1945000Y-12173000D02*
X1945000Y-12273000D01*
X1895000Y-12223000D02*
X1995000Y-12223000D01*
D11*
X2357381Y-12313476D02*
X2243095Y-12313476D01*
X2300238Y-12313476D02*
X2300238Y-12113476D01*
X2281190Y-12142048D01*
X2262143Y-12161095D01*
X2243095Y-12170619D01*
X2443095Y-12294428D02*
X2452619Y-12303952D01*
X2443095Y-12313476D01*
X2433571Y-12303952D01*
X2443095Y-12294428D01*
X2443095Y-12313476D01*
X2576429Y-12113476D02*
X2595476Y-12113476D01*
X2614524Y-12123000D01*
X2624048Y-12132524D01*
X2633571Y-12151571D01*
X2643095Y-12189667D01*
X2643095Y-12237286D01*
X2633571Y-12275381D01*
X2624048Y-12294428D01*
X2614524Y-12303952D01*
X2595476Y-12313476D01*
X2576429Y-12313476D01*
X2557381Y-12303952D01*
X2547857Y-12294428D01*
X2538333Y-12275381D01*
X2528810Y-12237286D01*
X2528810Y-12189667D01*
X2538333Y-12151571D01*
X2547857Y-12132524D01*
X2557381Y-12123000D01*
X2576429Y-12113476D01*
X2766905Y-12113476D02*
X2785952Y-12113476D01*
X2805000Y-12123000D01*
X2814524Y-12132524D01*
X2824048Y-12151571D01*
X2833571Y-12189667D01*
X2833571Y-12237286D01*
X2824048Y-12275381D01*
X2814524Y-12294428D01*
X2805000Y-12303952D01*
X2785952Y-12313476D01*
X2766905Y-12313476D01*
X2747857Y-12303952D01*
X2738333Y-12294428D01*
X2728810Y-12275381D01*
X2719286Y-12237286D01*
X2719286Y-12189667D01*
X2728810Y-12151571D01*
X2738333Y-12132524D01*
X2747857Y-12123000D01*
X2766905Y-12113476D01*
X2957381Y-12113476D02*
X2976428Y-12113476D01*
X2995476Y-12123000D01*
X3005000Y-12132524D01*
X3014524Y-12151571D01*
X3024048Y-12189667D01*
X3024048Y-12237286D01*
X3014524Y-12275381D01*
X3005000Y-12294428D01*
X2995476Y-12303952D01*
X2976428Y-12313476D01*
X2957381Y-12313476D01*
X2938333Y-12303952D01*
X2928809Y-12294428D01*
X2919286Y-12275381D01*
X2909762Y-12237286D01*
X2909762Y-12189667D01*
X2919286Y-12151571D01*
X2928809Y-12132524D01*
X2938333Y-12123000D01*
X2957381Y-12113476D01*
X3109762Y-12313476D02*
X3109762Y-12180143D01*
X3109762Y-12199190D02*
X3119286Y-12189667D01*
X3138333Y-12180143D01*
X3166905Y-12180143D01*
X3185952Y-12189667D01*
X3195476Y-12208714D01*
X3195476Y-12313476D01*
X3195476Y-12208714D02*
X3205000Y-12189667D01*
X3224048Y-12180143D01*
X3252619Y-12180143D01*
X3271667Y-12189667D01*
X3281190Y-12208714D01*
X3281190Y-12313476D01*
X3376428Y-12313476D02*
X3376428Y-12180143D01*
X3376428Y-12199190D02*
X3385952Y-12189667D01*
X3405000Y-12180143D01*
X3433571Y-12180143D01*
X3452619Y-12189667D01*
X3462143Y-12208714D01*
X3462143Y-12313476D01*
X3462143Y-12208714D02*
X3471667Y-12189667D01*
X3490714Y-12180143D01*
X3519286Y-12180143D01*
X3538333Y-12189667D01*
X3547857Y-12208714D01*
X3547857Y-12313476D01*
X3938333Y-12103952D02*
X3766905Y-12361095D01*
X4195476Y-12113476D02*
X4214524Y-12113476D01*
X4233571Y-12123000D01*
X4243095Y-12132524D01*
X4252619Y-12151571D01*
X4262143Y-12189667D01*
X4262143Y-12237286D01*
X4252619Y-12275381D01*
X4243095Y-12294428D01*
X4233571Y-12303952D01*
X4214524Y-12313476D01*
X4195476Y-12313476D01*
X4176428Y-12303952D01*
X4166905Y-12294428D01*
X4157381Y-12275381D01*
X4147857Y-12237286D01*
X4147857Y-12189667D01*
X4157381Y-12151571D01*
X4166905Y-12132524D01*
X4176428Y-12123000D01*
X4195476Y-12113476D01*
X4347857Y-12294428D02*
X4357381Y-12303952D01*
X4347857Y-12313476D01*
X4338333Y-12303952D01*
X4347857Y-12294428D01*
X4347857Y-12313476D01*
X4481190Y-12113476D02*
X4500238Y-12113476D01*
X4519286Y-12123000D01*
X4528810Y-12132524D01*
X4538333Y-12151571D01*
X4547857Y-12189667D01*
X4547857Y-12237286D01*
X4538333Y-12275381D01*
X4528810Y-12294428D01*
X4519286Y-12303952D01*
X4500238Y-12313476D01*
X4481190Y-12313476D01*
X4462143Y-12303952D01*
X4452619Y-12294428D01*
X4443095Y-12275381D01*
X4433571Y-12237286D01*
X4433571Y-12189667D01*
X4443095Y-12151571D01*
X4452619Y-12132524D01*
X4462143Y-12123000D01*
X4481190Y-12113476D01*
X4614524Y-12113476D02*
X4738333Y-12113476D01*
X4671667Y-12189667D01*
X4700238Y-12189667D01*
X4719286Y-12199190D01*
X4728810Y-12208714D01*
X4738333Y-12227762D01*
X4738333Y-12275381D01*
X4728810Y-12294428D01*
X4719286Y-12303952D01*
X4700238Y-12313476D01*
X4643095Y-12313476D01*
X4624048Y-12303952D01*
X4614524Y-12294428D01*
X4833571Y-12313476D02*
X4871667Y-12313476D01*
X4890714Y-12303952D01*
X4900238Y-12294428D01*
X4919286Y-12265857D01*
X4928810Y-12227762D01*
X4928810Y-12151571D01*
X4919286Y-12132524D01*
X4909762Y-12123000D01*
X4890714Y-12113476D01*
X4852619Y-12113476D01*
X4833571Y-12123000D01*
X4824048Y-12132524D01*
X4814524Y-12151571D01*
X4814524Y-12199190D01*
X4824048Y-12218238D01*
X4833571Y-12227762D01*
X4852619Y-12237286D01*
X4890714Y-12237286D01*
X4909762Y-12227762D01*
X4919286Y-12218238D01*
X4928810Y-12199190D01*
X5100238Y-12180143D02*
X5100238Y-12313476D01*
X5052619Y-12103952D02*
X5005000Y-12246809D01*
X5128810Y-12246809D01*
X5195476Y-12113476D02*
X5195476Y-12151571D01*
X5271667Y-12113476D02*
X5271667Y-12151571D01*
X5566905Y-12389667D02*
X5557381Y-12380143D01*
X5538333Y-12351571D01*
X5528810Y-12332524D01*
X5519286Y-12303952D01*
X5509762Y-12256333D01*
X5509762Y-12218238D01*
X5519286Y-12170619D01*
X5528810Y-12142048D01*
X5538333Y-12123000D01*
X5557381Y-12094428D01*
X5566905Y-12084905D01*
X5747857Y-12313476D02*
X5633571Y-12313476D01*
X5690714Y-12313476D02*
X5690714Y-12113476D01*
X5671667Y-12142048D01*
X5652619Y-12161095D01*
X5633571Y-12170619D01*
X5871667Y-12113476D02*
X5890714Y-12113476D01*
X5909762Y-12123000D01*
X5919286Y-12132524D01*
X5928809Y-12151571D01*
X5938333Y-12189667D01*
X5938333Y-12237286D01*
X5928809Y-12275381D01*
X5919286Y-12294428D01*
X5909762Y-12303952D01*
X5890714Y-12313476D01*
X5871667Y-12313476D01*
X5852619Y-12303952D01*
X5843095Y-12294428D01*
X5833571Y-12275381D01*
X5824048Y-12237286D01*
X5824048Y-12189667D01*
X5833571Y-12151571D01*
X5843095Y-12132524D01*
X5852619Y-12123000D01*
X5871667Y-12113476D01*
X6176428Y-12313476D02*
X6176428Y-12113476D01*
X6262143Y-12313476D02*
X6262143Y-12208714D01*
X6252619Y-12189667D01*
X6233571Y-12180143D01*
X6205000Y-12180143D01*
X6185952Y-12189667D01*
X6176428Y-12199190D01*
X6385952Y-12313476D02*
X6366905Y-12303952D01*
X6357381Y-12294428D01*
X6347857Y-12275381D01*
X6347857Y-12218238D01*
X6357381Y-12199190D01*
X6366905Y-12189667D01*
X6385952Y-12180143D01*
X6414524Y-12180143D01*
X6433571Y-12189667D01*
X6443095Y-12199190D01*
X6452619Y-12218238D01*
X6452619Y-12275381D01*
X6443095Y-12294428D01*
X6433571Y-12303952D01*
X6414524Y-12313476D01*
X6385952Y-12313476D01*
X6566905Y-12313476D02*
X6547857Y-12303952D01*
X6538333Y-12284905D01*
X6538333Y-12113476D01*
X6719286Y-12303952D02*
X6700238Y-12313476D01*
X6662143Y-12313476D01*
X6643095Y-12303952D01*
X6633571Y-12284905D01*
X6633571Y-12208714D01*
X6643095Y-12189667D01*
X6662143Y-12180143D01*
X6700238Y-12180143D01*
X6719286Y-12189667D01*
X6728809Y-12208714D01*
X6728809Y-12227762D01*
X6633571Y-12246809D01*
X6805000Y-12303952D02*
X6824048Y-12313476D01*
X6862143Y-12313476D01*
X6881190Y-12303952D01*
X6890714Y-12284905D01*
X6890714Y-12275381D01*
X6881190Y-12256333D01*
X6862143Y-12246809D01*
X6833571Y-12246809D01*
X6814524Y-12237286D01*
X6805000Y-12218238D01*
X6805000Y-12208714D01*
X6814524Y-12189667D01*
X6833571Y-12180143D01*
X6862143Y-12180143D01*
X6881190Y-12189667D01*
X6957381Y-12389667D02*
X6966905Y-12380143D01*
X6985952Y-12351571D01*
X6995476Y-12332524D01*
X7005000Y-12303952D01*
X7014524Y-12256333D01*
X7014524Y-12218238D01*
X7005000Y-12170619D01*
X6995476Y-12142048D01*
X6985952Y-12123000D01*
X6966905Y-12094428D01*
X6957381Y-12084905D01*
D14*
X1977427Y-12529427D02*
X1977427Y-12444573D01*
X1892573Y-12444573D01*
X1892573Y-12529427D01*
X1977427Y-12529427D01*
D11*
X2357381Y-12577476D02*
X2243095Y-12577476D01*
X2300238Y-12577476D02*
X2300238Y-12377476D01*
X2281190Y-12406048D01*
X2262143Y-12425095D01*
X2243095Y-12434619D01*
X2443095Y-12558428D02*
X2452619Y-12567952D01*
X2443095Y-12577476D01*
X2433571Y-12567952D01*
X2443095Y-12558428D01*
X2443095Y-12577476D01*
X2528810Y-12396524D02*
X2538333Y-12387000D01*
X2557381Y-12377476D01*
X2605000Y-12377476D01*
X2624048Y-12387000D01*
X2633571Y-12396524D01*
X2643095Y-12415571D01*
X2643095Y-12434619D01*
X2633571Y-12463190D01*
X2519286Y-12577476D01*
X2643095Y-12577476D01*
X2766905Y-12377476D02*
X2785952Y-12377476D01*
X2805000Y-12387000D01*
X2814524Y-12396524D01*
X2824048Y-12415571D01*
X2833571Y-12453667D01*
X2833571Y-12501286D01*
X2824048Y-12539381D01*
X2814524Y-12558428D01*
X2805000Y-12567952D01*
X2785952Y-12577476D01*
X2766905Y-12577476D01*
X2747857Y-12567952D01*
X2738333Y-12558428D01*
X2728810Y-12539381D01*
X2719286Y-12501286D01*
X2719286Y-12453667D01*
X2728810Y-12415571D01*
X2738333Y-12396524D01*
X2747857Y-12387000D01*
X2766905Y-12377476D01*
X2957381Y-12377476D02*
X2976428Y-12377476D01*
X2995476Y-12387000D01*
X3005000Y-12396524D01*
X3014524Y-12415571D01*
X3024048Y-12453667D01*
X3024048Y-12501286D01*
X3014524Y-12539381D01*
X3005000Y-12558428D01*
X2995476Y-12567952D01*
X2976428Y-12577476D01*
X2957381Y-12577476D01*
X2938333Y-12567952D01*
X2928809Y-12558428D01*
X2919286Y-12539381D01*
X2909762Y-12501286D01*
X2909762Y-12453667D01*
X2919286Y-12415571D01*
X2928809Y-12396524D01*
X2938333Y-12387000D01*
X2957381Y-12377476D01*
X3109762Y-12577476D02*
X3109762Y-12444143D01*
X3109762Y-12463190D02*
X3119286Y-12453667D01*
X3138333Y-12444143D01*
X3166905Y-12444143D01*
X3185952Y-12453667D01*
X3195476Y-12472714D01*
X3195476Y-12577476D01*
X3195476Y-12472714D02*
X3205000Y-12453667D01*
X3224048Y-12444143D01*
X3252619Y-12444143D01*
X3271667Y-12453667D01*
X3281190Y-12472714D01*
X3281190Y-12577476D01*
X3376428Y-12577476D02*
X3376428Y-12444143D01*
X3376428Y-12463190D02*
X3385952Y-12453667D01*
X3405000Y-12444143D01*
X3433571Y-12444143D01*
X3452619Y-12453667D01*
X3462143Y-12472714D01*
X3462143Y-12577476D01*
X3462143Y-12472714D02*
X3471667Y-12453667D01*
X3490714Y-12444143D01*
X3519286Y-12444143D01*
X3538333Y-12453667D01*
X3547857Y-12472714D01*
X3547857Y-12577476D01*
X3938333Y-12367952D02*
X3766905Y-12625095D01*
X4195476Y-12377476D02*
X4214524Y-12377476D01*
X4233571Y-12387000D01*
X4243095Y-12396524D01*
X4252619Y-12415571D01*
X4262143Y-12453667D01*
X4262143Y-12501286D01*
X4252619Y-12539381D01*
X4243095Y-12558428D01*
X4233571Y-12567952D01*
X4214524Y-12577476D01*
X4195476Y-12577476D01*
X4176428Y-12567952D01*
X4166905Y-12558428D01*
X4157381Y-12539381D01*
X4147857Y-12501286D01*
X4147857Y-12453667D01*
X4157381Y-12415571D01*
X4166905Y-12396524D01*
X4176428Y-12387000D01*
X4195476Y-12377476D01*
X4347857Y-12558428D02*
X4357381Y-12567952D01*
X4347857Y-12577476D01*
X4338333Y-12567952D01*
X4347857Y-12558428D01*
X4347857Y-12577476D01*
X4481190Y-12377476D02*
X4500238Y-12377476D01*
X4519286Y-12387000D01*
X4528810Y-12396524D01*
X4538333Y-12415571D01*
X4547857Y-12453667D01*
X4547857Y-12501286D01*
X4538333Y-12539381D01*
X4528810Y-12558428D01*
X4519286Y-12567952D01*
X4500238Y-12577476D01*
X4481190Y-12577476D01*
X4462143Y-12567952D01*
X4452619Y-12558428D01*
X4443095Y-12539381D01*
X4433571Y-12501286D01*
X4433571Y-12453667D01*
X4443095Y-12415571D01*
X4452619Y-12396524D01*
X4462143Y-12387000D01*
X4481190Y-12377476D01*
X4719286Y-12444143D02*
X4719286Y-12577476D01*
X4671667Y-12367952D02*
X4624048Y-12510809D01*
X4747857Y-12510809D01*
X4805000Y-12377476D02*
X4938333Y-12377476D01*
X4852619Y-12577476D01*
X5005000Y-12396524D02*
X5014524Y-12387000D01*
X5033571Y-12377476D01*
X5081190Y-12377476D01*
X5100238Y-12387000D01*
X5109762Y-12396524D01*
X5119286Y-12415571D01*
X5119286Y-12434619D01*
X5109762Y-12463190D01*
X4995476Y-12577476D01*
X5119286Y-12577476D01*
X5195476Y-12377476D02*
X5195476Y-12415571D01*
X5271667Y-12377476D02*
X5271667Y-12415571D01*
X5566905Y-12653667D02*
X5557381Y-12644143D01*
X5538333Y-12615571D01*
X5528810Y-12596524D01*
X5519286Y-12567952D01*
X5509762Y-12520333D01*
X5509762Y-12482238D01*
X5519286Y-12434619D01*
X5528810Y-12406048D01*
X5538333Y-12387000D01*
X5557381Y-12358428D01*
X5566905Y-12348905D01*
X5633571Y-12396524D02*
X5643095Y-12387000D01*
X5662143Y-12377476D01*
X5709762Y-12377476D01*
X5728809Y-12387000D01*
X5738333Y-12396524D01*
X5747857Y-12415571D01*
X5747857Y-12434619D01*
X5738333Y-12463190D01*
X5624048Y-12577476D01*
X5747857Y-12577476D01*
X5985952Y-12577476D02*
X5985952Y-12377476D01*
X6071667Y-12577476D02*
X6071667Y-12472714D01*
X6062143Y-12453667D01*
X6043095Y-12444143D01*
X6014524Y-12444143D01*
X5995476Y-12453667D01*
X5985952Y-12463190D01*
X6195476Y-12577476D02*
X6176428Y-12567952D01*
X6166905Y-12558428D01*
X6157381Y-12539381D01*
X6157381Y-12482238D01*
X6166905Y-12463190D01*
X6176428Y-12453667D01*
X6195476Y-12444143D01*
X6224048Y-12444143D01*
X6243095Y-12453667D01*
X6252619Y-12463190D01*
X6262143Y-12482238D01*
X6262143Y-12539381D01*
X6252619Y-12558428D01*
X6243095Y-12567952D01*
X6224048Y-12577476D01*
X6195476Y-12577476D01*
X6376428Y-12577476D02*
X6357381Y-12567952D01*
X6347857Y-12548905D01*
X6347857Y-12377476D01*
X6528809Y-12567952D02*
X6509762Y-12577476D01*
X6471667Y-12577476D01*
X6452619Y-12567952D01*
X6443095Y-12548905D01*
X6443095Y-12472714D01*
X6452619Y-12453667D01*
X6471667Y-12444143D01*
X6509762Y-12444143D01*
X6528809Y-12453667D01*
X6538333Y-12472714D01*
X6538333Y-12491762D01*
X6443095Y-12510809D01*
X6614524Y-12567952D02*
X6633571Y-12577476D01*
X6671667Y-12577476D01*
X6690714Y-12567952D01*
X6700238Y-12548905D01*
X6700238Y-12539381D01*
X6690714Y-12520333D01*
X6671667Y-12510809D01*
X6643095Y-12510809D01*
X6624048Y-12501286D01*
X6614524Y-12482238D01*
X6614524Y-12472714D01*
X6624048Y-12453667D01*
X6643095Y-12444143D01*
X6671667Y-12444143D01*
X6690714Y-12453667D01*
X6766905Y-12653667D02*
X6776428Y-12644143D01*
X6795476Y-12615571D01*
X6805000Y-12596524D01*
X6814524Y-12567952D01*
X6824048Y-12520333D01*
X6824048Y-12482238D01*
X6814524Y-12434619D01*
X6805000Y-12406048D01*
X6795476Y-12387000D01*
X6776428Y-12358428D01*
X6766905Y-12348905D01*
D15*
X1912450Y-12833550D02*
X1995000Y-12751000D01*
X1912450Y-12668450D01*
X1829900Y-12751000D01*
X1912450Y-12833550D01*
D11*
X2357381Y-12841476D02*
X2243095Y-12841476D01*
X2300238Y-12841476D02*
X2300238Y-12641476D01*
X2281190Y-12670048D01*
X2262143Y-12689095D01*
X2243095Y-12698619D01*
X2443095Y-12822428D02*
X2452619Y-12831952D01*
X2443095Y-12841476D01*
X2433571Y-12831952D01*
X2443095Y-12822428D01*
X2443095Y-12841476D01*
X2624048Y-12641476D02*
X2585952Y-12641476D01*
X2566905Y-12651000D01*
X2557381Y-12660524D01*
X2538333Y-12689095D01*
X2528810Y-12727190D01*
X2528810Y-12803381D01*
X2538333Y-12822428D01*
X2547857Y-12831952D01*
X2566905Y-12841476D01*
X2605000Y-12841476D01*
X2624048Y-12831952D01*
X2633571Y-12822428D01*
X2643095Y-12803381D01*
X2643095Y-12755762D01*
X2633571Y-12736714D01*
X2624048Y-12727190D01*
X2605000Y-12717667D01*
X2566905Y-12717667D01*
X2547857Y-12727190D01*
X2538333Y-12736714D01*
X2528810Y-12755762D01*
X2824048Y-12641476D02*
X2728810Y-12641476D01*
X2719286Y-12736714D01*
X2728810Y-12727190D01*
X2747857Y-12717667D01*
X2795476Y-12717667D01*
X2814524Y-12727190D01*
X2824048Y-12736714D01*
X2833571Y-12755762D01*
X2833571Y-12803381D01*
X2824048Y-12822428D01*
X2814524Y-12831952D01*
X2795476Y-12841476D01*
X2747857Y-12841476D01*
X2728810Y-12831952D01*
X2719286Y-12822428D01*
X3024048Y-12841476D02*
X2909762Y-12841476D01*
X2966905Y-12841476D02*
X2966905Y-12641476D01*
X2947857Y-12670048D01*
X2928809Y-12689095D01*
X2909762Y-12698619D01*
X3109762Y-12841476D02*
X3109762Y-12708143D01*
X3109762Y-12727190D02*
X3119286Y-12717667D01*
X3138333Y-12708143D01*
X3166905Y-12708143D01*
X3185952Y-12717667D01*
X3195476Y-12736714D01*
X3195476Y-12841476D01*
X3195476Y-12736714D02*
X3205000Y-12717667D01*
X3224048Y-12708143D01*
X3252619Y-12708143D01*
X3271667Y-12717667D01*
X3281190Y-12736714D01*
X3281190Y-12841476D01*
X3376428Y-12841476D02*
X3376428Y-12708143D01*
X3376428Y-12727190D02*
X3385952Y-12717667D01*
X3405000Y-12708143D01*
X3433571Y-12708143D01*
X3452619Y-12717667D01*
X3462143Y-12736714D01*
X3462143Y-12841476D01*
X3462143Y-12736714D02*
X3471667Y-12717667D01*
X3490714Y-12708143D01*
X3519286Y-12708143D01*
X3538333Y-12717667D01*
X3547857Y-12736714D01*
X3547857Y-12841476D01*
X3938333Y-12631952D02*
X3766905Y-12889095D01*
X4195476Y-12641476D02*
X4214524Y-12641476D01*
X4233571Y-12651000D01*
X4243095Y-12660524D01*
X4252619Y-12679571D01*
X4262143Y-12717667D01*
X4262143Y-12765286D01*
X4252619Y-12803381D01*
X4243095Y-12822428D01*
X4233571Y-12831952D01*
X4214524Y-12841476D01*
X4195476Y-12841476D01*
X4176428Y-12831952D01*
X4166905Y-12822428D01*
X4157381Y-12803381D01*
X4147857Y-12765286D01*
X4147857Y-12717667D01*
X4157381Y-12679571D01*
X4166905Y-12660524D01*
X4176428Y-12651000D01*
X4195476Y-12641476D01*
X4347857Y-12822428D02*
X4357381Y-12831952D01*
X4347857Y-12841476D01*
X4338333Y-12831952D01*
X4347857Y-12822428D01*
X4347857Y-12841476D01*
X4481190Y-12641476D02*
X4500238Y-12641476D01*
X4519286Y-12651000D01*
X4528810Y-12660524D01*
X4538333Y-12679571D01*
X4547857Y-12717667D01*
X4547857Y-12765286D01*
X4538333Y-12803381D01*
X4528810Y-12822428D01*
X4519286Y-12831952D01*
X4500238Y-12841476D01*
X4481190Y-12841476D01*
X4462143Y-12831952D01*
X4452619Y-12822428D01*
X4443095Y-12803381D01*
X4433571Y-12765286D01*
X4433571Y-12717667D01*
X4443095Y-12679571D01*
X4452619Y-12660524D01*
X4462143Y-12651000D01*
X4481190Y-12641476D01*
X4719286Y-12641476D02*
X4681190Y-12641476D01*
X4662143Y-12651000D01*
X4652619Y-12660524D01*
X4633571Y-12689095D01*
X4624048Y-12727190D01*
X4624048Y-12803381D01*
X4633571Y-12822428D01*
X4643095Y-12831952D01*
X4662143Y-12841476D01*
X4700238Y-12841476D01*
X4719286Y-12831952D01*
X4728810Y-12822428D01*
X4738333Y-12803381D01*
X4738333Y-12755762D01*
X4728810Y-12736714D01*
X4719286Y-12727190D01*
X4700238Y-12717667D01*
X4662143Y-12717667D01*
X4643095Y-12727190D01*
X4633571Y-12736714D01*
X4624048Y-12755762D01*
X4919286Y-12641476D02*
X4824048Y-12641476D01*
X4814524Y-12736714D01*
X4824048Y-12727190D01*
X4843095Y-12717667D01*
X4890714Y-12717667D01*
X4909762Y-12727190D01*
X4919286Y-12736714D01*
X4928810Y-12755762D01*
X4928810Y-12803381D01*
X4919286Y-12822428D01*
X4909762Y-12831952D01*
X4890714Y-12841476D01*
X4843095Y-12841476D01*
X4824048Y-12831952D01*
X4814524Y-12822428D01*
X5052619Y-12641476D02*
X5071667Y-12641476D01*
X5090714Y-12651000D01*
X5100238Y-12660524D01*
X5109762Y-12679571D01*
X5119286Y-12717667D01*
X5119286Y-12765286D01*
X5109762Y-12803381D01*
X5100238Y-12822428D01*
X5090714Y-12831952D01*
X5071667Y-12841476D01*
X5052619Y-12841476D01*
X5033571Y-12831952D01*
X5024048Y-12822428D01*
X5014524Y-12803381D01*
X5005000Y-12765286D01*
X5005000Y-12717667D01*
X5014524Y-12679571D01*
X5024048Y-12660524D01*
X5033571Y-12651000D01*
X5052619Y-12641476D01*
X5195476Y-12641476D02*
X5195476Y-12679571D01*
X5271667Y-12641476D02*
X5271667Y-12679571D01*
X5566905Y-12917667D02*
X5557381Y-12908143D01*
X5538333Y-12879571D01*
X5528810Y-12860524D01*
X5519286Y-12831952D01*
X5509762Y-12784333D01*
X5509762Y-12746238D01*
X5519286Y-12698619D01*
X5528810Y-12670048D01*
X5538333Y-12651000D01*
X5557381Y-12622428D01*
X5566905Y-12612905D01*
X5624048Y-12641476D02*
X5747857Y-12641476D01*
X5681190Y-12717667D01*
X5709762Y-12717667D01*
X5728809Y-12727190D01*
X5738333Y-12736714D01*
X5747857Y-12755762D01*
X5747857Y-12803381D01*
X5738333Y-12822428D01*
X5728809Y-12831952D01*
X5709762Y-12841476D01*
X5652619Y-12841476D01*
X5633571Y-12831952D01*
X5624048Y-12822428D01*
X5985952Y-12841476D02*
X5985952Y-12641476D01*
X6071667Y-12841476D02*
X6071667Y-12736714D01*
X6062143Y-12717667D01*
X6043095Y-12708143D01*
X6014524Y-12708143D01*
X5995476Y-12717667D01*
X5985952Y-12727190D01*
X6195476Y-12841476D02*
X6176428Y-12831952D01*
X6166905Y-12822428D01*
X6157381Y-12803381D01*
X6157381Y-12746238D01*
X6166905Y-12727190D01*
X6176428Y-12717667D01*
X6195476Y-12708143D01*
X6224048Y-12708143D01*
X6243095Y-12717667D01*
X6252619Y-12727190D01*
X6262143Y-12746238D01*
X6262143Y-12803381D01*
X6252619Y-12822428D01*
X6243095Y-12831952D01*
X6224048Y-12841476D01*
X6195476Y-12841476D01*
X6376428Y-12841476D02*
X6357381Y-12831952D01*
X6347857Y-12812905D01*
X6347857Y-12641476D01*
X6528809Y-12831952D02*
X6509762Y-12841476D01*
X6471667Y-12841476D01*
X6452619Y-12831952D01*
X6443095Y-12812905D01*
X6443095Y-12736714D01*
X6452619Y-12717667D01*
X6471667Y-12708143D01*
X6509762Y-12708143D01*
X6528809Y-12717667D01*
X6538333Y-12736714D01*
X6538333Y-12755762D01*
X6443095Y-12774809D01*
X6614524Y-12831952D02*
X6633571Y-12841476D01*
X6671667Y-12841476D01*
X6690714Y-12831952D01*
X6700238Y-12812905D01*
X6700238Y-12803381D01*
X6690714Y-12784333D01*
X6671667Y-12774809D01*
X6643095Y-12774809D01*
X6624048Y-12765286D01*
X6614524Y-12746238D01*
X6614524Y-12736714D01*
X6624048Y-12717667D01*
X6643095Y-12708143D01*
X6671667Y-12708143D01*
X6690714Y-12717667D01*
X6766905Y-12917667D02*
X6776428Y-12908143D01*
X6795476Y-12879571D01*
X6805000Y-12860524D01*
X6814524Y-12831952D01*
X6824048Y-12784333D01*
X6824048Y-12746238D01*
X6814524Y-12698619D01*
X6805000Y-12670048D01*
X6795476Y-12651000D01*
X6776428Y-12622428D01*
X6766905Y-12612905D01*
X1795000Y-12936100D02*
X1995000Y-13136100D01*
X1995000Y-12936100D02*
X1795000Y-13136100D01*
X1995000Y-13036100D02*
G75*
G03*
X1995000Y-13036100I-100000J0D01*
G01*
X2243095Y-12945624D02*
X2252619Y-12936100D01*
X2271667Y-12926576D01*
X2319286Y-12926576D01*
X2338333Y-12936100D01*
X2347857Y-12945624D01*
X2357381Y-12964671D01*
X2357381Y-12983719D01*
X2347857Y-13012290D01*
X2233571Y-13126576D01*
X2357381Y-13126576D01*
X2443095Y-13107528D02*
X2452619Y-13117052D01*
X2443095Y-13126576D01*
X2433571Y-13117052D01*
X2443095Y-13107528D01*
X2443095Y-13126576D01*
X2643095Y-13126576D02*
X2528810Y-13126576D01*
X2585952Y-13126576D02*
X2585952Y-12926576D01*
X2566905Y-12955148D01*
X2547857Y-12974195D01*
X2528810Y-12983719D01*
X2824048Y-12926576D02*
X2728810Y-12926576D01*
X2719286Y-13021814D01*
X2728810Y-13012290D01*
X2747857Y-13002767D01*
X2795476Y-13002767D01*
X2814524Y-13012290D01*
X2824048Y-13021814D01*
X2833571Y-13040862D01*
X2833571Y-13088481D01*
X2824048Y-13107528D01*
X2814524Y-13117052D01*
X2795476Y-13126576D01*
X2747857Y-13126576D01*
X2728810Y-13117052D01*
X2719286Y-13107528D01*
X2928809Y-13126576D02*
X2966905Y-13126576D01*
X2985952Y-13117052D01*
X2995476Y-13107528D01*
X3014524Y-13078957D01*
X3024048Y-13040862D01*
X3024048Y-12964671D01*
X3014524Y-12945624D01*
X3005000Y-12936100D01*
X2985952Y-12926576D01*
X2947857Y-12926576D01*
X2928809Y-12936100D01*
X2919286Y-12945624D01*
X2909762Y-12964671D01*
X2909762Y-13012290D01*
X2919286Y-13031338D01*
X2928809Y-13040862D01*
X2947857Y-13050386D01*
X2985952Y-13050386D01*
X3005000Y-13040862D01*
X3014524Y-13031338D01*
X3024048Y-13012290D01*
X3109762Y-13126576D02*
X3109762Y-12993243D01*
X3109762Y-13012290D02*
X3119286Y-13002767D01*
X3138333Y-12993243D01*
X3166905Y-12993243D01*
X3185952Y-13002767D01*
X3195476Y-13021814D01*
X3195476Y-13126576D01*
X3195476Y-13021814D02*
X3205000Y-13002767D01*
X3224048Y-12993243D01*
X3252619Y-12993243D01*
X3271667Y-13002767D01*
X3281190Y-13021814D01*
X3281190Y-13126576D01*
X3376428Y-13126576D02*
X3376428Y-12993243D01*
X3376428Y-13012290D02*
X3385952Y-13002767D01*
X3405000Y-12993243D01*
X3433571Y-12993243D01*
X3452619Y-13002767D01*
X3462143Y-13021814D01*
X3462143Y-13126576D01*
X3462143Y-13021814D02*
X3471667Y-13002767D01*
X3490714Y-12993243D01*
X3519286Y-12993243D01*
X3538333Y-13002767D01*
X3547857Y-13021814D01*
X3547857Y-13126576D01*
X3938333Y-12917052D02*
X3766905Y-13174195D01*
X4195476Y-12926576D02*
X4214524Y-12926576D01*
X4233571Y-12936100D01*
X4243095Y-12945624D01*
X4252619Y-12964671D01*
X4262143Y-13002767D01*
X4262143Y-13050386D01*
X4252619Y-13088481D01*
X4243095Y-13107528D01*
X4233571Y-13117052D01*
X4214524Y-13126576D01*
X4195476Y-13126576D01*
X4176428Y-13117052D01*
X4166905Y-13107528D01*
X4157381Y-13088481D01*
X4147857Y-13050386D01*
X4147857Y-13002767D01*
X4157381Y-12964671D01*
X4166905Y-12945624D01*
X4176428Y-12936100D01*
X4195476Y-12926576D01*
X4347857Y-13107528D02*
X4357381Y-13117052D01*
X4347857Y-13126576D01*
X4338333Y-13117052D01*
X4347857Y-13107528D01*
X4347857Y-13126576D01*
X4481190Y-12926576D02*
X4500238Y-12926576D01*
X4519286Y-12936100D01*
X4528810Y-12945624D01*
X4538333Y-12964671D01*
X4547857Y-13002767D01*
X4547857Y-13050386D01*
X4538333Y-13088481D01*
X4528810Y-13107528D01*
X4519286Y-13117052D01*
X4500238Y-13126576D01*
X4481190Y-13126576D01*
X4462143Y-13117052D01*
X4452619Y-13107528D01*
X4443095Y-13088481D01*
X4433571Y-13050386D01*
X4433571Y-13002767D01*
X4443095Y-12964671D01*
X4452619Y-12945624D01*
X4462143Y-12936100D01*
X4481190Y-12926576D01*
X4662143Y-13012290D02*
X4643095Y-13002767D01*
X4633571Y-12993243D01*
X4624048Y-12974195D01*
X4624048Y-12964671D01*
X4633571Y-12945624D01*
X4643095Y-12936100D01*
X4662143Y-12926576D01*
X4700238Y-12926576D01*
X4719286Y-12936100D01*
X4728810Y-12945624D01*
X4738333Y-12964671D01*
X4738333Y-12974195D01*
X4728810Y-12993243D01*
X4719286Y-13002767D01*
X4700238Y-13012290D01*
X4662143Y-13012290D01*
X4643095Y-13021814D01*
X4633571Y-13031338D01*
X4624048Y-13050386D01*
X4624048Y-13088481D01*
X4633571Y-13107528D01*
X4643095Y-13117052D01*
X4662143Y-13126576D01*
X4700238Y-13126576D01*
X4719286Y-13117052D01*
X4728810Y-13107528D01*
X4738333Y-13088481D01*
X4738333Y-13050386D01*
X4728810Y-13031338D01*
X4719286Y-13021814D01*
X4700238Y-13012290D01*
X4919286Y-12926576D02*
X4824048Y-12926576D01*
X4814524Y-13021814D01*
X4824048Y-13012290D01*
X4843095Y-13002767D01*
X4890714Y-13002767D01*
X4909762Y-13012290D01*
X4919286Y-13021814D01*
X4928810Y-13040862D01*
X4928810Y-13088481D01*
X4919286Y-13107528D01*
X4909762Y-13117052D01*
X4890714Y-13126576D01*
X4843095Y-13126576D01*
X4824048Y-13117052D01*
X4814524Y-13107528D01*
X5052619Y-12926576D02*
X5071667Y-12926576D01*
X5090714Y-12936100D01*
X5100238Y-12945624D01*
X5109762Y-12964671D01*
X5119286Y-13002767D01*
X5119286Y-13050386D01*
X5109762Y-13088481D01*
X5100238Y-13107528D01*
X5090714Y-13117052D01*
X5071667Y-13126576D01*
X5052619Y-13126576D01*
X5033571Y-13117052D01*
X5024048Y-13107528D01*
X5014524Y-13088481D01*
X5005000Y-13050386D01*
X5005000Y-13002767D01*
X5014524Y-12964671D01*
X5024048Y-12945624D01*
X5033571Y-12936100D01*
X5052619Y-12926576D01*
X5195476Y-12926576D02*
X5195476Y-12964671D01*
X5271667Y-12926576D02*
X5271667Y-12964671D01*
X5566905Y-13202767D02*
X5557381Y-13193243D01*
X5538333Y-13164671D01*
X5528810Y-13145624D01*
X5519286Y-13117052D01*
X5509762Y-13069433D01*
X5509762Y-13031338D01*
X5519286Y-12983719D01*
X5528810Y-12955148D01*
X5538333Y-12936100D01*
X5557381Y-12907528D01*
X5566905Y-12898005D01*
X5633571Y-12945624D02*
X5643095Y-12936100D01*
X5662143Y-12926576D01*
X5709762Y-12926576D01*
X5728809Y-12936100D01*
X5738333Y-12945624D01*
X5747857Y-12964671D01*
X5747857Y-12983719D01*
X5738333Y-13012290D01*
X5624048Y-13126576D01*
X5747857Y-13126576D01*
X5985952Y-13126576D02*
X5985952Y-12926576D01*
X6071667Y-13126576D02*
X6071667Y-13021814D01*
X6062143Y-13002767D01*
X6043095Y-12993243D01*
X6014524Y-12993243D01*
X5995476Y-13002767D01*
X5985952Y-13012290D01*
X6195476Y-13126576D02*
X6176428Y-13117052D01*
X6166905Y-13107528D01*
X6157381Y-13088481D01*
X6157381Y-13031338D01*
X6166905Y-13012290D01*
X6176428Y-13002767D01*
X6195476Y-12993243D01*
X6224048Y-12993243D01*
X6243095Y-13002767D01*
X6252619Y-13012290D01*
X6262143Y-13031338D01*
X6262143Y-13088481D01*
X6252619Y-13107528D01*
X6243095Y-13117052D01*
X6224048Y-13126576D01*
X6195476Y-13126576D01*
X6376428Y-13126576D02*
X6357381Y-13117052D01*
X6347857Y-13098005D01*
X6347857Y-12926576D01*
X6528809Y-13117052D02*
X6509762Y-13126576D01*
X6471667Y-13126576D01*
X6452619Y-13117052D01*
X6443095Y-13098005D01*
X6443095Y-13021814D01*
X6452619Y-13002767D01*
X6471667Y-12993243D01*
X6509762Y-12993243D01*
X6528809Y-13002767D01*
X6538333Y-13021814D01*
X6538333Y-13040862D01*
X6443095Y-13059909D01*
X6614524Y-13117052D02*
X6633571Y-13126576D01*
X6671667Y-13126576D01*
X6690714Y-13117052D01*
X6700238Y-13098005D01*
X6700238Y-13088481D01*
X6690714Y-13069433D01*
X6671667Y-13059909D01*
X6643095Y-13059909D01*
X6624048Y-13050386D01*
X6614524Y-13031338D01*
X6614524Y-13021814D01*
X6624048Y-13002767D01*
X6643095Y-12993243D01*
X6671667Y-12993243D01*
X6690714Y-13002767D01*
X6766905Y-13202767D02*
X6776428Y-13193243D01*
X6795476Y-13164671D01*
X6805000Y-13145624D01*
X6814524Y-13117052D01*
X6824048Y-13069433D01*
X6824048Y-13031338D01*
X6814524Y-12983719D01*
X6805000Y-12955148D01*
X6795476Y-12936100D01*
X6776428Y-12907528D01*
X6766905Y-12898005D01*
X1795000Y-13256100D02*
X1995000Y-13456100D01*
X1995000Y-13256100D02*
X1795000Y-13456100D01*
X1895000Y-13256100D02*
X1895000Y-13456100D01*
X1795000Y-13356100D02*
X1995000Y-13356100D01*
X2243095Y-13265624D02*
X2252619Y-13256100D01*
X2271667Y-13246576D01*
X2319286Y-13246576D01*
X2338333Y-13256100D01*
X2347857Y-13265624D01*
X2357381Y-13284671D01*
X2357381Y-13303719D01*
X2347857Y-13332290D01*
X2233571Y-13446576D01*
X2357381Y-13446576D01*
X2443095Y-13427528D02*
X2452619Y-13437052D01*
X2443095Y-13446576D01*
X2433571Y-13437052D01*
X2443095Y-13427528D01*
X2443095Y-13446576D01*
X2528810Y-13265624D02*
X2538333Y-13256100D01*
X2557381Y-13246576D01*
X2605000Y-13246576D01*
X2624048Y-13256100D01*
X2633571Y-13265624D01*
X2643095Y-13284671D01*
X2643095Y-13303719D01*
X2633571Y-13332290D01*
X2519286Y-13446576D01*
X2643095Y-13446576D01*
X2766905Y-13246576D02*
X2785952Y-13246576D01*
X2805000Y-13256100D01*
X2814524Y-13265624D01*
X2824048Y-13284671D01*
X2833571Y-13322767D01*
X2833571Y-13370386D01*
X2824048Y-13408481D01*
X2814524Y-13427528D01*
X2805000Y-13437052D01*
X2785952Y-13446576D01*
X2766905Y-13446576D01*
X2747857Y-13437052D01*
X2738333Y-13427528D01*
X2728810Y-13408481D01*
X2719286Y-13370386D01*
X2719286Y-13322767D01*
X2728810Y-13284671D01*
X2738333Y-13265624D01*
X2747857Y-13256100D01*
X2766905Y-13246576D01*
X2957381Y-13246576D02*
X2976428Y-13246576D01*
X2995476Y-13256100D01*
X3005000Y-13265624D01*
X3014524Y-13284671D01*
X3024048Y-13322767D01*
X3024048Y-13370386D01*
X3014524Y-13408481D01*
X3005000Y-13427528D01*
X2995476Y-13437052D01*
X2976428Y-13446576D01*
X2957381Y-13446576D01*
X2938333Y-13437052D01*
X2928809Y-13427528D01*
X2919286Y-13408481D01*
X2909762Y-13370386D01*
X2909762Y-13322767D01*
X2919286Y-13284671D01*
X2928809Y-13265624D01*
X2938333Y-13256100D01*
X2957381Y-13246576D01*
X3109762Y-13446576D02*
X3109762Y-13313243D01*
X3109762Y-13332290D02*
X3119286Y-13322767D01*
X3138333Y-13313243D01*
X3166905Y-13313243D01*
X3185952Y-13322767D01*
X3195476Y-13341814D01*
X3195476Y-13446576D01*
X3195476Y-13341814D02*
X3205000Y-13322767D01*
X3224048Y-13313243D01*
X3252619Y-13313243D01*
X3271667Y-13322767D01*
X3281190Y-13341814D01*
X3281190Y-13446576D01*
X3376428Y-13446576D02*
X3376428Y-13313243D01*
X3376428Y-13332290D02*
X3385952Y-13322767D01*
X3405000Y-13313243D01*
X3433571Y-13313243D01*
X3452619Y-13322767D01*
X3462143Y-13341814D01*
X3462143Y-13446576D01*
X3462143Y-13341814D02*
X3471667Y-13322767D01*
X3490714Y-13313243D01*
X3519286Y-13313243D01*
X3538333Y-13322767D01*
X3547857Y-13341814D01*
X3547857Y-13446576D01*
X3938333Y-13237052D02*
X3766905Y-13494195D01*
X4195476Y-13246576D02*
X4214524Y-13246576D01*
X4233571Y-13256100D01*
X4243095Y-13265624D01*
X4252619Y-13284671D01*
X4262143Y-13322767D01*
X4262143Y-13370386D01*
X4252619Y-13408481D01*
X4243095Y-13427528D01*
X4233571Y-13437052D01*
X4214524Y-13446576D01*
X4195476Y-13446576D01*
X4176428Y-13437052D01*
X4166905Y-13427528D01*
X4157381Y-13408481D01*
X4147857Y-13370386D01*
X4147857Y-13322767D01*
X4157381Y-13284671D01*
X4166905Y-13265624D01*
X4176428Y-13256100D01*
X4195476Y-13246576D01*
X4347857Y-13427528D02*
X4357381Y-13437052D01*
X4347857Y-13446576D01*
X4338333Y-13437052D01*
X4347857Y-13427528D01*
X4347857Y-13446576D01*
X4481190Y-13246576D02*
X4500238Y-13246576D01*
X4519286Y-13256100D01*
X4528810Y-13265624D01*
X4538333Y-13284671D01*
X4547857Y-13322767D01*
X4547857Y-13370386D01*
X4538333Y-13408481D01*
X4528810Y-13427528D01*
X4519286Y-13437052D01*
X4500238Y-13446576D01*
X4481190Y-13446576D01*
X4462143Y-13437052D01*
X4452619Y-13427528D01*
X4443095Y-13408481D01*
X4433571Y-13370386D01*
X4433571Y-13322767D01*
X4443095Y-13284671D01*
X4452619Y-13265624D01*
X4462143Y-13256100D01*
X4481190Y-13246576D01*
X4662143Y-13332290D02*
X4643095Y-13322767D01*
X4633571Y-13313243D01*
X4624048Y-13294195D01*
X4624048Y-13284671D01*
X4633571Y-13265624D01*
X4643095Y-13256100D01*
X4662143Y-13246576D01*
X4700238Y-13246576D01*
X4719286Y-13256100D01*
X4728810Y-13265624D01*
X4738333Y-13284671D01*
X4738333Y-13294195D01*
X4728810Y-13313243D01*
X4719286Y-13322767D01*
X4700238Y-13332290D01*
X4662143Y-13332290D01*
X4643095Y-13341814D01*
X4633571Y-13351338D01*
X4624048Y-13370386D01*
X4624048Y-13408481D01*
X4633571Y-13427528D01*
X4643095Y-13437052D01*
X4662143Y-13446576D01*
X4700238Y-13446576D01*
X4719286Y-13437052D01*
X4728810Y-13427528D01*
X4738333Y-13408481D01*
X4738333Y-13370386D01*
X4728810Y-13351338D01*
X4719286Y-13341814D01*
X4700238Y-13332290D01*
X4909762Y-13246576D02*
X4871667Y-13246576D01*
X4852619Y-13256100D01*
X4843095Y-13265624D01*
X4824048Y-13294195D01*
X4814524Y-13332290D01*
X4814524Y-13408481D01*
X4824048Y-13427528D01*
X4833571Y-13437052D01*
X4852619Y-13446576D01*
X4890714Y-13446576D01*
X4909762Y-13437052D01*
X4919286Y-13427528D01*
X4928810Y-13408481D01*
X4928810Y-13360862D01*
X4919286Y-13341814D01*
X4909762Y-13332290D01*
X4890714Y-13322767D01*
X4852619Y-13322767D01*
X4833571Y-13332290D01*
X4824048Y-13341814D01*
X4814524Y-13360862D01*
X5100238Y-13246576D02*
X5062143Y-13246576D01*
X5043095Y-13256100D01*
X5033571Y-13265624D01*
X5014524Y-13294195D01*
X5005000Y-13332290D01*
X5005000Y-13408481D01*
X5014524Y-13427528D01*
X5024048Y-13437052D01*
X5043095Y-13446576D01*
X5081190Y-13446576D01*
X5100238Y-13437052D01*
X5109762Y-13427528D01*
X5119286Y-13408481D01*
X5119286Y-13360862D01*
X5109762Y-13341814D01*
X5100238Y-13332290D01*
X5081190Y-13322767D01*
X5043095Y-13322767D01*
X5024048Y-13332290D01*
X5014524Y-13341814D01*
X5005000Y-13360862D01*
X5195476Y-13246576D02*
X5195476Y-13284671D01*
X5271667Y-13246576D02*
X5271667Y-13284671D01*
X5566905Y-13522767D02*
X5557381Y-13513243D01*
X5538333Y-13484671D01*
X5528810Y-13465624D01*
X5519286Y-13437052D01*
X5509762Y-13389433D01*
X5509762Y-13351338D01*
X5519286Y-13303719D01*
X5528810Y-13275148D01*
X5538333Y-13256100D01*
X5557381Y-13227528D01*
X5566905Y-13218005D01*
X5728809Y-13313243D02*
X5728809Y-13446576D01*
X5681190Y-13237052D02*
X5633571Y-13379909D01*
X5757381Y-13379909D01*
X5985952Y-13446576D02*
X5985952Y-13246576D01*
X6071667Y-13446576D02*
X6071667Y-13341814D01*
X6062143Y-13322767D01*
X6043095Y-13313243D01*
X6014524Y-13313243D01*
X5995476Y-13322767D01*
X5985952Y-13332290D01*
X6195476Y-13446576D02*
X6176428Y-13437052D01*
X6166905Y-13427528D01*
X6157381Y-13408481D01*
X6157381Y-13351338D01*
X6166905Y-13332290D01*
X6176428Y-13322767D01*
X6195476Y-13313243D01*
X6224048Y-13313243D01*
X6243095Y-13322767D01*
X6252619Y-13332290D01*
X6262143Y-13351338D01*
X6262143Y-13408481D01*
X6252619Y-13427528D01*
X6243095Y-13437052D01*
X6224048Y-13446576D01*
X6195476Y-13446576D01*
X6376428Y-13446576D02*
X6357381Y-13437052D01*
X6347857Y-13418005D01*
X6347857Y-13246576D01*
X6528809Y-13437052D02*
X6509762Y-13446576D01*
X6471667Y-13446576D01*
X6452619Y-13437052D01*
X6443095Y-13418005D01*
X6443095Y-13341814D01*
X6452619Y-13322767D01*
X6471667Y-13313243D01*
X6509762Y-13313243D01*
X6528809Y-13322767D01*
X6538333Y-13341814D01*
X6538333Y-13360862D01*
X6443095Y-13379909D01*
X6614524Y-13437052D02*
X6633571Y-13446576D01*
X6671667Y-13446576D01*
X6690714Y-13437052D01*
X6700238Y-13418005D01*
X6700238Y-13408481D01*
X6690714Y-13389433D01*
X6671667Y-13379909D01*
X6643095Y-13379909D01*
X6624048Y-13370386D01*
X6614524Y-13351338D01*
X6614524Y-13341814D01*
X6624048Y-13322767D01*
X6643095Y-13313243D01*
X6671667Y-13313243D01*
X6690714Y-13322767D01*
X6766905Y-13522767D02*
X6776428Y-13513243D01*
X6795476Y-13484671D01*
X6805000Y-13465624D01*
X6814524Y-13437052D01*
X6824048Y-13389433D01*
X6824048Y-13351338D01*
X6814524Y-13303719D01*
X6805000Y-13275148D01*
X6795476Y-13256100D01*
X6776428Y-13227528D01*
X6766905Y-13218005D01*
X1795000Y-13576100D02*
X1995000Y-13776100D01*
X1995000Y-13576100D02*
X1795000Y-13776100D01*
X1965711Y-13746811D02*
X1965711Y-13605389D01*
X1824289Y-13605389D01*
X1824289Y-13746811D01*
X1965711Y-13746811D01*
X2243095Y-13585624D02*
X2252619Y-13576100D01*
X2271667Y-13566576D01*
X2319286Y-13566576D01*
X2338333Y-13576100D01*
X2347857Y-13585624D01*
X2357381Y-13604671D01*
X2357381Y-13623719D01*
X2347857Y-13652290D01*
X2233571Y-13766576D01*
X2357381Y-13766576D01*
X2443095Y-13747528D02*
X2452619Y-13757052D01*
X2443095Y-13766576D01*
X2433571Y-13757052D01*
X2443095Y-13747528D01*
X2443095Y-13766576D01*
X2633571Y-13566576D02*
X2538333Y-13566576D01*
X2528810Y-13661814D01*
X2538333Y-13652290D01*
X2557381Y-13642767D01*
X2605000Y-13642767D01*
X2624048Y-13652290D01*
X2633571Y-13661814D01*
X2643095Y-13680862D01*
X2643095Y-13728481D01*
X2633571Y-13747528D01*
X2624048Y-13757052D01*
X2605000Y-13766576D01*
X2557381Y-13766576D01*
X2538333Y-13757052D01*
X2528810Y-13747528D01*
X2766905Y-13566576D02*
X2785952Y-13566576D01*
X2805000Y-13576100D01*
X2814524Y-13585624D01*
X2824048Y-13604671D01*
X2833571Y-13642767D01*
X2833571Y-13690386D01*
X2824048Y-13728481D01*
X2814524Y-13747528D01*
X2805000Y-13757052D01*
X2785952Y-13766576D01*
X2766905Y-13766576D01*
X2747857Y-13757052D01*
X2738333Y-13747528D01*
X2728810Y-13728481D01*
X2719286Y-13690386D01*
X2719286Y-13642767D01*
X2728810Y-13604671D01*
X2738333Y-13585624D01*
X2747857Y-13576100D01*
X2766905Y-13566576D01*
X2957381Y-13566576D02*
X2976428Y-13566576D01*
X2995476Y-13576100D01*
X3005000Y-13585624D01*
X3014524Y-13604671D01*
X3024048Y-13642767D01*
X3024048Y-13690386D01*
X3014524Y-13728481D01*
X3005000Y-13747528D01*
X2995476Y-13757052D01*
X2976428Y-13766576D01*
X2957381Y-13766576D01*
X2938333Y-13757052D01*
X2928809Y-13747528D01*
X2919286Y-13728481D01*
X2909762Y-13690386D01*
X2909762Y-13642767D01*
X2919286Y-13604671D01*
X2928809Y-13585624D01*
X2938333Y-13576100D01*
X2957381Y-13566576D01*
X3109762Y-13766576D02*
X3109762Y-13633243D01*
X3109762Y-13652290D02*
X3119286Y-13642767D01*
X3138333Y-13633243D01*
X3166905Y-13633243D01*
X3185952Y-13642767D01*
X3195476Y-13661814D01*
X3195476Y-13766576D01*
X3195476Y-13661814D02*
X3205000Y-13642767D01*
X3224048Y-13633243D01*
X3252619Y-13633243D01*
X3271667Y-13642767D01*
X3281190Y-13661814D01*
X3281190Y-13766576D01*
X3376428Y-13766576D02*
X3376428Y-13633243D01*
X3376428Y-13652290D02*
X3385952Y-13642767D01*
X3405000Y-13633243D01*
X3433571Y-13633243D01*
X3452619Y-13642767D01*
X3462143Y-13661814D01*
X3462143Y-13766576D01*
X3462143Y-13661814D02*
X3471667Y-13642767D01*
X3490714Y-13633243D01*
X3519286Y-13633243D01*
X3538333Y-13642767D01*
X3547857Y-13661814D01*
X3547857Y-13766576D01*
X3938333Y-13557052D02*
X3766905Y-13814195D01*
X4195476Y-13566576D02*
X4214524Y-13566576D01*
X4233571Y-13576100D01*
X4243095Y-13585624D01*
X4252619Y-13604671D01*
X4262143Y-13642767D01*
X4262143Y-13690386D01*
X4252619Y-13728481D01*
X4243095Y-13747528D01*
X4233571Y-13757052D01*
X4214524Y-13766576D01*
X4195476Y-13766576D01*
X4176428Y-13757052D01*
X4166905Y-13747528D01*
X4157381Y-13728481D01*
X4147857Y-13690386D01*
X4147857Y-13642767D01*
X4157381Y-13604671D01*
X4166905Y-13585624D01*
X4176428Y-13576100D01*
X4195476Y-13566576D01*
X4347857Y-13747528D02*
X4357381Y-13757052D01*
X4347857Y-13766576D01*
X4338333Y-13757052D01*
X4347857Y-13747528D01*
X4347857Y-13766576D01*
X4481190Y-13566576D02*
X4500238Y-13566576D01*
X4519286Y-13576100D01*
X4528810Y-13585624D01*
X4538333Y-13604671D01*
X4547857Y-13642767D01*
X4547857Y-13690386D01*
X4538333Y-13728481D01*
X4528810Y-13747528D01*
X4519286Y-13757052D01*
X4500238Y-13766576D01*
X4481190Y-13766576D01*
X4462143Y-13757052D01*
X4452619Y-13747528D01*
X4443095Y-13728481D01*
X4433571Y-13690386D01*
X4433571Y-13642767D01*
X4443095Y-13604671D01*
X4452619Y-13585624D01*
X4462143Y-13576100D01*
X4481190Y-13566576D01*
X4643095Y-13766576D02*
X4681190Y-13766576D01*
X4700238Y-13757052D01*
X4709762Y-13747528D01*
X4728810Y-13718957D01*
X4738333Y-13680862D01*
X4738333Y-13604671D01*
X4728810Y-13585624D01*
X4719286Y-13576100D01*
X4700238Y-13566576D01*
X4662143Y-13566576D01*
X4643095Y-13576100D01*
X4633571Y-13585624D01*
X4624048Y-13604671D01*
X4624048Y-13652290D01*
X4633571Y-13671338D01*
X4643095Y-13680862D01*
X4662143Y-13690386D01*
X4700238Y-13690386D01*
X4719286Y-13680862D01*
X4728810Y-13671338D01*
X4738333Y-13652290D01*
X4852619Y-13652290D02*
X4833571Y-13642767D01*
X4824048Y-13633243D01*
X4814524Y-13614195D01*
X4814524Y-13604671D01*
X4824048Y-13585624D01*
X4833571Y-13576100D01*
X4852619Y-13566576D01*
X4890714Y-13566576D01*
X4909762Y-13576100D01*
X4919286Y-13585624D01*
X4928810Y-13604671D01*
X4928810Y-13614195D01*
X4919286Y-13633243D01*
X4909762Y-13642767D01*
X4890714Y-13652290D01*
X4852619Y-13652290D01*
X4833571Y-13661814D01*
X4824048Y-13671338D01*
X4814524Y-13690386D01*
X4814524Y-13728481D01*
X4824048Y-13747528D01*
X4833571Y-13757052D01*
X4852619Y-13766576D01*
X4890714Y-13766576D01*
X4909762Y-13757052D01*
X4919286Y-13747528D01*
X4928810Y-13728481D01*
X4928810Y-13690386D01*
X4919286Y-13671338D01*
X4909762Y-13661814D01*
X4890714Y-13652290D01*
X5100238Y-13633243D02*
X5100238Y-13766576D01*
X5052619Y-13557052D02*
X5005000Y-13699909D01*
X5128810Y-13699909D01*
X5195476Y-13566576D02*
X5195476Y-13604671D01*
X5271667Y-13566576D02*
X5271667Y-13604671D01*
X5566905Y-13842767D02*
X5557381Y-13833243D01*
X5538333Y-13804671D01*
X5528810Y-13785624D01*
X5519286Y-13757052D01*
X5509762Y-13709433D01*
X5509762Y-13671338D01*
X5519286Y-13623719D01*
X5528810Y-13595148D01*
X5538333Y-13576100D01*
X5557381Y-13547528D01*
X5566905Y-13538005D01*
X5633571Y-13585624D02*
X5643095Y-13576100D01*
X5662143Y-13566576D01*
X5709762Y-13566576D01*
X5728809Y-13576100D01*
X5738333Y-13585624D01*
X5747857Y-13604671D01*
X5747857Y-13623719D01*
X5738333Y-13652290D01*
X5624048Y-13766576D01*
X5747857Y-13766576D01*
X5985952Y-13766576D02*
X5985952Y-13566576D01*
X6071667Y-13766576D02*
X6071667Y-13661814D01*
X6062143Y-13642767D01*
X6043095Y-13633243D01*
X6014524Y-13633243D01*
X5995476Y-13642767D01*
X5985952Y-13652290D01*
X6195476Y-13766576D02*
X6176428Y-13757052D01*
X6166905Y-13747528D01*
X6157381Y-13728481D01*
X6157381Y-13671338D01*
X6166905Y-13652290D01*
X6176428Y-13642767D01*
X6195476Y-13633243D01*
X6224048Y-13633243D01*
X6243095Y-13642767D01*
X6252619Y-13652290D01*
X6262143Y-13671338D01*
X6262143Y-13728481D01*
X6252619Y-13747528D01*
X6243095Y-13757052D01*
X6224048Y-13766576D01*
X6195476Y-13766576D01*
X6376428Y-13766576D02*
X6357381Y-13757052D01*
X6347857Y-13738005D01*
X6347857Y-13566576D01*
X6528809Y-13757052D02*
X6509762Y-13766576D01*
X6471667Y-13766576D01*
X6452619Y-13757052D01*
X6443095Y-13738005D01*
X6443095Y-13661814D01*
X6452619Y-13642767D01*
X6471667Y-13633243D01*
X6509762Y-13633243D01*
X6528809Y-13642767D01*
X6538333Y-13661814D01*
X6538333Y-13680862D01*
X6443095Y-13699909D01*
X6614524Y-13757052D02*
X6633571Y-13766576D01*
X6671667Y-13766576D01*
X6690714Y-13757052D01*
X6700238Y-13738005D01*
X6700238Y-13728481D01*
X6690714Y-13709433D01*
X6671667Y-13699909D01*
X6643095Y-13699909D01*
X6624048Y-13690386D01*
X6614524Y-13671338D01*
X6614524Y-13661814D01*
X6624048Y-13642767D01*
X6643095Y-13633243D01*
X6671667Y-13633243D01*
X6690714Y-13642767D01*
X6766905Y-13842767D02*
X6776428Y-13833243D01*
X6795476Y-13804671D01*
X6805000Y-13785624D01*
X6814524Y-13757052D01*
X6824048Y-13709433D01*
X6824048Y-13671338D01*
X6814524Y-13623719D01*
X6805000Y-13595148D01*
X6795476Y-13576100D01*
X6776428Y-13547528D01*
X6766905Y-13538005D01*
X1795000Y-13896100D02*
X1995000Y-14096100D01*
X1995000Y-13896100D02*
X1795000Y-14096100D01*
X1895000Y-14096100D02*
X1995000Y-13996100D01*
X1895000Y-13896100D01*
X1795000Y-13996100D01*
X1895000Y-14096100D01*
X2233571Y-13886576D02*
X2357381Y-13886576D01*
X2290714Y-13962767D01*
X2319286Y-13962767D01*
X2338333Y-13972290D01*
X2347857Y-13981814D01*
X2357381Y-14000862D01*
X2357381Y-14048481D01*
X2347857Y-14067528D01*
X2338333Y-14077052D01*
X2319286Y-14086576D01*
X2262143Y-14086576D01*
X2243095Y-14077052D01*
X2233571Y-14067528D01*
X2443095Y-14067528D02*
X2452619Y-14077052D01*
X2443095Y-14086576D01*
X2433571Y-14077052D01*
X2443095Y-14067528D01*
X2443095Y-14086576D01*
X2528810Y-13905624D02*
X2538333Y-13896100D01*
X2557381Y-13886576D01*
X2605000Y-13886576D01*
X2624048Y-13896100D01*
X2633571Y-13905624D01*
X2643095Y-13924671D01*
X2643095Y-13943719D01*
X2633571Y-13972290D01*
X2519286Y-14086576D01*
X2643095Y-14086576D01*
X2766905Y-13886576D02*
X2785952Y-13886576D01*
X2805000Y-13896100D01*
X2814524Y-13905624D01*
X2824048Y-13924671D01*
X2833571Y-13962767D01*
X2833571Y-14010386D01*
X2824048Y-14048481D01*
X2814524Y-14067528D01*
X2805000Y-14077052D01*
X2785952Y-14086576D01*
X2766905Y-14086576D01*
X2747857Y-14077052D01*
X2738333Y-14067528D01*
X2728810Y-14048481D01*
X2719286Y-14010386D01*
X2719286Y-13962767D01*
X2728810Y-13924671D01*
X2738333Y-13905624D01*
X2747857Y-13896100D01*
X2766905Y-13886576D01*
X2957381Y-13886576D02*
X2976428Y-13886576D01*
X2995476Y-13896100D01*
X3005000Y-13905624D01*
X3014524Y-13924671D01*
X3024048Y-13962767D01*
X3024048Y-14010386D01*
X3014524Y-14048481D01*
X3005000Y-14067528D01*
X2995476Y-14077052D01*
X2976428Y-14086576D01*
X2957381Y-14086576D01*
X2938333Y-14077052D01*
X2928809Y-14067528D01*
X2919286Y-14048481D01*
X2909762Y-14010386D01*
X2909762Y-13962767D01*
X2919286Y-13924671D01*
X2928809Y-13905624D01*
X2938333Y-13896100D01*
X2957381Y-13886576D01*
X3109762Y-14086576D02*
X3109762Y-13953243D01*
X3109762Y-13972290D02*
X3119286Y-13962767D01*
X3138333Y-13953243D01*
X3166905Y-13953243D01*
X3185952Y-13962767D01*
X3195476Y-13981814D01*
X3195476Y-14086576D01*
X3195476Y-13981814D02*
X3205000Y-13962767D01*
X3224048Y-13953243D01*
X3252619Y-13953243D01*
X3271667Y-13962767D01*
X3281190Y-13981814D01*
X3281190Y-14086576D01*
X3376428Y-14086576D02*
X3376428Y-13953243D01*
X3376428Y-13972290D02*
X3385952Y-13962767D01*
X3405000Y-13953243D01*
X3433571Y-13953243D01*
X3452619Y-13962767D01*
X3462143Y-13981814D01*
X3462143Y-14086576D01*
X3462143Y-13981814D02*
X3471667Y-13962767D01*
X3490714Y-13953243D01*
X3519286Y-13953243D01*
X3538333Y-13962767D01*
X3547857Y-13981814D01*
X3547857Y-14086576D01*
X3938333Y-13877052D02*
X3766905Y-14134195D01*
X4195476Y-13886576D02*
X4214524Y-13886576D01*
X4233571Y-13896100D01*
X4243095Y-13905624D01*
X4252619Y-13924671D01*
X4262143Y-13962767D01*
X4262143Y-14010386D01*
X4252619Y-14048481D01*
X4243095Y-14067528D01*
X4233571Y-14077052D01*
X4214524Y-14086576D01*
X4195476Y-14086576D01*
X4176428Y-14077052D01*
X4166905Y-14067528D01*
X4157381Y-14048481D01*
X4147857Y-14010386D01*
X4147857Y-13962767D01*
X4157381Y-13924671D01*
X4166905Y-13905624D01*
X4176428Y-13896100D01*
X4195476Y-13886576D01*
X4347857Y-14067528D02*
X4357381Y-14077052D01*
X4347857Y-14086576D01*
X4338333Y-14077052D01*
X4347857Y-14067528D01*
X4347857Y-14086576D01*
X4547857Y-14086576D02*
X4433571Y-14086576D01*
X4490714Y-14086576D02*
X4490714Y-13886576D01*
X4471667Y-13915148D01*
X4452619Y-13934195D01*
X4433571Y-13943719D01*
X4624048Y-13905624D02*
X4633571Y-13896100D01*
X4652619Y-13886576D01*
X4700238Y-13886576D01*
X4719286Y-13896100D01*
X4728810Y-13905624D01*
X4738333Y-13924671D01*
X4738333Y-13943719D01*
X4728810Y-13972290D01*
X4614524Y-14086576D01*
X4738333Y-14086576D01*
X4909762Y-13886576D02*
X4871667Y-13886576D01*
X4852619Y-13896100D01*
X4843095Y-13905624D01*
X4824048Y-13934195D01*
X4814524Y-13972290D01*
X4814524Y-14048481D01*
X4824048Y-14067528D01*
X4833571Y-14077052D01*
X4852619Y-14086576D01*
X4890714Y-14086576D01*
X4909762Y-14077052D01*
X4919286Y-14067528D01*
X4928810Y-14048481D01*
X4928810Y-14000862D01*
X4919286Y-13981814D01*
X4909762Y-13972290D01*
X4890714Y-13962767D01*
X4852619Y-13962767D01*
X4833571Y-13972290D01*
X4824048Y-13981814D01*
X4814524Y-14000862D01*
X5052619Y-13886576D02*
X5071667Y-13886576D01*
X5090714Y-13896100D01*
X5100238Y-13905624D01*
X5109762Y-13924671D01*
X5119286Y-13962767D01*
X5119286Y-14010386D01*
X5109762Y-14048481D01*
X5100238Y-14067528D01*
X5090714Y-14077052D01*
X5071667Y-14086576D01*
X5052619Y-14086576D01*
X5033571Y-14077052D01*
X5024048Y-14067528D01*
X5014524Y-14048481D01*
X5005000Y-14010386D01*
X5005000Y-13962767D01*
X5014524Y-13924671D01*
X5024048Y-13905624D01*
X5033571Y-13896100D01*
X5052619Y-13886576D01*
X5195476Y-13886576D02*
X5195476Y-13924671D01*
X5271667Y-13886576D02*
X5271667Y-13924671D01*
X5566905Y-14162767D02*
X5557381Y-14153243D01*
X5538333Y-14124671D01*
X5528810Y-14105624D01*
X5519286Y-14077052D01*
X5509762Y-14029433D01*
X5509762Y-13991338D01*
X5519286Y-13943719D01*
X5528810Y-13915148D01*
X5538333Y-13896100D01*
X5557381Y-13867528D01*
X5566905Y-13858005D01*
X5728809Y-13953243D02*
X5728809Y-14086576D01*
X5681190Y-13877052D02*
X5633571Y-14019909D01*
X5757381Y-14019909D01*
X5985952Y-14086576D02*
X5985952Y-13886576D01*
X6071667Y-14086576D02*
X6071667Y-13981814D01*
X6062143Y-13962767D01*
X6043095Y-13953243D01*
X6014524Y-13953243D01*
X5995476Y-13962767D01*
X5985952Y-13972290D01*
X6195476Y-14086576D02*
X6176428Y-14077052D01*
X6166905Y-14067528D01*
X6157381Y-14048481D01*
X6157381Y-13991338D01*
X6166905Y-13972290D01*
X6176428Y-13962767D01*
X6195476Y-13953243D01*
X6224048Y-13953243D01*
X6243095Y-13962767D01*
X6252619Y-13972290D01*
X6262143Y-13991338D01*
X6262143Y-14048481D01*
X6252619Y-14067528D01*
X6243095Y-14077052D01*
X6224048Y-14086576D01*
X6195476Y-14086576D01*
X6376428Y-14086576D02*
X6357381Y-14077052D01*
X6347857Y-14058005D01*
X6347857Y-13886576D01*
X6528809Y-14077052D02*
X6509762Y-14086576D01*
X6471667Y-14086576D01*
X6452619Y-14077052D01*
X6443095Y-14058005D01*
X6443095Y-13981814D01*
X6452619Y-13962767D01*
X6471667Y-13953243D01*
X6509762Y-13953243D01*
X6528809Y-13962767D01*
X6538333Y-13981814D01*
X6538333Y-14000862D01*
X6443095Y-14019909D01*
X6614524Y-14077052D02*
X6633571Y-14086576D01*
X6671667Y-14086576D01*
X6690714Y-14077052D01*
X6700238Y-14058005D01*
X6700238Y-14048481D01*
X6690714Y-14029433D01*
X6671667Y-14019909D01*
X6643095Y-14019909D01*
X6624048Y-14010386D01*
X6614524Y-13991338D01*
X6614524Y-13981814D01*
X6624048Y-13962767D01*
X6643095Y-13953243D01*
X6671667Y-13953243D01*
X6690714Y-13962767D01*
X6766905Y-14162767D02*
X6776428Y-14153243D01*
X6795476Y-14124671D01*
X6805000Y-14105624D01*
X6814524Y-14077052D01*
X6824048Y-14029433D01*
X6824048Y-13991338D01*
X6814524Y-13943719D01*
X6805000Y-13915148D01*
X6795476Y-13896100D01*
X6776428Y-13867528D01*
X6766905Y-13858005D01*
M02*
