%TF.GenerationSoftware,KiCad,Pcbnew,(6.0.10-0)*%
%TF.CreationDate,2023-02-08T11:04:04+05:30*%
%TF.ProjectId,dbe_dcdc,6462655f-6463-4646-932e-6b696361645f,rev?*%
%TF.SameCoordinates,Original*%
%TF.FileFunction,Soldermask,Bot*%
%TF.FilePolarity,Negative*%
%FSLAX46Y46*%
G04 Gerber Fmt 4.6, Leading zero omitted, Abs format (unit mm)*
G04 Created by KiCad (PCBNEW (6.0.10-0)) date 2023-02-08 11:04:04*
%MOMM*%
%LPD*%
G01*
G04 APERTURE LIST*
%ADD10C,3.800000*%
%ADD11C,2.600000*%
%ADD12C,5.000000*%
%ADD13C,2.900000*%
%ADD14R,1.700000X1.700000*%
%ADD15O,1.700000X1.700000*%
%ADD16C,3.302000*%
%ADD17C,4.318000*%
%ADD18C,1.524000*%
%ADD19C,3.600000*%
%ADD20C,6.400000*%
%ADD21R,2.400000X2.400000*%
%ADD22C,2.400000*%
G04 APERTURE END LIST*
D10*
%TO.C,+VDC*%
X26750000Y-79000000D03*
D11*
X26750000Y-79000000D03*
%TD*%
D12*
%TO.C,GND*%
X165000000Y-102000000D03*
D13*
X165000000Y-102000000D03*
%TD*%
D10*
%TO.C,OUT_GND*%
X144750000Y-103000000D03*
D11*
X144750000Y-103000000D03*
%TD*%
D14*
%TO.C,PMBUS*%
X144500000Y-72000000D03*
D15*
X144500000Y-69460000D03*
X147040000Y-72000000D03*
X147040000Y-69460000D03*
X149580000Y-72000000D03*
X149580000Y-69460000D03*
X152120000Y-72000000D03*
X152120000Y-69460000D03*
%TD*%
D16*
%TO.C,U1*%
X113293250Y-78833250D03*
X113293250Y-86453250D03*
X113293250Y-94073250D03*
D17*
X164093250Y-94073250D03*
D18*
X163102650Y-90466450D03*
X165083850Y-90466450D03*
X163102650Y-88459850D03*
X165083850Y-88459850D03*
X163102650Y-86453250D03*
X165083850Y-86453250D03*
X163102650Y-84446650D03*
X165083850Y-84446650D03*
X163102650Y-82440050D03*
X165083850Y-82440050D03*
D17*
X164093250Y-78833250D03*
%TD*%
D19*
%TO.C,M1*%
X55000000Y-65000000D03*
D20*
X55000000Y-65000000D03*
%TD*%
D14*
%TO.C,JP1*%
X116610000Y-102870000D03*
D15*
X119150000Y-102870000D03*
%TD*%
D13*
%TO.C,+12V*%
X165000000Y-71000000D03*
D12*
X165000000Y-71000000D03*
%TD*%
D10*
%TO.C,-VDC*%
X26750000Y-94000000D03*
D11*
X26750000Y-94000000D03*
%TD*%
D19*
%TO.C,CHASSIS*%
X156500000Y-65000000D03*
D20*
X156500000Y-65000000D03*
%TD*%
%TO.C,M2*%
X55000000Y-106000000D03*
D19*
X55000000Y-106000000D03*
%TD*%
D10*
%TO.C,IN_GND*%
X127000000Y-103000000D03*
D11*
X127000000Y-103000000D03*
%TD*%
D21*
%TO.C,C11*%
X101600000Y-83740000D03*
D22*
X101600000Y-88740000D03*
%TD*%
D20*
%TO.C,CHASSIS*%
X156500000Y-106000000D03*
D19*
X156500000Y-106000000D03*
%TD*%
M02*
