%TF.GenerationSoftware,KiCad,Pcbnew,(6.0.10-0)*%
%TF.CreationDate,2023-02-08T11:04:04+05:30*%
%TF.ProjectId,dbe_dcdc,6462655f-6463-4646-932e-6b696361645f,rev?*%
%TF.SameCoordinates,Original*%
%TF.FileFunction,Legend,Top*%
%TF.FilePolarity,Positive*%
%FSLAX46Y46*%
G04 Gerber Fmt 4.6, Leading zero omitted, Abs format (unit mm)*
G04 Created by KiCad (PCBNEW (6.0.10-0)) date 2023-02-08 11:04:04*
%MOMM*%
%LPD*%
G01*
G04 APERTURE LIST*
%ADD10C,0.300000*%
%ADD11C,0.150000*%
%ADD12C,0.254000*%
%ADD13C,0.120000*%
%ADD14C,0.100000*%
G04 APERTURE END LIST*
D10*
X128035714Y-107428571D02*
X128035714Y-105928571D01*
X128678571Y-107357142D02*
X128821428Y-107428571D01*
X129107142Y-107428571D01*
X129250000Y-107357142D01*
X129321428Y-107214285D01*
X129321428Y-107142857D01*
X129250000Y-107000000D01*
X129107142Y-106928571D01*
X128892857Y-106928571D01*
X128750000Y-106857142D01*
X128678571Y-106714285D01*
X128678571Y-106642857D01*
X128750000Y-106500000D01*
X128892857Y-106428571D01*
X129107142Y-106428571D01*
X129250000Y-106500000D01*
X130178571Y-107428571D02*
X130035714Y-107357142D01*
X129964285Y-107285714D01*
X129892857Y-107142857D01*
X129892857Y-106714285D01*
X129964285Y-106571428D01*
X130035714Y-106500000D01*
X130178571Y-106428571D01*
X130392857Y-106428571D01*
X130535714Y-106500000D01*
X130607142Y-106571428D01*
X130678571Y-106714285D01*
X130678571Y-107142857D01*
X130607142Y-107285714D01*
X130535714Y-107357142D01*
X130392857Y-107428571D01*
X130178571Y-107428571D01*
X131535714Y-107428571D02*
X131392857Y-107357142D01*
X131321428Y-107214285D01*
X131321428Y-105928571D01*
X132750000Y-107428571D02*
X132750000Y-106642857D01*
X132678571Y-106500000D01*
X132535714Y-106428571D01*
X132250000Y-106428571D01*
X132107142Y-106500000D01*
X132750000Y-107357142D02*
X132607142Y-107428571D01*
X132250000Y-107428571D01*
X132107142Y-107357142D01*
X132035714Y-107214285D01*
X132035714Y-107071428D01*
X132107142Y-106928571D01*
X132250000Y-106857142D01*
X132607142Y-106857142D01*
X132750000Y-106785714D01*
X133250000Y-106428571D02*
X133821428Y-106428571D01*
X133464285Y-105928571D02*
X133464285Y-107214285D01*
X133535714Y-107357142D01*
X133678571Y-107428571D01*
X133821428Y-107428571D01*
X134321428Y-107428571D02*
X134321428Y-106428571D01*
X134321428Y-105928571D02*
X134250000Y-106000000D01*
X134321428Y-106071428D01*
X134392857Y-106000000D01*
X134321428Y-105928571D01*
X134321428Y-106071428D01*
X135250000Y-107428571D02*
X135107142Y-107357142D01*
X135035714Y-107285714D01*
X134964285Y-107142857D01*
X134964285Y-106714285D01*
X135035714Y-106571428D01*
X135107142Y-106500000D01*
X135250000Y-106428571D01*
X135464285Y-106428571D01*
X135607142Y-106500000D01*
X135678571Y-106571428D01*
X135750000Y-106714285D01*
X135750000Y-107142857D01*
X135678571Y-107285714D01*
X135607142Y-107357142D01*
X135464285Y-107428571D01*
X135250000Y-107428571D01*
X136392857Y-106428571D02*
X136392857Y-107428571D01*
X136392857Y-106571428D02*
X136464285Y-106500000D01*
X136607142Y-106428571D01*
X136821428Y-106428571D01*
X136964285Y-106500000D01*
X137035714Y-106642857D01*
X137035714Y-107428571D01*
X138892857Y-107428571D02*
X138892857Y-105928571D01*
X139464285Y-105928571D01*
X139607142Y-106000000D01*
X139678571Y-106071428D01*
X139750000Y-106214285D01*
X139750000Y-106428571D01*
X139678571Y-106571428D01*
X139607142Y-106642857D01*
X139464285Y-106714285D01*
X138892857Y-106714285D01*
X140607142Y-107428571D02*
X140464285Y-107357142D01*
X140392857Y-107285714D01*
X140321428Y-107142857D01*
X140321428Y-106714285D01*
X140392857Y-106571428D01*
X140464285Y-106500000D01*
X140607142Y-106428571D01*
X140821428Y-106428571D01*
X140964285Y-106500000D01*
X141035714Y-106571428D01*
X141107142Y-106714285D01*
X141107142Y-107142857D01*
X141035714Y-107285714D01*
X140964285Y-107357142D01*
X140821428Y-107428571D01*
X140607142Y-107428571D01*
X141750000Y-107428571D02*
X141750000Y-106428571D01*
X141750000Y-105928571D02*
X141678571Y-106000000D01*
X141750000Y-106071428D01*
X141821428Y-106000000D01*
X141750000Y-105928571D01*
X141750000Y-106071428D01*
X142464285Y-106428571D02*
X142464285Y-107428571D01*
X142464285Y-106571428D02*
X142535714Y-106500000D01*
X142678571Y-106428571D01*
X142892857Y-106428571D01*
X143035714Y-106500000D01*
X143107142Y-106642857D01*
X143107142Y-107428571D01*
X143607142Y-106428571D02*
X144178571Y-106428571D01*
X143821428Y-105928571D02*
X143821428Y-107214285D01*
X143892857Y-107357142D01*
X144035714Y-107428571D01*
X144178571Y-107428571D01*
X91730714Y-104826857D02*
X91730714Y-103626857D01*
X92016428Y-103626857D01*
X92187857Y-103684000D01*
X92302142Y-103798285D01*
X92359285Y-103912571D01*
X92416428Y-104141142D01*
X92416428Y-104312571D01*
X92359285Y-104541142D01*
X92302142Y-104655428D01*
X92187857Y-104769714D01*
X92016428Y-104826857D01*
X91730714Y-104826857D01*
X93616428Y-104712571D02*
X93559285Y-104769714D01*
X93387857Y-104826857D01*
X93273571Y-104826857D01*
X93102142Y-104769714D01*
X92987857Y-104655428D01*
X92930714Y-104541142D01*
X92873571Y-104312571D01*
X92873571Y-104141142D01*
X92930714Y-103912571D01*
X92987857Y-103798285D01*
X93102142Y-103684000D01*
X93273571Y-103626857D01*
X93387857Y-103626857D01*
X93559285Y-103684000D01*
X93616428Y-103741142D01*
X94130714Y-104369714D02*
X95045000Y-104369714D01*
X95616428Y-104826857D02*
X95616428Y-103626857D01*
X95902142Y-103626857D01*
X96073571Y-103684000D01*
X96187857Y-103798285D01*
X96245000Y-103912571D01*
X96302142Y-104141142D01*
X96302142Y-104312571D01*
X96245000Y-104541142D01*
X96187857Y-104655428D01*
X96073571Y-104769714D01*
X95902142Y-104826857D01*
X95616428Y-104826857D01*
X97502142Y-104712571D02*
X97445000Y-104769714D01*
X97273571Y-104826857D01*
X97159285Y-104826857D01*
X96987857Y-104769714D01*
X96873571Y-104655428D01*
X96816428Y-104541142D01*
X96759285Y-104312571D01*
X96759285Y-104141142D01*
X96816428Y-103912571D01*
X96873571Y-103798285D01*
X96987857Y-103684000D01*
X97159285Y-103626857D01*
X97273571Y-103626857D01*
X97445000Y-103684000D01*
X97502142Y-103741142D01*
X98873571Y-103741142D02*
X98930714Y-103684000D01*
X99045000Y-103626857D01*
X99330714Y-103626857D01*
X99445000Y-103684000D01*
X99502142Y-103741142D01*
X99559285Y-103855428D01*
X99559285Y-103969714D01*
X99502142Y-104141142D01*
X98816428Y-104826857D01*
X99559285Y-104826857D01*
X100073571Y-104712571D02*
X100130714Y-104769714D01*
X100073571Y-104826857D01*
X100016428Y-104769714D01*
X100073571Y-104712571D01*
X100073571Y-104826857D01*
X100873571Y-103626857D02*
X100987857Y-103626857D01*
X101102142Y-103684000D01*
X101159285Y-103741142D01*
X101216428Y-103855428D01*
X101273571Y-104084000D01*
X101273571Y-104369714D01*
X101216428Y-104598285D01*
X101159285Y-104712571D01*
X101102142Y-104769714D01*
X100987857Y-104826857D01*
X100873571Y-104826857D01*
X100759285Y-104769714D01*
X100702142Y-104712571D01*
X100645000Y-104598285D01*
X100587857Y-104369714D01*
X100587857Y-104084000D01*
X100645000Y-103855428D01*
X100702142Y-103741142D01*
X100759285Y-103684000D01*
X100873571Y-103626857D01*
X91673571Y-106701714D02*
X91845000Y-106758857D01*
X92130714Y-106758857D01*
X92245000Y-106701714D01*
X92302142Y-106644571D01*
X92359285Y-106530285D01*
X92359285Y-106416000D01*
X92302142Y-106301714D01*
X92245000Y-106244571D01*
X92130714Y-106187428D01*
X91902142Y-106130285D01*
X91787857Y-106073142D01*
X91730714Y-106016000D01*
X91673571Y-105901714D01*
X91673571Y-105787428D01*
X91730714Y-105673142D01*
X91787857Y-105616000D01*
X91902142Y-105558857D01*
X92187857Y-105558857D01*
X92359285Y-105616000D01*
X92702142Y-105958857D02*
X93159285Y-105958857D01*
X92873571Y-105558857D02*
X92873571Y-106587428D01*
X92930714Y-106701714D01*
X93045000Y-106758857D01*
X93159285Y-106758857D01*
X94073571Y-106758857D02*
X94073571Y-106130285D01*
X94016428Y-106016000D01*
X93902142Y-105958857D01*
X93673571Y-105958857D01*
X93559285Y-106016000D01*
X94073571Y-106701714D02*
X93959285Y-106758857D01*
X93673571Y-106758857D01*
X93559285Y-106701714D01*
X93502142Y-106587428D01*
X93502142Y-106473142D01*
X93559285Y-106358857D01*
X93673571Y-106301714D01*
X93959285Y-106301714D01*
X94073571Y-106244571D01*
X94645000Y-106758857D02*
X94645000Y-105958857D01*
X94645000Y-106187428D02*
X94702142Y-106073142D01*
X94759285Y-106016000D01*
X94873571Y-105958857D01*
X94987857Y-105958857D01*
X95273571Y-105958857D02*
X95559285Y-106758857D01*
X95845000Y-105958857D02*
X95559285Y-106758857D01*
X95445000Y-107044571D01*
X95387857Y-107101714D01*
X95273571Y-107158857D01*
X96816428Y-106758857D02*
X96816428Y-106130285D01*
X96759285Y-106016000D01*
X96645000Y-105958857D01*
X96416428Y-105958857D01*
X96302142Y-106016000D01*
X96816428Y-106701714D02*
X96702142Y-106758857D01*
X96416428Y-106758857D01*
X96302142Y-106701714D01*
X96245000Y-106587428D01*
X96245000Y-106473142D01*
X96302142Y-106358857D01*
X96416428Y-106301714D01*
X96702142Y-106301714D01*
X96816428Y-106244571D01*
X98302142Y-106758857D02*
X98302142Y-105558857D01*
X98702142Y-106416000D01*
X99102142Y-105558857D01*
X99102142Y-106758857D01*
X99845000Y-106758857D02*
X99730714Y-106701714D01*
X99673571Y-106644571D01*
X99616428Y-106530285D01*
X99616428Y-106187428D01*
X99673571Y-106073142D01*
X99730714Y-106016000D01*
X99845000Y-105958857D01*
X100016428Y-105958857D01*
X100130714Y-106016000D01*
X100187857Y-106073142D01*
X100245000Y-106187428D01*
X100245000Y-106530285D01*
X100187857Y-106644571D01*
X100130714Y-106701714D01*
X100016428Y-106758857D01*
X99845000Y-106758857D01*
X100759285Y-106758857D02*
X100759285Y-105558857D01*
X100759285Y-106016000D02*
X100873571Y-105958857D01*
X101102142Y-105958857D01*
X101216428Y-106016000D01*
X101273571Y-106073142D01*
X101330714Y-106187428D01*
X101330714Y-106530285D01*
X101273571Y-106644571D01*
X101216428Y-106701714D01*
X101102142Y-106758857D01*
X100873571Y-106758857D01*
X100759285Y-106701714D01*
X101845000Y-106758857D02*
X101845000Y-105958857D01*
X101845000Y-105558857D02*
X101787857Y-105616000D01*
X101845000Y-105673142D01*
X101902142Y-105616000D01*
X101845000Y-105558857D01*
X101845000Y-105673142D01*
X102587857Y-106758857D02*
X102473571Y-106701714D01*
X102416428Y-106587428D01*
X102416428Y-105558857D01*
X103045000Y-106758857D02*
X103045000Y-105958857D01*
X103045000Y-105558857D02*
X102987857Y-105616000D01*
X103045000Y-105673142D01*
X103102142Y-105616000D01*
X103045000Y-105558857D01*
X103045000Y-105673142D01*
X103445000Y-105958857D02*
X103902142Y-105958857D01*
X103616428Y-105558857D02*
X103616428Y-106587428D01*
X103673571Y-106701714D01*
X103787857Y-106758857D01*
X103902142Y-106758857D01*
X104187857Y-105958857D02*
X104473571Y-106758857D01*
X104759285Y-105958857D02*
X104473571Y-106758857D01*
X104359285Y-107044571D01*
X104302142Y-107101714D01*
X104187857Y-107158857D01*
X106130714Y-106758857D02*
X106130714Y-105558857D01*
X106587857Y-105558857D01*
X106702142Y-105616000D01*
X106759285Y-105673142D01*
X106816428Y-105787428D01*
X106816428Y-105958857D01*
X106759285Y-106073142D01*
X106702142Y-106130285D01*
X106587857Y-106187428D01*
X106130714Y-106187428D01*
X107330714Y-106758857D02*
X107330714Y-105958857D01*
X107330714Y-106187428D02*
X107387857Y-106073142D01*
X107445000Y-106016000D01*
X107559285Y-105958857D01*
X107673571Y-105958857D01*
X108073571Y-106758857D02*
X108073571Y-105958857D01*
X108073571Y-105558857D02*
X108016428Y-105616000D01*
X108073571Y-105673142D01*
X108130714Y-105616000D01*
X108073571Y-105558857D01*
X108073571Y-105673142D01*
X108530714Y-105958857D02*
X108816428Y-106758857D01*
X109102142Y-105958857D01*
X110073571Y-106758857D02*
X110073571Y-106130285D01*
X110016428Y-106016000D01*
X109902142Y-105958857D01*
X109673571Y-105958857D01*
X109559285Y-106016000D01*
X110073571Y-106701714D02*
X109959285Y-106758857D01*
X109673571Y-106758857D01*
X109559285Y-106701714D01*
X109502142Y-106587428D01*
X109502142Y-106473142D01*
X109559285Y-106358857D01*
X109673571Y-106301714D01*
X109959285Y-106301714D01*
X110073571Y-106244571D01*
X110473571Y-105958857D02*
X110930714Y-105958857D01*
X110645000Y-105558857D02*
X110645000Y-106587428D01*
X110702142Y-106701714D01*
X110816428Y-106758857D01*
X110930714Y-106758857D01*
X111787857Y-106701714D02*
X111673571Y-106758857D01*
X111445000Y-106758857D01*
X111330714Y-106701714D01*
X111273571Y-106587428D01*
X111273571Y-106130285D01*
X111330714Y-106016000D01*
X111445000Y-105958857D01*
X111673571Y-105958857D01*
X111787857Y-106016000D01*
X111845000Y-106130285D01*
X111845000Y-106244571D01*
X111273571Y-106358857D01*
X113845000Y-106758857D02*
X113273571Y-106758857D01*
X113273571Y-105558857D01*
X114245000Y-106758857D02*
X114245000Y-105958857D01*
X114245000Y-105558857D02*
X114187857Y-105616000D01*
X114245000Y-105673142D01*
X114302142Y-105616000D01*
X114245000Y-105558857D01*
X114245000Y-105673142D01*
X114816428Y-106758857D02*
X114816428Y-105958857D01*
X114816428Y-106073142D02*
X114873571Y-106016000D01*
X114987857Y-105958857D01*
X115159285Y-105958857D01*
X115273571Y-106016000D01*
X115330714Y-106130285D01*
X115330714Y-106758857D01*
X115330714Y-106130285D02*
X115387857Y-106016000D01*
X115502142Y-105958857D01*
X115673571Y-105958857D01*
X115787857Y-106016000D01*
X115845000Y-106130285D01*
X115845000Y-106758857D01*
X116416428Y-106758857D02*
X116416428Y-105958857D01*
X116416428Y-105558857D02*
X116359285Y-105616000D01*
X116416428Y-105673142D01*
X116473571Y-105616000D01*
X116416428Y-105558857D01*
X116416428Y-105673142D01*
X116816428Y-105958857D02*
X117273571Y-105958857D01*
X116987857Y-105558857D02*
X116987857Y-106587428D01*
X117045000Y-106701714D01*
X117159285Y-106758857D01*
X117273571Y-106758857D01*
X118130714Y-106701714D02*
X118016428Y-106758857D01*
X117787857Y-106758857D01*
X117673571Y-106701714D01*
X117616428Y-106587428D01*
X117616428Y-106130285D01*
X117673571Y-106016000D01*
X117787857Y-105958857D01*
X118016428Y-105958857D01*
X118130714Y-106016000D01*
X118187857Y-106130285D01*
X118187857Y-106244571D01*
X117616428Y-106358857D01*
X119216428Y-106758857D02*
X119216428Y-105558857D01*
X119216428Y-106701714D02*
X119102142Y-106758857D01*
X118873571Y-106758857D01*
X118759285Y-106701714D01*
X118702142Y-106644571D01*
X118645000Y-106530285D01*
X118645000Y-106187428D01*
X118702142Y-106073142D01*
X118759285Y-106016000D01*
X118873571Y-105958857D01*
X119102142Y-105958857D01*
X119216428Y-106016000D01*
D11*
%TO.C,C8*%
X75107142Y-104416666D02*
X75154761Y-104464285D01*
X75202380Y-104607142D01*
X75202380Y-104702380D01*
X75154761Y-104845238D01*
X75059523Y-104940476D01*
X74964285Y-104988095D01*
X74773809Y-105035714D01*
X74630952Y-105035714D01*
X74440476Y-104988095D01*
X74345238Y-104940476D01*
X74250000Y-104845238D01*
X74202380Y-104702380D01*
X74202380Y-104607142D01*
X74250000Y-104464285D01*
X74297619Y-104416666D01*
X74630952Y-103845238D02*
X74583333Y-103940476D01*
X74535714Y-103988095D01*
X74440476Y-104035714D01*
X74392857Y-104035714D01*
X74297619Y-103988095D01*
X74250000Y-103940476D01*
X74202380Y-103845238D01*
X74202380Y-103654761D01*
X74250000Y-103559523D01*
X74297619Y-103511904D01*
X74392857Y-103464285D01*
X74440476Y-103464285D01*
X74535714Y-103511904D01*
X74583333Y-103559523D01*
X74630952Y-103654761D01*
X74630952Y-103845238D01*
X74678571Y-103940476D01*
X74726190Y-103988095D01*
X74821428Y-104035714D01*
X75011904Y-104035714D01*
X75107142Y-103988095D01*
X75154761Y-103940476D01*
X75202380Y-103845238D01*
X75202380Y-103654761D01*
X75154761Y-103559523D01*
X75107142Y-103511904D01*
X75011904Y-103464285D01*
X74821428Y-103464285D01*
X74726190Y-103511904D01*
X74678571Y-103559523D01*
X74630952Y-103654761D01*
%TO.C,+VDC*%
X29690476Y-81071428D02*
X30452380Y-81071428D01*
X30071428Y-81452380D02*
X30071428Y-80690476D01*
X30785714Y-80452380D02*
X31119047Y-81452380D01*
X31452380Y-80452380D01*
X31785714Y-81452380D02*
X31785714Y-80452380D01*
X32023809Y-80452380D01*
X32166666Y-80500000D01*
X32261904Y-80595238D01*
X32309523Y-80690476D01*
X32357142Y-80880952D01*
X32357142Y-81023809D01*
X32309523Y-81214285D01*
X32261904Y-81309523D01*
X32166666Y-81404761D01*
X32023809Y-81452380D01*
X31785714Y-81452380D01*
X33357142Y-81357142D02*
X33309523Y-81404761D01*
X33166666Y-81452380D01*
X33071428Y-81452380D01*
X32928571Y-81404761D01*
X32833333Y-81309523D01*
X32785714Y-81214285D01*
X32738095Y-81023809D01*
X32738095Y-80880952D01*
X32785714Y-80690476D01*
X32833333Y-80595238D01*
X32928571Y-80500000D01*
X33071428Y-80452380D01*
X33166666Y-80452380D01*
X33309523Y-80500000D01*
X33357142Y-80547619D01*
%TO.C,GND*%
X164238095Y-105750000D02*
X164142857Y-105702380D01*
X164000000Y-105702380D01*
X163857142Y-105750000D01*
X163761904Y-105845238D01*
X163714285Y-105940476D01*
X163666666Y-106130952D01*
X163666666Y-106273809D01*
X163714285Y-106464285D01*
X163761904Y-106559523D01*
X163857142Y-106654761D01*
X164000000Y-106702380D01*
X164095238Y-106702380D01*
X164238095Y-106654761D01*
X164285714Y-106607142D01*
X164285714Y-106273809D01*
X164095238Y-106273809D01*
X164714285Y-106702380D02*
X164714285Y-105702380D01*
X165285714Y-106702380D01*
X165285714Y-105702380D01*
X165761904Y-106702380D02*
X165761904Y-105702380D01*
X166000000Y-105702380D01*
X166142857Y-105750000D01*
X166238095Y-105845238D01*
X166285714Y-105940476D01*
X166333333Y-106130952D01*
X166333333Y-106273809D01*
X166285714Y-106464285D01*
X166238095Y-106559523D01*
X166142857Y-106654761D01*
X166000000Y-106702380D01*
X165761904Y-106702380D01*
%TO.C,C5*%
X63083333Y-90607142D02*
X63035714Y-90654761D01*
X62892857Y-90702380D01*
X62797619Y-90702380D01*
X62654761Y-90654761D01*
X62559523Y-90559523D01*
X62511904Y-90464285D01*
X62464285Y-90273809D01*
X62464285Y-90130952D01*
X62511904Y-89940476D01*
X62559523Y-89845238D01*
X62654761Y-89750000D01*
X62797619Y-89702380D01*
X62892857Y-89702380D01*
X63035714Y-89750000D01*
X63083333Y-89797619D01*
X63988095Y-89702380D02*
X63511904Y-89702380D01*
X63464285Y-90178571D01*
X63511904Y-90130952D01*
X63607142Y-90083333D01*
X63845238Y-90083333D01*
X63940476Y-90130952D01*
X63988095Y-90178571D01*
X64035714Y-90273809D01*
X64035714Y-90511904D01*
X63988095Y-90607142D01*
X63940476Y-90654761D01*
X63845238Y-90702380D01*
X63607142Y-90702380D01*
X63511904Y-90654761D01*
X63464285Y-90607142D01*
D12*
%TO.C,FL1*%
X37812619Y-72159285D02*
X37389285Y-72159285D01*
X37389285Y-72824523D02*
X37389285Y-71554523D01*
X37994047Y-71554523D01*
X39082619Y-72824523D02*
X38477857Y-72824523D01*
X38477857Y-71554523D01*
X40171190Y-72824523D02*
X39445476Y-72824523D01*
X39808333Y-72824523D02*
X39808333Y-71554523D01*
X39687380Y-71735952D01*
X39566428Y-71856904D01*
X39445476Y-71917380D01*
D11*
%TO.C,C4*%
X75207142Y-68746666D02*
X75254761Y-68794285D01*
X75302380Y-68937142D01*
X75302380Y-69032380D01*
X75254761Y-69175238D01*
X75159523Y-69270476D01*
X75064285Y-69318095D01*
X74873809Y-69365714D01*
X74730952Y-69365714D01*
X74540476Y-69318095D01*
X74445238Y-69270476D01*
X74350000Y-69175238D01*
X74302380Y-69032380D01*
X74302380Y-68937142D01*
X74350000Y-68794285D01*
X74397619Y-68746666D01*
X74635714Y-67889523D02*
X75302380Y-67889523D01*
X74254761Y-68127619D02*
X74969047Y-68365714D01*
X74969047Y-67746666D01*
%TO.C,OUT_GND*%
X137595238Y-99452380D02*
X137785714Y-99452380D01*
X137880952Y-99500000D01*
X137976190Y-99595238D01*
X138023809Y-99785714D01*
X138023809Y-100119047D01*
X137976190Y-100309523D01*
X137880952Y-100404761D01*
X137785714Y-100452380D01*
X137595238Y-100452380D01*
X137500000Y-100404761D01*
X137404761Y-100309523D01*
X137357142Y-100119047D01*
X137357142Y-99785714D01*
X137404761Y-99595238D01*
X137500000Y-99500000D01*
X137595238Y-99452380D01*
X138452380Y-99452380D02*
X138452380Y-100261904D01*
X138500000Y-100357142D01*
X138547619Y-100404761D01*
X138642857Y-100452380D01*
X138833333Y-100452380D01*
X138928571Y-100404761D01*
X138976190Y-100357142D01*
X139023809Y-100261904D01*
X139023809Y-99452380D01*
X139357142Y-99452380D02*
X139928571Y-99452380D01*
X139642857Y-100452380D02*
X139642857Y-99452380D01*
X140023809Y-100547619D02*
X140785714Y-100547619D01*
X141547619Y-99500000D02*
X141452380Y-99452380D01*
X141309523Y-99452380D01*
X141166666Y-99500000D01*
X141071428Y-99595238D01*
X141023809Y-99690476D01*
X140976190Y-99880952D01*
X140976190Y-100023809D01*
X141023809Y-100214285D01*
X141071428Y-100309523D01*
X141166666Y-100404761D01*
X141309523Y-100452380D01*
X141404761Y-100452380D01*
X141547619Y-100404761D01*
X141595238Y-100357142D01*
X141595238Y-100023809D01*
X141404761Y-100023809D01*
X142023809Y-100452380D02*
X142023809Y-99452380D01*
X142595238Y-100452380D01*
X142595238Y-99452380D01*
X143071428Y-100452380D02*
X143071428Y-99452380D01*
X143309523Y-99452380D01*
X143452380Y-99500000D01*
X143547619Y-99595238D01*
X143595238Y-99690476D01*
X143642857Y-99880952D01*
X143642857Y-100023809D01*
X143595238Y-100214285D01*
X143547619Y-100309523D01*
X143452380Y-100404761D01*
X143309523Y-100452380D01*
X143071428Y-100452380D01*
%TO.C,PMBUS*%
X142916666Y-67202380D02*
X142916666Y-66202380D01*
X143297619Y-66202380D01*
X143392857Y-66250000D01*
X143440476Y-66297619D01*
X143488095Y-66392857D01*
X143488095Y-66535714D01*
X143440476Y-66630952D01*
X143392857Y-66678571D01*
X143297619Y-66726190D01*
X142916666Y-66726190D01*
X143916666Y-67202380D02*
X143916666Y-66202380D01*
X144250000Y-66916666D01*
X144583333Y-66202380D01*
X144583333Y-67202380D01*
X145392857Y-66678571D02*
X145535714Y-66726190D01*
X145583333Y-66773809D01*
X145630952Y-66869047D01*
X145630952Y-67011904D01*
X145583333Y-67107142D01*
X145535714Y-67154761D01*
X145440476Y-67202380D01*
X145059523Y-67202380D01*
X145059523Y-66202380D01*
X145392857Y-66202380D01*
X145488095Y-66250000D01*
X145535714Y-66297619D01*
X145583333Y-66392857D01*
X145583333Y-66488095D01*
X145535714Y-66583333D01*
X145488095Y-66630952D01*
X145392857Y-66678571D01*
X145059523Y-66678571D01*
X146059523Y-66202380D02*
X146059523Y-67011904D01*
X146107142Y-67107142D01*
X146154761Y-67154761D01*
X146250000Y-67202380D01*
X146440476Y-67202380D01*
X146535714Y-67154761D01*
X146583333Y-67107142D01*
X146630952Y-67011904D01*
X146630952Y-66202380D01*
X147059523Y-67154761D02*
X147202380Y-67202380D01*
X147440476Y-67202380D01*
X147535714Y-67154761D01*
X147583333Y-67107142D01*
X147630952Y-67011904D01*
X147630952Y-66916666D01*
X147583333Y-66821428D01*
X147535714Y-66773809D01*
X147440476Y-66726190D01*
X147250000Y-66678571D01*
X147154761Y-66630952D01*
X147107142Y-66583333D01*
X147059523Y-66488095D01*
X147059523Y-66392857D01*
X147107142Y-66297619D01*
X147154761Y-66250000D01*
X147250000Y-66202380D01*
X147488095Y-66202380D01*
X147630952Y-66250000D01*
%TO.C,R6*%
X149202380Y-104416666D02*
X148726190Y-104750000D01*
X149202380Y-104988095D02*
X148202380Y-104988095D01*
X148202380Y-104607142D01*
X148250000Y-104511904D01*
X148297619Y-104464285D01*
X148392857Y-104416666D01*
X148535714Y-104416666D01*
X148630952Y-104464285D01*
X148678571Y-104511904D01*
X148726190Y-104607142D01*
X148726190Y-104988095D01*
X148202380Y-103559523D02*
X148202380Y-103750000D01*
X148250000Y-103845238D01*
X148297619Y-103892857D01*
X148440476Y-103988095D01*
X148630952Y-104035714D01*
X149011904Y-104035714D01*
X149107142Y-103988095D01*
X149154761Y-103940476D01*
X149202380Y-103845238D01*
X149202380Y-103654761D01*
X149154761Y-103559523D01*
X149107142Y-103511904D01*
X149011904Y-103464285D01*
X148773809Y-103464285D01*
X148678571Y-103511904D01*
X148630952Y-103559523D01*
X148583333Y-103654761D01*
X148583333Y-103845238D01*
X148630952Y-103940476D01*
X148678571Y-103988095D01*
X148773809Y-104035714D01*
%TO.C,C9*%
X83607142Y-104416666D02*
X83654761Y-104464285D01*
X83702380Y-104607142D01*
X83702380Y-104702380D01*
X83654761Y-104845238D01*
X83559523Y-104940476D01*
X83464285Y-104988095D01*
X83273809Y-105035714D01*
X83130952Y-105035714D01*
X82940476Y-104988095D01*
X82845238Y-104940476D01*
X82750000Y-104845238D01*
X82702380Y-104702380D01*
X82702380Y-104607142D01*
X82750000Y-104464285D01*
X82797619Y-104416666D01*
X83702380Y-103940476D02*
X83702380Y-103750000D01*
X83654761Y-103654761D01*
X83607142Y-103607142D01*
X83464285Y-103511904D01*
X83273809Y-103464285D01*
X82892857Y-103464285D01*
X82797619Y-103511904D01*
X82750000Y-103559523D01*
X82702380Y-103654761D01*
X82702380Y-103845238D01*
X82750000Y-103940476D01*
X82797619Y-103988095D01*
X82892857Y-104035714D01*
X83130952Y-104035714D01*
X83226190Y-103988095D01*
X83273809Y-103940476D01*
X83321428Y-103845238D01*
X83321428Y-103654761D01*
X83273809Y-103559523D01*
X83226190Y-103511904D01*
X83130952Y-103464285D01*
D12*
%TO.C,FL2*%
X71312619Y-72159285D02*
X70889285Y-72159285D01*
X70889285Y-72824523D02*
X70889285Y-71554523D01*
X71494047Y-71554523D01*
X72582619Y-72824523D02*
X71977857Y-72824523D01*
X71977857Y-71554523D01*
X72945476Y-71675476D02*
X73005952Y-71615000D01*
X73126904Y-71554523D01*
X73429285Y-71554523D01*
X73550238Y-71615000D01*
X73610714Y-71675476D01*
X73671190Y-71796428D01*
X73671190Y-71917380D01*
X73610714Y-72098809D01*
X72885000Y-72824523D01*
X73671190Y-72824523D01*
D11*
%TO.C,R8*%
X112086380Y-71540666D02*
X111610190Y-71874000D01*
X112086380Y-72112095D02*
X111086380Y-72112095D01*
X111086380Y-71731142D01*
X111134000Y-71635904D01*
X111181619Y-71588285D01*
X111276857Y-71540666D01*
X111419714Y-71540666D01*
X111514952Y-71588285D01*
X111562571Y-71635904D01*
X111610190Y-71731142D01*
X111610190Y-72112095D01*
X111514952Y-70969238D02*
X111467333Y-71064476D01*
X111419714Y-71112095D01*
X111324476Y-71159714D01*
X111276857Y-71159714D01*
X111181619Y-71112095D01*
X111134000Y-71064476D01*
X111086380Y-70969238D01*
X111086380Y-70778761D01*
X111134000Y-70683523D01*
X111181619Y-70635904D01*
X111276857Y-70588285D01*
X111324476Y-70588285D01*
X111419714Y-70635904D01*
X111467333Y-70683523D01*
X111514952Y-70778761D01*
X111514952Y-70969238D01*
X111562571Y-71064476D01*
X111610190Y-71112095D01*
X111705428Y-71159714D01*
X111895904Y-71159714D01*
X111991142Y-71112095D01*
X112038761Y-71064476D01*
X112086380Y-70969238D01*
X112086380Y-70778761D01*
X112038761Y-70683523D01*
X111991142Y-70635904D01*
X111895904Y-70588285D01*
X111705428Y-70588285D01*
X111610190Y-70635904D01*
X111562571Y-70683523D01*
X111514952Y-70778761D01*
%TO.C,C7*%
X68083333Y-90607142D02*
X68035714Y-90654761D01*
X67892857Y-90702380D01*
X67797619Y-90702380D01*
X67654761Y-90654761D01*
X67559523Y-90559523D01*
X67511904Y-90464285D01*
X67464285Y-90273809D01*
X67464285Y-90130952D01*
X67511904Y-89940476D01*
X67559523Y-89845238D01*
X67654761Y-89750000D01*
X67797619Y-89702380D01*
X67892857Y-89702380D01*
X68035714Y-89750000D01*
X68083333Y-89797619D01*
X68416666Y-89702380D02*
X69083333Y-89702380D01*
X68654761Y-90702380D01*
%TO.C,R5*%
X140333333Y-70802380D02*
X140000000Y-70326190D01*
X139761904Y-70802380D02*
X139761904Y-69802380D01*
X140142857Y-69802380D01*
X140238095Y-69850000D01*
X140285714Y-69897619D01*
X140333333Y-69992857D01*
X140333333Y-70135714D01*
X140285714Y-70230952D01*
X140238095Y-70278571D01*
X140142857Y-70326190D01*
X139761904Y-70326190D01*
X141238095Y-69802380D02*
X140761904Y-69802380D01*
X140714285Y-70278571D01*
X140761904Y-70230952D01*
X140857142Y-70183333D01*
X141095238Y-70183333D01*
X141190476Y-70230952D01*
X141238095Y-70278571D01*
X141285714Y-70373809D01*
X141285714Y-70611904D01*
X141238095Y-70707142D01*
X141190476Y-70754761D01*
X141095238Y-70802380D01*
X140857142Y-70802380D01*
X140761904Y-70754761D01*
X140714285Y-70707142D01*
%TO.C,R1*%
X125583333Y-70802380D02*
X125250000Y-70326190D01*
X125011904Y-70802380D02*
X125011904Y-69802380D01*
X125392857Y-69802380D01*
X125488095Y-69850000D01*
X125535714Y-69897619D01*
X125583333Y-69992857D01*
X125583333Y-70135714D01*
X125535714Y-70230952D01*
X125488095Y-70278571D01*
X125392857Y-70326190D01*
X125011904Y-70326190D01*
X126535714Y-70802380D02*
X125964285Y-70802380D01*
X126250000Y-70802380D02*
X126250000Y-69802380D01*
X126154761Y-69945238D01*
X126059523Y-70040476D01*
X125964285Y-70088095D01*
%TO.C,R9*%
X159083333Y-71802380D02*
X158750000Y-71326190D01*
X158511904Y-71802380D02*
X158511904Y-70802380D01*
X158892857Y-70802380D01*
X158988095Y-70850000D01*
X159035714Y-70897619D01*
X159083333Y-70992857D01*
X159083333Y-71135714D01*
X159035714Y-71230952D01*
X158988095Y-71278571D01*
X158892857Y-71326190D01*
X158511904Y-71326190D01*
X159559523Y-71802380D02*
X159750000Y-71802380D01*
X159845238Y-71754761D01*
X159892857Y-71707142D01*
X159988095Y-71564285D01*
X160035714Y-71373809D01*
X160035714Y-70992857D01*
X159988095Y-70897619D01*
X159940476Y-70850000D01*
X159845238Y-70802380D01*
X159654761Y-70802380D01*
X159559523Y-70850000D01*
X159511904Y-70897619D01*
X159464285Y-70992857D01*
X159464285Y-71230952D01*
X159511904Y-71326190D01*
X159559523Y-71373809D01*
X159654761Y-71421428D01*
X159845238Y-71421428D01*
X159940476Y-71373809D01*
X159988095Y-71326190D01*
X160035714Y-71230952D01*
%TO.C,U1*%
X108738095Y-72702380D02*
X108738095Y-73511904D01*
X108785714Y-73607142D01*
X108833333Y-73654761D01*
X108928571Y-73702380D01*
X109119047Y-73702380D01*
X109214285Y-73654761D01*
X109261904Y-73607142D01*
X109309523Y-73511904D01*
X109309523Y-72702380D01*
X110309523Y-73702380D02*
X109738095Y-73702380D01*
X110023809Y-73702380D02*
X110023809Y-72702380D01*
X109928571Y-72845238D01*
X109833333Y-72940476D01*
X109738095Y-72988095D01*
%TO.C,M1*%
X59440476Y-65452380D02*
X59440476Y-64452380D01*
X59773809Y-65166666D01*
X60107142Y-64452380D01*
X60107142Y-65452380D01*
X61107142Y-65452380D02*
X60535714Y-65452380D01*
X60821428Y-65452380D02*
X60821428Y-64452380D01*
X60726190Y-64595238D01*
X60630952Y-64690476D01*
X60535714Y-64738095D01*
%TO.C,R4*%
X135333333Y-66802380D02*
X135000000Y-66326190D01*
X134761904Y-66802380D02*
X134761904Y-65802380D01*
X135142857Y-65802380D01*
X135238095Y-65850000D01*
X135285714Y-65897619D01*
X135333333Y-65992857D01*
X135333333Y-66135714D01*
X135285714Y-66230952D01*
X135238095Y-66278571D01*
X135142857Y-66326190D01*
X134761904Y-66326190D01*
X136190476Y-66135714D02*
X136190476Y-66802380D01*
X135952380Y-65754761D02*
X135714285Y-66469047D01*
X136333333Y-66469047D01*
%TO.C,C1*%
X26583333Y-90357142D02*
X26535714Y-90404761D01*
X26392857Y-90452380D01*
X26297619Y-90452380D01*
X26154761Y-90404761D01*
X26059523Y-90309523D01*
X26011904Y-90214285D01*
X25964285Y-90023809D01*
X25964285Y-89880952D01*
X26011904Y-89690476D01*
X26059523Y-89595238D01*
X26154761Y-89500000D01*
X26297619Y-89452380D01*
X26392857Y-89452380D01*
X26535714Y-89500000D01*
X26583333Y-89547619D01*
X27535714Y-90452380D02*
X26964285Y-90452380D01*
X27250000Y-90452380D02*
X27250000Y-89452380D01*
X27154761Y-89595238D01*
X27059523Y-89690476D01*
X26964285Y-89738095D01*
%TO.C,C3*%
X34583333Y-90357142D02*
X34535714Y-90404761D01*
X34392857Y-90452380D01*
X34297619Y-90452380D01*
X34154761Y-90404761D01*
X34059523Y-90309523D01*
X34011904Y-90214285D01*
X33964285Y-90023809D01*
X33964285Y-89880952D01*
X34011904Y-89690476D01*
X34059523Y-89595238D01*
X34154761Y-89500000D01*
X34297619Y-89452380D01*
X34392857Y-89452380D01*
X34535714Y-89500000D01*
X34583333Y-89547619D01*
X34916666Y-89452380D02*
X35535714Y-89452380D01*
X35202380Y-89833333D01*
X35345238Y-89833333D01*
X35440476Y-89880952D01*
X35488095Y-89928571D01*
X35535714Y-90023809D01*
X35535714Y-90261904D01*
X35488095Y-90357142D01*
X35440476Y-90404761D01*
X35345238Y-90452380D01*
X35059523Y-90452380D01*
X34964285Y-90404761D01*
X34916666Y-90357142D01*
%TO.C,JP1*%
X117046666Y-99992380D02*
X117046666Y-100706666D01*
X116999047Y-100849523D01*
X116903809Y-100944761D01*
X116760952Y-100992380D01*
X116665714Y-100992380D01*
X117522857Y-100992380D02*
X117522857Y-99992380D01*
X117903809Y-99992380D01*
X117999047Y-100040000D01*
X118046666Y-100087619D01*
X118094285Y-100182857D01*
X118094285Y-100325714D01*
X118046666Y-100420952D01*
X117999047Y-100468571D01*
X117903809Y-100516190D01*
X117522857Y-100516190D01*
X119046666Y-100992380D02*
X118475238Y-100992380D01*
X118760952Y-100992380D02*
X118760952Y-99992380D01*
X118665714Y-100135238D01*
X118570476Y-100230476D01*
X118475238Y-100278095D01*
%TO.C,R3*%
X135333333Y-70802380D02*
X135000000Y-70326190D01*
X134761904Y-70802380D02*
X134761904Y-69802380D01*
X135142857Y-69802380D01*
X135238095Y-69850000D01*
X135285714Y-69897619D01*
X135333333Y-69992857D01*
X135333333Y-70135714D01*
X135285714Y-70230952D01*
X135238095Y-70278571D01*
X135142857Y-70326190D01*
X134761904Y-70326190D01*
X135666666Y-69802380D02*
X136285714Y-69802380D01*
X135952380Y-70183333D01*
X136095238Y-70183333D01*
X136190476Y-70230952D01*
X136238095Y-70278571D01*
X136285714Y-70373809D01*
X136285714Y-70611904D01*
X136238095Y-70707142D01*
X136190476Y-70754761D01*
X136095238Y-70802380D01*
X135809523Y-70802380D01*
X135714285Y-70754761D01*
X135666666Y-70707142D01*
%TO.C,+12V*%
X163238095Y-66821428D02*
X164000000Y-66821428D01*
X163619047Y-67202380D02*
X163619047Y-66440476D01*
X165000000Y-67202380D02*
X164428571Y-67202380D01*
X164714285Y-67202380D02*
X164714285Y-66202380D01*
X164619047Y-66345238D01*
X164523809Y-66440476D01*
X164428571Y-66488095D01*
X165380952Y-66297619D02*
X165428571Y-66250000D01*
X165523809Y-66202380D01*
X165761904Y-66202380D01*
X165857142Y-66250000D01*
X165904761Y-66297619D01*
X165952380Y-66392857D01*
X165952380Y-66488095D01*
X165904761Y-66630952D01*
X165333333Y-67202380D01*
X165952380Y-67202380D01*
X166238095Y-66202380D02*
X166571428Y-67202380D01*
X166904761Y-66202380D01*
%TO.C,D5*%
X155511904Y-69772380D02*
X155511904Y-68772380D01*
X155750000Y-68772380D01*
X155892857Y-68820000D01*
X155988095Y-68915238D01*
X156035714Y-69010476D01*
X156083333Y-69200952D01*
X156083333Y-69343809D01*
X156035714Y-69534285D01*
X155988095Y-69629523D01*
X155892857Y-69724761D01*
X155750000Y-69772380D01*
X155511904Y-69772380D01*
X156988095Y-68772380D02*
X156511904Y-68772380D01*
X156464285Y-69248571D01*
X156511904Y-69200952D01*
X156607142Y-69153333D01*
X156845238Y-69153333D01*
X156940476Y-69200952D01*
X156988095Y-69248571D01*
X157035714Y-69343809D01*
X157035714Y-69581904D01*
X156988095Y-69677142D01*
X156940476Y-69724761D01*
X156845238Y-69772380D01*
X156607142Y-69772380D01*
X156511904Y-69724761D01*
X156464285Y-69677142D01*
%TO.C,-VDC*%
X29690476Y-92821428D02*
X30452380Y-92821428D01*
X30785714Y-92202380D02*
X31119047Y-93202380D01*
X31452380Y-92202380D01*
X31785714Y-93202380D02*
X31785714Y-92202380D01*
X32023809Y-92202380D01*
X32166666Y-92250000D01*
X32261904Y-92345238D01*
X32309523Y-92440476D01*
X32357142Y-92630952D01*
X32357142Y-92773809D01*
X32309523Y-92964285D01*
X32261904Y-93059523D01*
X32166666Y-93154761D01*
X32023809Y-93202380D01*
X31785714Y-93202380D01*
X33357142Y-93107142D02*
X33309523Y-93154761D01*
X33166666Y-93202380D01*
X33071428Y-93202380D01*
X32928571Y-93154761D01*
X32833333Y-93059523D01*
X32785714Y-92964285D01*
X32738095Y-92773809D01*
X32738095Y-92630952D01*
X32785714Y-92440476D01*
X32833333Y-92345238D01*
X32928571Y-92250000D01*
X33071428Y-92202380D01*
X33166666Y-92202380D01*
X33309523Y-92250000D01*
X33357142Y-92297619D01*
%TO.C,CHASSIS*%
X147440476Y-62857142D02*
X147392857Y-62904761D01*
X147250000Y-62952380D01*
X147154761Y-62952380D01*
X147011904Y-62904761D01*
X146916666Y-62809523D01*
X146869047Y-62714285D01*
X146821428Y-62523809D01*
X146821428Y-62380952D01*
X146869047Y-62190476D01*
X146916666Y-62095238D01*
X147011904Y-62000000D01*
X147154761Y-61952380D01*
X147250000Y-61952380D01*
X147392857Y-62000000D01*
X147440476Y-62047619D01*
X147869047Y-62952380D02*
X147869047Y-61952380D01*
X147869047Y-62428571D02*
X148440476Y-62428571D01*
X148440476Y-62952380D02*
X148440476Y-61952380D01*
X148869047Y-62666666D02*
X149345238Y-62666666D01*
X148773809Y-62952380D02*
X149107142Y-61952380D01*
X149440476Y-62952380D01*
X149726190Y-62904761D02*
X149869047Y-62952380D01*
X150107142Y-62952380D01*
X150202380Y-62904761D01*
X150250000Y-62857142D01*
X150297619Y-62761904D01*
X150297619Y-62666666D01*
X150250000Y-62571428D01*
X150202380Y-62523809D01*
X150107142Y-62476190D01*
X149916666Y-62428571D01*
X149821428Y-62380952D01*
X149773809Y-62333333D01*
X149726190Y-62238095D01*
X149726190Y-62142857D01*
X149773809Y-62047619D01*
X149821428Y-62000000D01*
X149916666Y-61952380D01*
X150154761Y-61952380D01*
X150297619Y-62000000D01*
X150678571Y-62904761D02*
X150821428Y-62952380D01*
X151059523Y-62952380D01*
X151154761Y-62904761D01*
X151202380Y-62857142D01*
X151250000Y-62761904D01*
X151250000Y-62666666D01*
X151202380Y-62571428D01*
X151154761Y-62523809D01*
X151059523Y-62476190D01*
X150869047Y-62428571D01*
X150773809Y-62380952D01*
X150726190Y-62333333D01*
X150678571Y-62238095D01*
X150678571Y-62142857D01*
X150726190Y-62047619D01*
X150773809Y-62000000D01*
X150869047Y-61952380D01*
X151107142Y-61952380D01*
X151250000Y-62000000D01*
X151678571Y-62952380D02*
X151678571Y-61952380D01*
X152107142Y-62904761D02*
X152250000Y-62952380D01*
X152488095Y-62952380D01*
X152583333Y-62904761D01*
X152630952Y-62857142D01*
X152678571Y-62761904D01*
X152678571Y-62666666D01*
X152630952Y-62571428D01*
X152583333Y-62523809D01*
X152488095Y-62476190D01*
X152297619Y-62428571D01*
X152202380Y-62380952D01*
X152154761Y-62333333D01*
X152107142Y-62238095D01*
X152107142Y-62142857D01*
X152154761Y-62047619D01*
X152202380Y-62000000D01*
X152297619Y-61952380D01*
X152535714Y-61952380D01*
X152678571Y-62000000D01*
%TO.C,M2*%
X59440476Y-106452380D02*
X59440476Y-105452380D01*
X59773809Y-106166666D01*
X60107142Y-105452380D01*
X60107142Y-106452380D01*
X60535714Y-105547619D02*
X60583333Y-105500000D01*
X60678571Y-105452380D01*
X60916666Y-105452380D01*
X61011904Y-105500000D01*
X61059523Y-105547619D01*
X61107142Y-105642857D01*
X61107142Y-105738095D01*
X61059523Y-105880952D01*
X60488095Y-106452380D01*
X61107142Y-106452380D01*
%TO.C,D2*%
X129511904Y-65022380D02*
X129511904Y-64022380D01*
X129750000Y-64022380D01*
X129892857Y-64070000D01*
X129988095Y-64165238D01*
X130035714Y-64260476D01*
X130083333Y-64450952D01*
X130083333Y-64593809D01*
X130035714Y-64784285D01*
X129988095Y-64879523D01*
X129892857Y-64974761D01*
X129750000Y-65022380D01*
X129511904Y-65022380D01*
X130464285Y-64117619D02*
X130511904Y-64070000D01*
X130607142Y-64022380D01*
X130845238Y-64022380D01*
X130940476Y-64070000D01*
X130988095Y-64117619D01*
X131035714Y-64212857D01*
X131035714Y-64308095D01*
X130988095Y-64450952D01*
X130416666Y-65022380D01*
X131035714Y-65022380D01*
%TO.C,C10*%
X100107142Y-73497357D02*
X100154761Y-73544976D01*
X100202380Y-73687833D01*
X100202380Y-73783071D01*
X100154761Y-73925928D01*
X100059523Y-74021166D01*
X99964285Y-74068785D01*
X99773809Y-74116404D01*
X99630952Y-74116404D01*
X99440476Y-74068785D01*
X99345238Y-74021166D01*
X99250000Y-73925928D01*
X99202380Y-73783071D01*
X99202380Y-73687833D01*
X99250000Y-73544976D01*
X99297619Y-73497357D01*
X100202380Y-72544976D02*
X100202380Y-73116404D01*
X100202380Y-72830690D02*
X99202380Y-72830690D01*
X99345238Y-72925928D01*
X99440476Y-73021166D01*
X99488095Y-73116404D01*
X99202380Y-71925928D02*
X99202380Y-71830690D01*
X99250000Y-71735452D01*
X99297619Y-71687833D01*
X99392857Y-71640214D01*
X99583333Y-71592595D01*
X99821428Y-71592595D01*
X100011904Y-71640214D01*
X100107142Y-71687833D01*
X100154761Y-71735452D01*
X100202380Y-71830690D01*
X100202380Y-71925928D01*
X100154761Y-72021166D01*
X100107142Y-72068785D01*
X100011904Y-72116404D01*
X99821428Y-72164023D01*
X99583333Y-72164023D01*
X99392857Y-72116404D01*
X99297619Y-72068785D01*
X99250000Y-72021166D01*
X99202380Y-71925928D01*
%TO.C,D4*%
X107719904Y-69380380D02*
X107719904Y-68380380D01*
X107958000Y-68380380D01*
X108100857Y-68428000D01*
X108196095Y-68523238D01*
X108243714Y-68618476D01*
X108291333Y-68808952D01*
X108291333Y-68951809D01*
X108243714Y-69142285D01*
X108196095Y-69237523D01*
X108100857Y-69332761D01*
X107958000Y-69380380D01*
X107719904Y-69380380D01*
X109148476Y-68713714D02*
X109148476Y-69380380D01*
X108910380Y-68332761D02*
X108672285Y-69047047D01*
X109291333Y-69047047D01*
%TO.C,D1*%
X119511904Y-65022380D02*
X119511904Y-64022380D01*
X119750000Y-64022380D01*
X119892857Y-64070000D01*
X119988095Y-64165238D01*
X120035714Y-64260476D01*
X120083333Y-64450952D01*
X120083333Y-64593809D01*
X120035714Y-64784285D01*
X119988095Y-64879523D01*
X119892857Y-64974761D01*
X119750000Y-65022380D01*
X119511904Y-65022380D01*
X121035714Y-65022380D02*
X120464285Y-65022380D01*
X120750000Y-65022380D02*
X120750000Y-64022380D01*
X120654761Y-64165238D01*
X120559523Y-64260476D01*
X120464285Y-64308095D01*
%TO.C,C2*%
X30583333Y-90357142D02*
X30535714Y-90404761D01*
X30392857Y-90452380D01*
X30297619Y-90452380D01*
X30154761Y-90404761D01*
X30059523Y-90309523D01*
X30011904Y-90214285D01*
X29964285Y-90023809D01*
X29964285Y-89880952D01*
X30011904Y-89690476D01*
X30059523Y-89595238D01*
X30154761Y-89500000D01*
X30297619Y-89452380D01*
X30392857Y-89452380D01*
X30535714Y-89500000D01*
X30583333Y-89547619D01*
X30964285Y-89547619D02*
X31011904Y-89500000D01*
X31107142Y-89452380D01*
X31345238Y-89452380D01*
X31440476Y-89500000D01*
X31488095Y-89547619D01*
X31535714Y-89642857D01*
X31535714Y-89738095D01*
X31488095Y-89880952D01*
X30916666Y-90452380D01*
X31535714Y-90452380D01*
%TO.C,IN_GND*%
X127571428Y-100452380D02*
X127571428Y-99452380D01*
X128047619Y-100452380D02*
X128047619Y-99452380D01*
X128619047Y-100452380D01*
X128619047Y-99452380D01*
X128857142Y-100547619D02*
X129619047Y-100547619D01*
X130380952Y-99500000D02*
X130285714Y-99452380D01*
X130142857Y-99452380D01*
X130000000Y-99500000D01*
X129904761Y-99595238D01*
X129857142Y-99690476D01*
X129809523Y-99880952D01*
X129809523Y-100023809D01*
X129857142Y-100214285D01*
X129904761Y-100309523D01*
X130000000Y-100404761D01*
X130142857Y-100452380D01*
X130238095Y-100452380D01*
X130380952Y-100404761D01*
X130428571Y-100357142D01*
X130428571Y-100023809D01*
X130238095Y-100023809D01*
X130857142Y-100452380D02*
X130857142Y-99452380D01*
X131428571Y-100452380D01*
X131428571Y-99452380D01*
X131904761Y-100452380D02*
X131904761Y-99452380D01*
X132142857Y-99452380D01*
X132285714Y-99500000D01*
X132380952Y-99595238D01*
X132428571Y-99690476D01*
X132476190Y-99880952D01*
X132476190Y-100023809D01*
X132428571Y-100214285D01*
X132380952Y-100309523D01*
X132285714Y-100404761D01*
X132142857Y-100452380D01*
X131904761Y-100452380D01*
%TO.C,C11*%
X95357142Y-83142857D02*
X95404761Y-83190476D01*
X95452380Y-83333333D01*
X95452380Y-83428571D01*
X95404761Y-83571428D01*
X95309523Y-83666666D01*
X95214285Y-83714285D01*
X95023809Y-83761904D01*
X94880952Y-83761904D01*
X94690476Y-83714285D01*
X94595238Y-83666666D01*
X94500000Y-83571428D01*
X94452380Y-83428571D01*
X94452380Y-83333333D01*
X94500000Y-83190476D01*
X94547619Y-83142857D01*
X95452380Y-82190476D02*
X95452380Y-82761904D01*
X95452380Y-82476190D02*
X94452380Y-82476190D01*
X94595238Y-82571428D01*
X94690476Y-82666666D01*
X94738095Y-82761904D01*
X95452380Y-81238095D02*
X95452380Y-81809523D01*
X95452380Y-81523809D02*
X94452380Y-81523809D01*
X94595238Y-81619047D01*
X94690476Y-81714285D01*
X94738095Y-81809523D01*
%TO.C,R7*%
X151952380Y-104416666D02*
X151476190Y-104750000D01*
X151952380Y-104988095D02*
X150952380Y-104988095D01*
X150952380Y-104607142D01*
X151000000Y-104511904D01*
X151047619Y-104464285D01*
X151142857Y-104416666D01*
X151285714Y-104416666D01*
X151380952Y-104464285D01*
X151428571Y-104511904D01*
X151476190Y-104607142D01*
X151476190Y-104988095D01*
X150952380Y-104083333D02*
X150952380Y-103416666D01*
X151952380Y-103845238D01*
%TO.C,CHASSIS*%
X147440476Y-109107142D02*
X147392857Y-109154761D01*
X147250000Y-109202380D01*
X147154761Y-109202380D01*
X147011904Y-109154761D01*
X146916666Y-109059523D01*
X146869047Y-108964285D01*
X146821428Y-108773809D01*
X146821428Y-108630952D01*
X146869047Y-108440476D01*
X146916666Y-108345238D01*
X147011904Y-108250000D01*
X147154761Y-108202380D01*
X147250000Y-108202380D01*
X147392857Y-108250000D01*
X147440476Y-108297619D01*
X147869047Y-109202380D02*
X147869047Y-108202380D01*
X147869047Y-108678571D02*
X148440476Y-108678571D01*
X148440476Y-109202380D02*
X148440476Y-108202380D01*
X148869047Y-108916666D02*
X149345238Y-108916666D01*
X148773809Y-109202380D02*
X149107142Y-108202380D01*
X149440476Y-109202380D01*
X149726190Y-109154761D02*
X149869047Y-109202380D01*
X150107142Y-109202380D01*
X150202380Y-109154761D01*
X150250000Y-109107142D01*
X150297619Y-109011904D01*
X150297619Y-108916666D01*
X150250000Y-108821428D01*
X150202380Y-108773809D01*
X150107142Y-108726190D01*
X149916666Y-108678571D01*
X149821428Y-108630952D01*
X149773809Y-108583333D01*
X149726190Y-108488095D01*
X149726190Y-108392857D01*
X149773809Y-108297619D01*
X149821428Y-108250000D01*
X149916666Y-108202380D01*
X150154761Y-108202380D01*
X150297619Y-108250000D01*
X150678571Y-109154761D02*
X150821428Y-109202380D01*
X151059523Y-109202380D01*
X151154761Y-109154761D01*
X151202380Y-109107142D01*
X151250000Y-109011904D01*
X151250000Y-108916666D01*
X151202380Y-108821428D01*
X151154761Y-108773809D01*
X151059523Y-108726190D01*
X150869047Y-108678571D01*
X150773809Y-108630952D01*
X150726190Y-108583333D01*
X150678571Y-108488095D01*
X150678571Y-108392857D01*
X150726190Y-108297619D01*
X150773809Y-108250000D01*
X150869047Y-108202380D01*
X151107142Y-108202380D01*
X151250000Y-108250000D01*
X151678571Y-109202380D02*
X151678571Y-108202380D01*
X152107142Y-109154761D02*
X152250000Y-109202380D01*
X152488095Y-109202380D01*
X152583333Y-109154761D01*
X152630952Y-109107142D01*
X152678571Y-109011904D01*
X152678571Y-108916666D01*
X152630952Y-108821428D01*
X152583333Y-108773809D01*
X152488095Y-108726190D01*
X152297619Y-108678571D01*
X152202380Y-108630952D01*
X152154761Y-108583333D01*
X152107142Y-108488095D01*
X152107142Y-108392857D01*
X152154761Y-108297619D01*
X152202380Y-108250000D01*
X152297619Y-108202380D01*
X152535714Y-108202380D01*
X152678571Y-108250000D01*
%TO.C,D3*%
X139761904Y-65022380D02*
X139761904Y-64022380D01*
X140000000Y-64022380D01*
X140142857Y-64070000D01*
X140238095Y-64165238D01*
X140285714Y-64260476D01*
X140333333Y-64450952D01*
X140333333Y-64593809D01*
X140285714Y-64784285D01*
X140238095Y-64879523D01*
X140142857Y-64974761D01*
X140000000Y-65022380D01*
X139761904Y-65022380D01*
X140666666Y-64022380D02*
X141285714Y-64022380D01*
X140952380Y-64403333D01*
X141095238Y-64403333D01*
X141190476Y-64450952D01*
X141238095Y-64498571D01*
X141285714Y-64593809D01*
X141285714Y-64831904D01*
X141238095Y-64927142D01*
X141190476Y-64974761D01*
X141095238Y-65022380D01*
X140809523Y-65022380D01*
X140714285Y-64974761D01*
X140666666Y-64927142D01*
%TO.C,R2*%
X125583333Y-66802380D02*
X125250000Y-66326190D01*
X125011904Y-66802380D02*
X125011904Y-65802380D01*
X125392857Y-65802380D01*
X125488095Y-65850000D01*
X125535714Y-65897619D01*
X125583333Y-65992857D01*
X125583333Y-66135714D01*
X125535714Y-66230952D01*
X125488095Y-66278571D01*
X125392857Y-66326190D01*
X125011904Y-66326190D01*
X125964285Y-65897619D02*
X126011904Y-65850000D01*
X126107142Y-65802380D01*
X126345238Y-65802380D01*
X126440476Y-65850000D01*
X126488095Y-65897619D01*
X126535714Y-65992857D01*
X126535714Y-66088095D01*
X126488095Y-66230952D01*
X125916666Y-66802380D01*
X126535714Y-66802380D01*
%TO.C,C6*%
X83707142Y-68746666D02*
X83754761Y-68794285D01*
X83802380Y-68937142D01*
X83802380Y-69032380D01*
X83754761Y-69175238D01*
X83659523Y-69270476D01*
X83564285Y-69318095D01*
X83373809Y-69365714D01*
X83230952Y-69365714D01*
X83040476Y-69318095D01*
X82945238Y-69270476D01*
X82850000Y-69175238D01*
X82802380Y-69032380D01*
X82802380Y-68937142D01*
X82850000Y-68794285D01*
X82897619Y-68746666D01*
X82802380Y-67889523D02*
X82802380Y-68080000D01*
X82850000Y-68175238D01*
X82897619Y-68222857D01*
X83040476Y-68318095D01*
X83230952Y-68365714D01*
X83611904Y-68365714D01*
X83707142Y-68318095D01*
X83754761Y-68270476D01*
X83802380Y-68175238D01*
X83802380Y-67984761D01*
X83754761Y-67889523D01*
X83707142Y-67841904D01*
X83611904Y-67794285D01*
X83373809Y-67794285D01*
X83278571Y-67841904D01*
X83230952Y-67889523D01*
X83183333Y-67984761D01*
X83183333Y-68175238D01*
X83230952Y-68270476D01*
X83278571Y-68318095D01*
X83373809Y-68365714D01*
%TO.C,Q2*%
X130904761Y-72447619D02*
X130809523Y-72400000D01*
X130714285Y-72304761D01*
X130571428Y-72161904D01*
X130476190Y-72114285D01*
X130380952Y-72114285D01*
X130428571Y-72352380D02*
X130333333Y-72304761D01*
X130238095Y-72209523D01*
X130190476Y-72019047D01*
X130190476Y-71685714D01*
X130238095Y-71495238D01*
X130333333Y-71400000D01*
X130428571Y-71352380D01*
X130619047Y-71352380D01*
X130714285Y-71400000D01*
X130809523Y-71495238D01*
X130857142Y-71685714D01*
X130857142Y-72019047D01*
X130809523Y-72209523D01*
X130714285Y-72304761D01*
X130619047Y-72352380D01*
X130428571Y-72352380D01*
X131238095Y-71447619D02*
X131285714Y-71400000D01*
X131380952Y-71352380D01*
X131619047Y-71352380D01*
X131714285Y-71400000D01*
X131761904Y-71447619D01*
X131809523Y-71542857D01*
X131809523Y-71638095D01*
X131761904Y-71780952D01*
X131190476Y-72352380D01*
X131809523Y-72352380D01*
%TO.C,Q1*%
X121154761Y-72447619D02*
X121059523Y-72400000D01*
X120964285Y-72304761D01*
X120821428Y-72161904D01*
X120726190Y-72114285D01*
X120630952Y-72114285D01*
X120678571Y-72352380D02*
X120583333Y-72304761D01*
X120488095Y-72209523D01*
X120440476Y-72019047D01*
X120440476Y-71685714D01*
X120488095Y-71495238D01*
X120583333Y-71400000D01*
X120678571Y-71352380D01*
X120869047Y-71352380D01*
X120964285Y-71400000D01*
X121059523Y-71495238D01*
X121107142Y-71685714D01*
X121107142Y-72019047D01*
X121059523Y-72209523D01*
X120964285Y-72304761D01*
X120869047Y-72352380D01*
X120678571Y-72352380D01*
X122059523Y-72352380D02*
X121488095Y-72352380D01*
X121773809Y-72352380D02*
X121773809Y-71352380D01*
X121678571Y-71495238D01*
X121583333Y-71590476D01*
X121488095Y-71638095D01*
D13*
%TO.C,C8*%
X75940000Y-102884252D02*
X75940000Y-105715748D01*
X81160000Y-102884252D02*
X81160000Y-105715748D01*
%TO.C,C5*%
X64760000Y-85923748D02*
X64760000Y-87346252D01*
X62040000Y-85923748D02*
X62040000Y-87346252D01*
D14*
%TO.C,FL1*%
X41185793Y-100396891D02*
X41185793Y-100396891D01*
X41185793Y-100496891D02*
X41185793Y-100496891D01*
X41185793Y-100396891D02*
G75*
G03*
X41185793Y-100496891I0J-50000D01*
G01*
X41185793Y-100496891D02*
G75*
G03*
X41185793Y-100396891I0J50000D01*
G01*
D13*
%TO.C,C4*%
X75890000Y-69995748D02*
X75890000Y-67164252D01*
X81110000Y-69995748D02*
X81110000Y-67164252D01*
%TO.C,PMBUS*%
X143170000Y-68130000D02*
X153450000Y-68130000D01*
X145770000Y-73330000D02*
X145770000Y-70730000D01*
X153450000Y-73330000D02*
X153450000Y-68130000D01*
X145770000Y-70730000D02*
X143170000Y-70730000D01*
X145770000Y-73330000D02*
X153450000Y-73330000D01*
X143170000Y-73330000D02*
X143170000Y-72000000D01*
X144500000Y-73330000D02*
X143170000Y-73330000D01*
X143170000Y-70730000D02*
X143170000Y-68130000D01*
%TO.C,R6*%
X148015000Y-100772936D02*
X148015000Y-101227064D01*
X149485000Y-100772936D02*
X149485000Y-101227064D01*
%TO.C,C9*%
X84390000Y-102784252D02*
X84390000Y-105615748D01*
X89610000Y-102784252D02*
X89610000Y-105615748D01*
D14*
%TO.C,FL2*%
X74635793Y-100496891D02*
X74635793Y-100496891D01*
X74635793Y-100396891D02*
X74635793Y-100396891D01*
X74635793Y-100496891D02*
G75*
G03*
X74635793Y-100396891I0J50000D01*
G01*
X74635793Y-100396891D02*
G75*
G03*
X74635793Y-100496891I0J-50000D01*
G01*
D13*
%TO.C,R8*%
X112549000Y-71601064D02*
X112549000Y-71146936D01*
X114019000Y-71601064D02*
X114019000Y-71146936D01*
%TO.C,C7*%
X67170000Y-85921248D02*
X67170000Y-87343752D01*
X69890000Y-85921248D02*
X69890000Y-87343752D01*
%TO.C,R5*%
X140272936Y-72735000D02*
X140727064Y-72735000D01*
X140272936Y-71265000D02*
X140727064Y-71265000D01*
%TO.C,R1*%
X125522936Y-72735000D02*
X125977064Y-72735000D01*
X125522936Y-71265000D02*
X125977064Y-71265000D01*
%TO.C,R9*%
X159022936Y-72265000D02*
X159477064Y-72265000D01*
X159022936Y-73735000D02*
X159477064Y-73735000D01*
%TO.C,R4*%
X135272936Y-68735000D02*
X135727064Y-68735000D01*
X135272936Y-67265000D02*
X135727064Y-67265000D01*
%TO.C,C1*%
X25390000Y-85788748D02*
X25390000Y-87211252D01*
X28110000Y-85788748D02*
X28110000Y-87211252D01*
%TO.C,C3*%
X36110000Y-85788748D02*
X36110000Y-87211252D01*
X33390000Y-85788748D02*
X33390000Y-87211252D01*
%TO.C,JP1*%
X115280000Y-104140000D02*
X117880000Y-104140000D01*
X115280000Y-104140000D02*
X115280000Y-104200000D01*
X115280000Y-102870000D02*
X115280000Y-101540000D01*
X117880000Y-104140000D02*
X117880000Y-101540000D01*
X115280000Y-104200000D02*
X120480000Y-104200000D01*
X115280000Y-101540000D02*
X116610000Y-101540000D01*
X117880000Y-101540000D02*
X120480000Y-101540000D01*
X120480000Y-101540000D02*
X120480000Y-104200000D01*
%TO.C,R3*%
X135272936Y-71265000D02*
X135727064Y-71265000D01*
X135272936Y-72735000D02*
X135727064Y-72735000D01*
%TO.C,D5*%
X157050000Y-70015000D02*
X154590000Y-70015000D01*
X154590000Y-71485000D02*
X157050000Y-71485000D01*
X154590000Y-70015000D02*
X154590000Y-71485000D01*
%TO.C,D2*%
X131050000Y-65265000D02*
X128590000Y-65265000D01*
X128590000Y-66735000D02*
X131050000Y-66735000D01*
X128590000Y-65265000D02*
X128590000Y-66735000D01*
%TO.C,C10*%
X102510000Y-73523752D02*
X102510000Y-72101248D01*
X100690000Y-73523752D02*
X100690000Y-72101248D01*
%TO.C,D4*%
X106798000Y-69623000D02*
X106798000Y-71093000D01*
X106798000Y-71093000D02*
X109258000Y-71093000D01*
X109258000Y-69623000D02*
X106798000Y-69623000D01*
%TO.C,D1*%
X118590000Y-66735000D02*
X121050000Y-66735000D01*
X118590000Y-65265000D02*
X118590000Y-66735000D01*
X121050000Y-65265000D02*
X118590000Y-65265000D01*
%TO.C,C2*%
X32110000Y-85788748D02*
X32110000Y-87211252D01*
X29390000Y-85788748D02*
X29390000Y-87211252D01*
%TO.C,C11*%
X106205000Y-90601000D02*
X96995000Y-90601000D01*
X107838000Y-87321000D02*
X103040000Y-87321000D01*
X104596000Y-91841000D02*
X98604000Y-91841000D01*
X100160000Y-88401000D02*
X95647000Y-88401000D01*
X107358000Y-88881000D02*
X103040000Y-88881000D01*
X107477000Y-88601000D02*
X103040000Y-88601000D01*
X104808000Y-91721000D02*
X98392000Y-91721000D01*
X107898000Y-86880000D02*
X95302000Y-86880000D01*
X100160000Y-87401000D02*
X95376000Y-87401000D01*
X104521000Y-91881000D02*
X98679000Y-91881000D01*
X107683000Y-88001000D02*
X103040000Y-88001000D01*
X105183000Y-91481000D02*
X98017000Y-91481000D01*
X103809000Y-92201000D02*
X99391000Y-92201000D01*
X100160000Y-87641000D02*
X95425000Y-87641000D01*
X100160000Y-89281000D02*
X96042000Y-89281000D01*
X100160000Y-89841000D02*
X96384000Y-89841000D01*
X105296000Y-91401000D02*
X97904000Y-91401000D01*
X107567000Y-88361000D02*
X103040000Y-88361000D01*
X107928000Y-86400000D02*
X95272000Y-86400000D01*
X100160000Y-88121000D02*
X95553000Y-88121000D01*
X104104000Y-92081000D02*
X99096000Y-92081000D01*
X104740000Y-91761000D02*
X98460000Y-91761000D01*
X107608000Y-88241000D02*
X103040000Y-88241000D01*
X106089000Y-90721000D02*
X97111000Y-90721000D01*
X106816000Y-89841000D02*
X103040000Y-89841000D01*
X107659000Y-88081000D02*
X103040000Y-88081000D01*
X100160000Y-87921000D02*
X95495000Y-87921000D01*
X100160000Y-89001000D02*
X95898000Y-89001000D01*
X107746000Y-87761000D02*
X103040000Y-87761000D01*
X100160000Y-89481000D02*
X96155000Y-89481000D01*
X107927000Y-86440000D02*
X95273000Y-86440000D01*
X106947000Y-89641000D02*
X103040000Y-89641000D01*
X107869000Y-87121000D02*
X95331000Y-87121000D01*
X107726000Y-87841000D02*
X103040000Y-87841000D01*
X107801000Y-87521000D02*
X103040000Y-87521000D01*
X100160000Y-88081000D02*
X95541000Y-88081000D01*
X100160000Y-89761000D02*
X96330000Y-89761000D01*
X100160000Y-87681000D02*
X95434000Y-87681000D01*
X103022000Y-92441000D02*
X100178000Y-92441000D01*
X107915000Y-86680000D02*
X95285000Y-86680000D01*
X103912000Y-92161000D02*
X99288000Y-92161000D01*
X107671000Y-88041000D02*
X103040000Y-88041000D01*
X107792000Y-87561000D02*
X103040000Y-87561000D01*
X107621000Y-88201000D02*
X103040000Y-88201000D01*
X100160000Y-88641000D02*
X95739000Y-88641000D01*
X102628000Y-92521000D02*
X100572000Y-92521000D01*
X107737000Y-87801000D02*
X103040000Y-87801000D01*
X103183000Y-92401000D02*
X100017000Y-92401000D01*
X107775000Y-87641000D02*
X103040000Y-87641000D01*
X100160000Y-89801000D02*
X96357000Y-89801000D01*
X106314000Y-90481000D02*
X96886000Y-90481000D01*
X105655000Y-91121000D02*
X97545000Y-91121000D01*
X107524000Y-88481000D02*
X103040000Y-88481000D01*
X100160000Y-88481000D02*
X95676000Y-88481000D01*
X107858000Y-87201000D02*
X95342000Y-87201000D01*
X100160000Y-87601000D02*
X95416000Y-87601000D01*
X100160000Y-87881000D02*
X95484000Y-87881000D01*
X106731000Y-89961000D02*
X103040000Y-89961000D01*
X105175000Y-79422918D02*
X105175000Y-80672918D01*
X106278000Y-90521000D02*
X96922000Y-90521000D01*
X106167000Y-90641000D02*
X97033000Y-90641000D01*
X106843000Y-89801000D02*
X103040000Y-89801000D01*
X100160000Y-88001000D02*
X95517000Y-88001000D01*
X106582000Y-90161000D02*
X103040000Y-90161000D01*
X100160000Y-89721000D02*
X96304000Y-89721000D01*
X100160000Y-88681000D02*
X95755000Y-88681000D01*
X107091000Y-89401000D02*
X103040000Y-89401000D01*
X106760000Y-89921000D02*
X103040000Y-89921000D01*
X107918000Y-86640000D02*
X95282000Y-86640000D01*
X106452000Y-90321000D02*
X96748000Y-90321000D01*
X106485000Y-90281000D02*
X96715000Y-90281000D01*
X107831000Y-87361000D02*
X103040000Y-87361000D01*
X107930000Y-86320000D02*
X95270000Y-86320000D01*
X100160000Y-88201000D02*
X95579000Y-88201000D01*
X103328000Y-92361000D02*
X99872000Y-92361000D01*
X107756000Y-87721000D02*
X103040000Y-87721000D01*
X105794000Y-91001000D02*
X97406000Y-91001000D01*
X103584000Y-92281000D02*
X99616000Y-92281000D01*
X105748000Y-91041000D02*
X97452000Y-91041000D01*
X107461000Y-88641000D02*
X103040000Y-88641000D01*
X107180000Y-89241000D02*
X103040000Y-89241000D01*
X107376000Y-88841000D02*
X103040000Y-88841000D01*
X107428000Y-88721000D02*
X103040000Y-88721000D01*
X100160000Y-89241000D02*
X96020000Y-89241000D01*
X107339000Y-88921000D02*
X103040000Y-88921000D01*
X100160000Y-89321000D02*
X96064000Y-89321000D01*
X107302000Y-89001000D02*
X103040000Y-89001000D01*
X100160000Y-89921000D02*
X96440000Y-89921000D01*
X100160000Y-87721000D02*
X95444000Y-87721000D01*
X100160000Y-87481000D02*
X95391000Y-87481000D01*
X107852000Y-87241000D02*
X95348000Y-87241000D01*
X107321000Y-88961000D02*
X103040000Y-88961000D01*
X100160000Y-87761000D02*
X95454000Y-87761000D01*
X100160000Y-87441000D02*
X95384000Y-87441000D01*
X100160000Y-90161000D02*
X96618000Y-90161000D01*
X102841000Y-92481000D02*
X100359000Y-92481000D01*
X104010000Y-92121000D02*
X99190000Y-92121000D01*
X105800000Y-80047918D02*
X104550000Y-80047918D01*
X100160000Y-89161000D02*
X95978000Y-89161000D01*
X107845000Y-87281000D02*
X95355000Y-87281000D01*
X100160000Y-87841000D02*
X95474000Y-87841000D01*
X107595000Y-88281000D02*
X103040000Y-88281000D01*
X107929000Y-86360000D02*
X95271000Y-86360000D01*
X107282000Y-89041000D02*
X103040000Y-89041000D01*
X105507000Y-91241000D02*
X97693000Y-91241000D01*
X103700000Y-92241000D02*
X99500000Y-92241000D01*
X100160000Y-88801000D02*
X95807000Y-88801000D01*
X105124000Y-91521000D02*
X98076000Y-91521000D01*
X107114000Y-89361000D02*
X103040000Y-89361000D01*
X104364000Y-91961000D02*
X98836000Y-91961000D01*
X100160000Y-88521000D02*
X95692000Y-88521000D01*
X100160000Y-87801000D02*
X95463000Y-87801000D01*
X107894000Y-86920000D02*
X95306000Y-86920000D01*
X105404000Y-91321000D02*
X97796000Y-91321000D01*
X107493000Y-88561000D02*
X103040000Y-88561000D01*
X100160000Y-88921000D02*
X95861000Y-88921000D01*
X100160000Y-90121000D02*
X96588000Y-90121000D01*
X106128000Y-90681000D02*
X97072000Y-90681000D01*
X106870000Y-89761000D02*
X103040000Y-89761000D01*
X100160000Y-88281000D02*
X95605000Y-88281000D01*
X100160000Y-89081000D02*
X95938000Y-89081000D01*
X100160000Y-88761000D02*
X95789000Y-88761000D01*
X105064000Y-91561000D02*
X98136000Y-91561000D01*
X105702000Y-91081000D02*
X97498000Y-91081000D01*
X107201000Y-89201000D02*
X103040000Y-89201000D01*
X106385000Y-90401000D02*
X96815000Y-90401000D01*
X104194000Y-92041000D02*
X99006000Y-92041000D01*
X104939000Y-91641000D02*
X98261000Y-91641000D01*
X105882000Y-90921000D02*
X97318000Y-90921000D01*
X106673000Y-90041000D02*
X103040000Y-90041000D01*
X105967000Y-90841000D02*
X97233000Y-90841000D01*
X106550000Y-90201000D02*
X96650000Y-90201000D01*
X107045000Y-89481000D02*
X103040000Y-89481000D01*
X100160000Y-87321000D02*
X95362000Y-87321000D01*
X100160000Y-89681000D02*
X96278000Y-89681000D01*
X107864000Y-87161000D02*
X95336000Y-87161000D01*
X104875000Y-91681000D02*
X98325000Y-91681000D01*
X100160000Y-89441000D02*
X96132000Y-89441000D01*
X106643000Y-90081000D02*
X103040000Y-90081000D01*
X107445000Y-88681000D02*
X103040000Y-88681000D01*
X107906000Y-86800000D02*
X95294000Y-86800000D01*
X107242000Y-89121000D02*
X103040000Y-89121000D01*
X107411000Y-88761000D02*
X103040000Y-88761000D01*
X100160000Y-89401000D02*
X96109000Y-89401000D01*
X100160000Y-88561000D02*
X95707000Y-88561000D01*
X107136000Y-89321000D02*
X103040000Y-89321000D01*
X104281000Y-92001000D02*
X98919000Y-92001000D01*
X106612000Y-90121000D02*
X103040000Y-90121000D01*
X106896000Y-89721000D02*
X103040000Y-89721000D01*
X100160000Y-88321000D02*
X95619000Y-88321000D01*
X107766000Y-87681000D02*
X103040000Y-87681000D01*
X107262000Y-89081000D02*
X103040000Y-89081000D01*
X106518000Y-90241000D02*
X96682000Y-90241000D01*
X106972000Y-89601000D02*
X103040000Y-89601000D01*
X100160000Y-87561000D02*
X95408000Y-87561000D01*
X107875000Y-87081000D02*
X95325000Y-87081000D01*
X107716000Y-87881000D02*
X103040000Y-87881000D01*
X105925000Y-90881000D02*
X97275000Y-90881000D01*
X107634000Y-88161000D02*
X103040000Y-88161000D01*
X107816000Y-87441000D02*
X103040000Y-87441000D01*
X107930000Y-86280000D02*
X95270000Y-86280000D01*
X107222000Y-89161000D02*
X103040000Y-89161000D01*
X106242000Y-90561000D02*
X96958000Y-90561000D01*
X100160000Y-89601000D02*
X96228000Y-89601000D01*
X106350000Y-90441000D02*
X96850000Y-90441000D01*
X100160000Y-90081000D02*
X96557000Y-90081000D01*
X100160000Y-89641000D02*
X96253000Y-89641000D01*
X107809000Y-87481000D02*
X103040000Y-87481000D01*
X100160000Y-88361000D02*
X95633000Y-88361000D01*
X107068000Y-89441000D02*
X103040000Y-89441000D01*
X107508000Y-88521000D02*
X103040000Y-88521000D01*
X107902000Y-86840000D02*
X95298000Y-86840000D01*
X107924000Y-86520000D02*
X95276000Y-86520000D01*
X100160000Y-89121000D02*
X95958000Y-89121000D01*
X100160000Y-89201000D02*
X95999000Y-89201000D01*
X100160000Y-90001000D02*
X96498000Y-90001000D01*
X105350000Y-91361000D02*
X97850000Y-91361000D01*
X107890000Y-86961000D02*
X95310000Y-86961000D01*
X100160000Y-88721000D02*
X95772000Y-88721000D01*
X100160000Y-89881000D02*
X96412000Y-89881000D01*
X100160000Y-88241000D02*
X95592000Y-88241000D01*
X101917000Y-92601000D02*
X101283000Y-92601000D01*
X100160000Y-90041000D02*
X96527000Y-90041000D01*
X107909000Y-86760000D02*
X95291000Y-86760000D01*
X106008000Y-90801000D02*
X97192000Y-90801000D01*
X107784000Y-87601000D02*
X103040000Y-87601000D01*
X107647000Y-88121000D02*
X103040000Y-88121000D01*
X107930000Y-86240000D02*
X95270000Y-86240000D01*
X100160000Y-88881000D02*
X95842000Y-88881000D01*
X105557000Y-91201000D02*
X97643000Y-91201000D01*
X105240000Y-91441000D02*
X97960000Y-91441000D01*
X103461000Y-92321000D02*
X99739000Y-92321000D01*
X105456000Y-91281000D02*
X97744000Y-91281000D01*
X106049000Y-90761000D02*
X97151000Y-90761000D01*
X100160000Y-87521000D02*
X95399000Y-87521000D01*
X100160000Y-89561000D02*
X96203000Y-89561000D01*
X106788000Y-89881000D02*
X103040000Y-89881000D01*
X102357000Y-92561000D02*
X100843000Y-92561000D01*
X100160000Y-88841000D02*
X95824000Y-88841000D01*
X100160000Y-87961000D02*
X95506000Y-87961000D01*
X106997000Y-89561000D02*
X103040000Y-89561000D01*
X104669000Y-91801000D02*
X98531000Y-91801000D01*
X100160000Y-88961000D02*
X95879000Y-88961000D01*
X106419000Y-90361000D02*
X96781000Y-90361000D01*
X107581000Y-88321000D02*
X103040000Y-88321000D01*
X107553000Y-88401000D02*
X103040000Y-88401000D01*
X107912000Y-86720000D02*
X95288000Y-86720000D01*
X107021000Y-89521000D02*
X103040000Y-89521000D01*
X106922000Y-89681000D02*
X103040000Y-89681000D01*
X104444000Y-91921000D02*
X98756000Y-91921000D01*
X107705000Y-87921000D02*
X103040000Y-87921000D01*
X100160000Y-89361000D02*
X96086000Y-89361000D01*
X107922000Y-86560000D02*
X95278000Y-86560000D01*
X100160000Y-87361000D02*
X95369000Y-87361000D01*
X100160000Y-89521000D02*
X96179000Y-89521000D01*
X105607000Y-91161000D02*
X97593000Y-91161000D01*
X100160000Y-88161000D02*
X95566000Y-88161000D01*
X107824000Y-87401000D02*
X103040000Y-87401000D01*
X105838000Y-90961000D02*
X97362000Y-90961000D01*
X107158000Y-89281000D02*
X103040000Y-89281000D01*
X107926000Y-86480000D02*
X95274000Y-86480000D01*
X107880000Y-87041000D02*
X95320000Y-87041000D01*
X107539000Y-88441000D02*
X103040000Y-88441000D01*
X100160000Y-88601000D02*
X95723000Y-88601000D01*
X107920000Y-86600000D02*
X95280000Y-86600000D01*
X106702000Y-90001000D02*
X103040000Y-90001000D01*
X100160000Y-89961000D02*
X96469000Y-89961000D01*
X100160000Y-88441000D02*
X95661000Y-88441000D01*
X105002000Y-91601000D02*
X98198000Y-91601000D01*
X107694000Y-87961000D02*
X103040000Y-87961000D01*
X100160000Y-88041000D02*
X95529000Y-88041000D01*
X107885000Y-87001000D02*
X95315000Y-87001000D01*
X107393000Y-88801000D02*
X103040000Y-88801000D01*
X100160000Y-89041000D02*
X95918000Y-89041000D01*
X107970000Y-86240000D02*
G75*
G03*
X107970000Y-86240000I-6370000J0D01*
G01*
%TO.C,R7*%
X150515000Y-100772936D02*
X150515000Y-101227064D01*
X151985000Y-100772936D02*
X151985000Y-101227064D01*
%TO.C,D3*%
X138840000Y-66735000D02*
X141300000Y-66735000D01*
X138840000Y-65265000D02*
X138840000Y-66735000D01*
X141300000Y-65265000D02*
X138840000Y-65265000D01*
%TO.C,R2*%
X125522936Y-67265000D02*
X125977064Y-67265000D01*
X125522936Y-68735000D02*
X125977064Y-68735000D01*
%TO.C,C6*%
X89610000Y-69995748D02*
X89610000Y-67164252D01*
X84390000Y-69995748D02*
X84390000Y-67164252D01*
%TO.C,Q2*%
X131000000Y-67940000D02*
X130350000Y-67940000D01*
X131000000Y-67940000D02*
X131650000Y-67940000D01*
X131000000Y-71060000D02*
X132675000Y-71060000D01*
X131000000Y-71060000D02*
X130350000Y-71060000D01*
%TO.C,Q1*%
X121250000Y-67940000D02*
X120600000Y-67940000D01*
X121250000Y-67940000D02*
X121900000Y-67940000D01*
X121250000Y-71060000D02*
X122925000Y-71060000D01*
X121250000Y-71060000D02*
X120600000Y-71060000D01*
%TD*%
M02*
